<?xml version="1.0" encoding="utf-8"?>
<!-- Generator: Adobe Illustrator 19.0.0, SVG Export Plug-In . SVG Version: 6.00 Build 0)  -->
<svg version="1.1" id="Layer_1" xmlns="http://www.w3.org/2000/svg" xmlns:xlink="http://www.w3.org/1999/xlink" x="0px" y="0px"
	 viewBox="0 0 656.2 70.9" style="enable-background:new 0 0 656.2 70.9;" xml:space="preserve">
<style type="text/css">
	.st0{fill:#1D1D1B;}
</style>
<g>
	<path class="st0" d="M348.8,31.8c-0.1-0.6-0.6-1-1.1-1.1c0.4-0.6,0.3-1.4-0.6-1.6c-2.8-0.5-5.8-0.8-8.8-1c5-2.1,9.3-6.4,6.7-10.8
		c-1.8-3.1-5.9-3.2-8.8-1.6c-2.8,1.6-4.8,4.2-6,7.1c-0.4-0.2-0.8-0.3-1.2-0.3c-0.6,0-1.1,0.1-1.6,0.3c-2.9-4.8-11-9-14.3-4.5
		c-2.2,2.9,0.4,6.4,2.9,8.2c1,0.7,2.1,1.2,3.2,1.7c-2.9,0.2-5.7,0.3-8.4,0.6c0,0,0,0,0,0c0-0.1-0.2-0.1-0.2,0c0,0,0,0,0,0
		c-0.1,0-0.1,0-0.2,0c-1.1,0.1-1.3,1.5-0.4,1.9c-1.1,4.9-0.2,10.3-0.1,15.2c0.2,6.6,0.4,13.2,0.6,19.7c0,0.7,0.6,1.4,1.4,1.4
		c11.2-1.1,22.3-1.2,33.5-0.4c1,0.1,1.4-0.7,1.4-1.4c0.1-0.1,0.2-0.2,0.2-0.4C348.7,54.3,349.8,42.2,348.8,31.8z M326.2,63.2
		c-4.3,0.1-8.6,0.4-12.9,0.8c-0.2-6.5-0.5-13-0.7-19.6c-0.2-4.5,0.2-9.3-1-13.7c3.5,0.3,7.2,0.5,10.9,0.7c-1.6,2.2-3.3,4.4-5.3,6.4
		c-0.8,0.8-0.4,2.2,0.7,2.5c1,0.3,2,0.6,3,0.9c0.6,0.2,1.4-0.1,1.7-0.7c0.7-1.5,1.5-3,2.2-4.6c0.6-1,1.1-2.1,1.6-3
		C325.5,42.9,325.3,53.4,326.2,63.2z M346.6,31.5c-1.8,10.1-1.9,21.8-1.5,32.1c-4.3-0.3-8.6-0.4-12.8-0.4c0.7-9.6,0.5-19.3-0.1-28.9
		c1.5,2,3.1,4,4.7,5.9c0.6,0.7,1.8,0.5,2.2-0.3c0.7-1.2,1.4-2.5,2.1-3.7c0.5-0.8,0-1.8-0.9-2.1c-0.6-0.2-1.1-0.4-1.6-0.6
		c-0.7-0.6-1.6-1.1-2.5-1.5c3.6,0,7.1-0.2,10.5-0.6C346.6,31.3,346.6,31.4,346.6,31.5z"/>
	<path class="st0" d="M296.2,43.4c-13.5-12.9-36.5-2.5-51,3c-18,6.9-48.3,20.5-62.3-0.6c-7.8-11.8-1.5-32.2,15-29.9
		c7,0.9,13.4,6.5,13,14c-0.3,4.8-3.2,8.8-7.8,9.9c-7.7,2-12.2-3.8-12.5-10.6c-0.1-1.8-2.5-1.7-2.7,0c-2,16.4,22,19.5,25.7,3.8
		c3.4-14.9-14.5-24.8-26.8-17.9c-8.8,5-11.7,14.2-10,22.9c-11-14-25.4-25.7-43.6-28.1C115,7.6,95.8,16.7,90.7,35.4
		C83,49.3,62.1,52,47.7,52.2C32.5,52.4,16.6,47.3,7.9,34c-3.8-5.8-6-13.4-4.2-20.4C5.8,6,14,2.5,21.4,3.7C30,5.1,37.4,13.6,35,22.4
		c-3.6,13.2-23.6,10.3-19.7-3.7c0.5-1.9-2.1-2.5-2.8-0.8C6.9,31.5,25.7,40,34.7,29.9c9.9-11.1,0.2-27.5-13.1-29.5
		C5.7-2-3,12.2,0.9,26.5C5.5,43,21.9,52.9,38.1,55c11.9,1.5,24.9-0.1,36.3-3.8c6.1-2,11.7-5.1,15.3-9.9c-0.9,15.5,11.2,30,27.7,29.6
		c17.9-0.5,27.3-20.4,15.5-34.1c-5.4-6.3-16.3-11.3-23.1-3.9c-6.1,6.5-2,16,6,17.9c1.9,0.5,2.7-2.4,0.8-3c-4.1-0.6-5.8-2.9-5-6.9
		c-1.8-4.3-0.2-7,4.8-8.2c3.4-0.9,7.2,0.6,9.8,2.5c3.8,2.6,7.2,6.8,8.5,11.3c2.8,10.4-5.8,19.7-15.6,20.9C98,70,87.4,46.3,96.6,29.5
		c8.8-16,28.5-19.6,44.9-14.7c15.3,4.7,27.1,16.2,37,28.3c1.6,3.9,4.1,7.4,7.4,10.1c15.7,12.9,37.9,4.7,54.5-1.7
		c12.5-4.8,26.8-12,40.5-11.3c8,0.4,17.3,5.1,17.6,14.2c0.2,5.4-4.1,11-9.9,10.1c-7.3-1.1-8.5-12.4,0.3-13.2c1-0.1,0.9-1.4,0-1.5
		c-11.2-1.2-12,16-0.8,17.5C301.9,69.1,304.5,51.3,296.2,43.4z"/>
	<path class="st0" d="M192.5,44.4c-0.9-1.3-3.2-1.5-3.7,0.2c-0.3,0.8,0.1,1.7,0.7,2.2c0.3,0.3,0.7,0.6,1.2,0.6
		C192.3,47.6,193.5,45.8,192.5,44.4z"/>
	<path class="st0" d="M206.3,50.8c-0.3-1.7-2.6-2.6-3.8-1.3c-0.6,0.6-0.6,1.6-0.3,2.3c0,0.6,0.3,1.1,0.8,1.4
		C204.6,54.2,206.5,52.5,206.3,50.8z"/>
	<path class="st0" d="M225.7,45.2c-0.4-0.1-0.9,0-1.2,0.3c-0.2,0.2-0.3,0.3-0.4,0.5c-0.2,0-0.5,0-0.7,0.3c-1.5,1.8,0.5,4.6,2.7,3.6
		C228.1,49,227.7,45.9,225.7,45.2z"/>
	<path class="st0" d="M250.3,34.9c-0.4-0.4-1-0.7-1.7-0.6c-0.5,0.1-1.1,0.5-1.5,0.9c-0.6,0.5-0.9,1.2-0.9,1.9
		c-0.2,0.7,0,1.5,0.6,2.1c1.5,1.4,4,0.3,4.4-1.6C251.4,36.7,251,35.6,250.3,34.9z"/>
	<path class="st0" d="M277.4,30c-0.5-0.6-1-1.5-1.8-1.6c-0.7-0.1-1.4,0.3-1.8,0.8c-0.1,0-0.2,0-0.3,0c-1,0-1.7,0.8-1.7,1.8
		c0,1.1,1,2,2,2.2c1.2,0.3,2.3-0.3,3.3-0.9C277.9,31.7,278,30.7,277.4,30z"/>
	<path class="st0" d="M167.8,37.9c-3.3-4.3-7.2-8.2-11.5-11.5c-8.4-6.3-18.5-9.8-28.7-9.1c-2.7-0.3-5.6-0.2-8.6,0.3
		c-1.6,0.3-0.9,2.7,0.7,2.5c13.7-2.3,23.1,4.9,30.7,14.4c0.7,1.1,1.6,2.2,2.5,3.3c1.7,2.3,3.4,4.7,4.9,7.1c0.5,1.1,1.2,2.1,1.9,2.9
		c0.1,0.1,0.2,0.2,0.2,0.3c2.5,3.7,5.8,7.9,10.6,8.4c2.6,0.2,5.1-0.8,5.4-3.7C176.4,48.1,170.5,41.4,167.8,37.9z M157.5,30
		c1.3,1.2,2.6,2.4,3.8,3.7c-2.2-2.2-4.6-4.2-6.9-6c-0.3-0.2-0.6-0.3-0.9-0.3c-2.2-1.7-4.6-3.1-7-4.4C150.4,24.7,154.1,27.1,157.5,30
		z"/>
	<path class="st0" d="M152.3,47.5c-2.5-6.3-6.5-11.5-11.8-15.7c-0.3-0.3-0.8,0-0.8,0.3c-0.8,0-1.6,0.8-1,1.7c2.4,3.9,4.3,8,5.2,12.6
		c0.8,3.8-0.2,8.7,1.5,12.3c1.4,2.9,5,4.8,7.7,2.2C156.5,57.7,153.6,50.8,152.3,47.5z"/>
	<path class="st0" d="M86,48.1c-0.1-0.5-0.6-0.5-1-0.3c-0.6-0.5-1.6-0.4-1.8,0.5c-0.9,3.8-3.2,6.2-6.6,7.9c-2.3,1.1-4.8,2-6.6,3.8
		c-2.3,2.3-3.4,7.2,0.5,8.6c4.4,1.5,9.6-3.3,12-6.3C85.6,58.3,87.3,53.2,86,48.1z M76.6,60c-0.1,0.2-0.2,0.4-0.4,0.6
		c-0.2-0.2-0.5-0.3-0.7-0.4c0,0,0.1-0.1,0.1-0.1C76.2,59.8,77.1,58.8,76.6,60z"/>
	<path class="st0" d="M66.8,56.4c-0.3-0.3-0.6-0.5-0.9-0.8c-0.3-0.3-0.6-0.3-1-0.1c-0.2,0.1-0.3,0.2-0.3,0.4c0,0,0,0-0.1,0
		c-5.4,3.7-11.1,4.9-17.6,4.6c-4.5-0.3-10.4-2.9-14.9-2c-3.5,0.7-4.5,3.8-2.6,6.6c3.3,4.9,11.1,4.4,16.1,3.6
		c8-1.2,15.3-4.6,21.2-10.2c0.2-0.2,0.2-0.6,0-0.8c0.1-0.1,0.2-0.2,0.3-0.3C67.1,57.1,67,56.6,66.8,56.4z M50.6,65
		c0.3-0.1,0.6-0.4,0.7-0.7c0.8-0.1,1.5-0.2,2.3-0.3c-1.1,0.4-2.2,0.8-3.3,1.1C50.4,65.1,50.5,65.1,50.6,65z M58.4,61.9
		c0-0.1-0.1-0.2-0.2-0.3c1-0.3,1.9-0.7,2.8-1.1C60.2,61,59.3,61.5,58.4,61.9z"/>
	<path class="st0" d="M24.7,37.1c-0.4-0.3-0.8-0.2-1.2,0c-0.5,0.2-0.9,0.6-1.1,1.1c-0.4-0.1-0.8,0-1,0.6c-0.5,1.8,1.5,3.4,3.2,2.5
		C26.2,40.4,26,38.1,24.7,37.1z"/>
	<path class="st0" d="M37.1,42.6c-0.7-0.4-1.5-0.1-2.1,0.4c-0.4-0.1-0.8,0.1-0.9,0.6c-0.2,0.7-0.6,1.5-0.3,2.2
		c0.2,0.5,0.7,0.9,1.2,1.2c1.2,0.5,2.6,0,3.1-1.3C38.6,44.6,38.1,43.2,37.1,42.6z"/>
	<path class="st0" d="M54.3,45.6c-0.2-0.6-0.8-1.1-1.2-1.6c-0.4-0.4-1.1-0.5-1.5-0.2c-0.3,0.2-0.6,0.5-0.8,0.8
		c-0.5,0.4-0.8,0.9-0.9,1.5c-0.1,1,0.5,1.9,1.5,2.1c1,0.3,2.1-0.3,2.7-1.1C54.3,46.7,54.4,46.1,54.3,45.6z"/>
	<path class="st0" d="M68.3,40.7c-0.6-0.1-1.1,0.1-1.4,0.6c-0.2,0.2-0.3,0.5-0.3,0.8c-0.4,0-0.7,0.2-0.9,0.6
		c-0.4,1.9,1.9,3.6,3.5,2.4C70.9,43.9,70.2,41.2,68.3,40.7z"/>
	<path class="st0" d="M85.5,33c-0.2-1.4-1.8-2.5-3.2-1.7c-0.5,0.3-0.7,0.7-0.8,1.1c-0.6-0.2-1.4,0.1-1.2,1c0.3,1.1,1.3,2.1,2.5,2.3
		c0.7,0.1,1.6,0.1,2.1-0.6C85.4,34.5,85.6,33.8,85.5,33z"/>
	<path class="st0" d="M171.9,25c-4.3-6.5-10.2-12.3-16.9-16.1c-0.8-0.4-1.4,0.7-0.7,1.2c6.2,4.7,11.7,9.7,16.7,15.7
		C171.4,26.2,172.2,25.6,171.9,25z"/>
	<path class="st0" d="M173.4,21.4c-3.5-6.6-5-13.3-5-20.8c0-0.8-1.2-0.8-1.3,0c-0.7,7.5,1.2,15,5.2,21.3
		C172.8,22.5,173.8,22,173.4,21.4z"/>
	<path class="st0" d="M186.6,5.4c-5.9,1.3-10.1,6.8-10.2,12.7c0,0.7,1,0.6,1,0c0.6-5.4,4.4-9.8,9.5-11.5
		C187.8,6.4,187.4,5.2,186.6,5.4z"/>
	<path class="st0" d="M360,43.4c13.5-12.9,36.5-2.5,51,3c18,6.9,48.3,20.5,62.3-0.6c7.8-11.8,1.5-32.2-15-29.9
		c-7,0.9-13.4,6.5-13,14c0.3,4.8,3.2,8.8,7.8,9.9c7.7,2,12.2-3.8,12.5-10.6c0.1-1.8,2.5-1.7,2.7,0c2,16.4-22,19.5-25.7,3.8
		c-3.4-14.9,14.5-24.8,26.8-17.9c8.8,5,11.7,14.2,10,22.9c11-14,25.4-25.7,43.6-28.1c18.4-2.5,37.5,6.7,42.7,25.4
		c7.7,13.9,28.6,16.6,43,16.8c15.3,0.2,31.1-4.9,39.8-18.2c3.8-5.8,6-13.4,4.2-20.4c-2-7.7-10.3-11.2-17.7-10
		c-8.6,1.4-15.9,9.9-13.5,18.8c3.6,13.2,23.6,10.3,19.7-3.7c-0.5-1.9,2.1-2.5,2.8-0.8c5.5,13.6-13.2,22-22.3,11.9
		c-9.9-11.1-0.2-27.5,13.1-29.5c15.9-2.4,24.6,11.9,20.7,26.1c-4.5,16.5-21,26.4-37.1,28.4c-11.9,1.5-24.9-0.1-36.3-3.8
		c-6.1-2-11.7-5.1-15.3-9.9c0.9,15.5-11.2,30-27.7,29.6c-17.9-0.5-27.3-20.4-15.5-34.1c5.4-6.3,16.3-11.3,23.1-3.9
		c6.1,6.5,2,16-6,17.9c-1.9,0.5-2.7-2.4-0.8-3c4.1-0.6,5.8-2.9,5-6.9c1.8-4.3,0.2-7-4.8-8.2c-3.4-0.9-7.2,0.6-9.8,2.5
		c-3.8,2.6-7.2,6.8-8.5,11.3c-2.8,10.4,5.8,19.7,15.6,20.9c21.2,2.6,31.8-21.1,22.6-37.9c-8.8-16-28.5-19.6-44.9-14.7
		c-15.3,4.7-27.1,16.2-37,28.3c-1.6,3.9-4.1,7.4-7.4,10.1c-15.7,12.9-37.9,4.7-54.5-1.7c-12.5-4.8-26.8-12-40.5-11.3
		c-8,0.4-17.3,5.1-17.6,14.2c-0.2,5.4,4.1,11,9.9,10.1c7.3-1.1,8.5-12.4-0.3-13.2c-1-0.1-0.9-1.4,0-1.5c11.2-1.2,12,16,0.8,17.5
		C354.3,69.1,351.7,51.3,360,43.4z"/>
	<path class="st0" d="M465.6,47.5c0.5,0,0.9-0.3,1.2-0.6c0.6-0.5,0.9-1.5,0.7-2.2c-0.6-1.7-2.8-1.5-3.7-0.2
		C462.7,45.8,463.9,47.6,465.6,47.5z"/>
	<path class="st0" d="M449.9,50.8c0.3-1.7,2.6-2.6,3.8-1.3c0.6,0.6,0.6,1.6,0.3,2.3c0,0.6-0.3,1.1-0.8,1.4
		C451.6,54.2,449.7,52.5,449.9,50.8z"/>
	<path class="st0" d="M430.2,50c2.2,0.9,4.2-1.8,2.7-3.6c-0.2-0.2-0.4-0.3-0.7-0.3c-0.1-0.2-0.3-0.4-0.4-0.5
		c-0.3-0.3-0.8-0.5-1.2-0.3C428.5,45.9,428,49,430.2,50z"/>
	<path class="st0" d="M405.9,34.9c0.4-0.4,1-0.7,1.7-0.6c0.5,0.1,1.1,0.5,1.5,0.9c0.6,0.5,0.9,1.2,0.9,1.9c0.2,0.7,0,1.5-0.6,2.1
		c-1.5,1.4-4,0.3-4.4-1.6C404.8,36.7,405.2,35.6,405.9,34.9z"/>
	<path class="st0" d="M378.8,30c0.5-0.6,1-1.5,1.8-1.6c0.7-0.1,1.4,0.3,1.8,0.8c0.1,0,0.2,0,0.3,0c1,0,1.7,0.8,1.7,1.8
		c0,1.1-1,2-2,2.2c-1.2,0.3-2.3-0.3-3.3-0.9C378.3,31.7,378.2,30.7,378.8,30z"/>
	<path class="st0" d="M480.3,52.8c0.3,2.9,2.8,4,5.4,3.7c4.8-0.4,8.1-4.6,10.6-8.4c0.1-0.1,0.2-0.2,0.2-0.3c0.7-0.8,1.4-1.8,1.9-2.9
		c1.6-2.4,3.2-4.8,4.9-7.1c0.9-1,1.8-2.2,2.5-3.3c7.6-9.4,17-16.7,30.7-14.4c1.6,0.3,2.3-2.2,0.7-2.5c-3.1-0.5-5.9-0.6-8.6-0.3
		c-10.2-0.8-20.4,2.8-28.7,9.1c-4.4,3.3-8.2,7.2-11.5,11.5C485.7,41.4,479.8,48.1,480.3,52.8z M509.7,22.9c-2.5,1.2-4.8,2.7-7,4.4
		c-0.3,0-0.6,0.1-0.9,0.3c-2.3,1.9-4.6,3.9-6.9,6c1.2-1.3,2.5-2.5,3.8-3.7C502.1,27.1,505.8,24.7,509.7,22.9z"/>
	<path class="st0" d="M503,60.9c2.7,2.6,6.3,0.7,7.7-2.2c1.7-3.6,0.8-8.5,1.5-12.3c0.9-4.5,2.8-8.7,5.2-12.6c0.5-0.9-0.2-1.7-1-1.7
		c0-0.3-0.5-0.6-0.8-0.3c-5.3,4.2-9.3,9.4-11.8,15.7C502.6,50.8,499.7,57.7,503,60.9z"/>
	<path class="st0" d="M573.7,62.4c2.4,3.1,7.6,7.9,12,6.3c4-1.4,2.9-6.3,0.5-8.6c-1.9-1.8-4.3-2.7-6.6-3.8c-3.4-1.7-5.7-4.1-6.6-7.9
		c-0.2-0.9-1.2-1-1.8-0.5c-0.3-0.3-0.8-0.3-1,0.3C568.9,53.2,570.5,58.3,573.7,62.4z M580.6,60.1c0,0,0.1,0.1,0.1,0.1
		c-0.3,0.1-0.5,0.2-0.7,0.4c-0.1-0.2-0.3-0.4-0.4-0.6C579.1,58.8,580,59.8,580.6,60.1z"/>
	<path class="st0" d="M589.3,57.4c0.1,0.1,0.2,0.2,0.3,0.3c-0.2,0.2-0.2,0.6,0,0.8c5.9,5.6,13.2,9,21.2,10.2
		c5,0.8,12.8,1.3,16.1-3.6c1.9-2.8,0.8-5.9-2.6-6.6c-4.5-0.9-10.4,1.8-14.9,2c-6.5,0.4-12.2-0.9-17.6-4.6c0,0,0,0-0.1,0
		c-0.1-0.2-0.2-0.3-0.3-0.4c-0.4-0.2-0.7-0.1-1,0.1c-0.3,0.2-0.6,0.5-0.9,0.8C589.2,56.6,589.1,57.1,589.3,57.4z M605.9,65.1
		c-1.1-0.3-2.2-0.7-3.3-1.1c0.8,0.1,1.5,0.2,2.3,0.3c0.1,0.3,0.3,0.6,0.7,0.7C605.7,65.1,605.8,65.1,605.9,65.1z M595.1,60.5
		c0.9,0.4,1.9,0.8,2.8,1.1c-0.1,0.1-0.1,0.2-0.2,0.3C596.9,61.5,596,61,595.1,60.5z"/>
	<path class="st0" d="M631.5,37.1c0.4-0.3,0.8-0.2,1.2,0c0.5,0.2,0.9,0.6,1.1,1.1c0.4-0.1,0.8,0,1,0.6c0.5,1.8-1.5,3.4-3.2,2.5
		C630,40.4,630.2,38.1,631.5,37.1z"/>
	<path class="st0" d="M619.1,42.6c0.7-0.4,1.5-0.1,2.1,0.4c0.4-0.1,0.8,0.1,0.9,0.6c0.2,0.7,0.6,1.5,0.3,2.2
		c-0.2,0.5-0.7,0.9-1.2,1.2c-1.2,0.5-2.6,0-3.1-1.3C617.6,44.6,618.1,43.2,619.1,42.6z"/>
	<path class="st0" d="M602.2,47.1c0.5,0.9,1.7,1.4,2.7,1.1c0.9-0.3,1.6-1.2,1.5-2.1c-0.1-0.6-0.4-1.2-0.9-1.5
		c-0.2-0.3-0.5-0.6-0.8-0.8c-0.4-0.3-1.2-0.2-1.5,0.2c-0.4,0.4-1,1-1.2,1.6C601.8,46.1,601.9,46.7,602.2,47.1z"/>
	<path class="st0" d="M587,45.1c1.7,1.2,4-0.5,3.5-2.4c-0.1-0.5-0.5-0.6-0.9-0.6c-0.1-0.3-0.2-0.5-0.3-0.8c-0.3-0.5-0.8-0.7-1.4-0.6
		C586,41.2,585.3,43.9,587,45.1z"/>
	<path class="st0" d="M570.7,33c0.2-1.4,1.8-2.5,3.2-1.7c0.5,0.3,0.7,0.7,0.8,1.1c0.6-0.2,1.4,0.1,1.2,1c-0.3,1.1-1.3,2.1-2.5,2.3
		c-0.7,0.1-1.6,0.1-2.1-0.6C570.8,34.5,570.6,33.8,570.7,33z"/>
	<path class="st0" d="M484.3,25c4.3-6.5,10.2-12.3,16.9-16.1c0.8-0.4,1.4,0.7,0.7,1.2c-6.2,4.7-11.7,9.7-16.7,15.7
		C484.8,26.2,484,25.6,484.3,25z"/>
	<path class="st0" d="M482.8,21.4c3.5-6.6,5-13.3,5-20.8c0-0.8,1.2-0.8,1.3,0c0.7,7.5-1.2,15-5.2,21.3
		C483.3,22.5,482.4,22,482.8,21.4z"/>
	<path class="st0" d="M469.6,5.4c5.9,1.3,10.1,6.8,10.2,12.7c0,0.7-1,0.6-1,0c-0.6-5.4-4.4-9.8-9.5-11.5
		C468.4,6.4,468.8,5.2,469.6,5.4z"/>
</g>
</svg>
