<?xml version="1.0" encoding="utf-8"?>
<!-- Generator: Adobe Illustrator 19.0.0, SVG Export Plug-In . SVG Version: 6.00 Build 0)  -->
<svg version="1.1" id="Layer_1" xmlns="http://www.w3.org/2000/svg" xmlns:xlink="http://www.w3.org/1999/xlink" x="0px" y="0px"
	 viewBox="0 0 706.6 87.5" style="enable-background:new 0 0 706.6 87.5;" xml:space="preserve">
<style type="text/css">
	.st0{fill:#1D1D1B;}
</style>
<g>
	<path class="st0" d="M396.6,30.3c-2.2-7.7-9.5-13.7-17.7-12.7c-10.2,1.2-16,11.8-20.2,20.1c0,0,0,0,0,0c-0.2,0.1-0.4,0.2-0.5,0.4
		c-1.9-1.5-4.4-2.3-6.6-1.4c-4.6-7.8-10.4-16.6-20.2-18c-8.2-1.2-16.3,4.8-17.7,12.9c-2.7,14.7,9,22.7,21.1,22.4
		c-5.9,7.5-10.2,16.1-13.2,25.1c-0.5,1.4,1.4,2.2,2.4,1.4c3-2.5,6.1-4.7,9.5-6.6c1.8,4.4,3.8,8.7,5.9,12.9c0.5,1.1,2.3,0.8,2.6-0.3
		c2.7-11.8,6.2-22.7,11.5-33.5c6.3,10.4,10.4,21.5,13.7,33.1c0.4,1.3,2.6,1.5,2.9,0c0.5-2.3,0.8-9.8,2.4-11.5
		c2.5-2.7,8.1,1.3,10.8,2.4c1,0.4,2.2-0.8,1.8-1.8c-3.2-8.5-8.2-15.9-15-21.8c6.1,1.4,12.6,1.2,18.1-1.3
		C396.5,48.5,398.9,38.5,396.6,30.3z M370.9,24.8c4.2-3.8,9.5-4.8,13.9-3.4c-2.7,11.9-12.6,13.1-22.4,15.3
		C364.7,32.4,367.3,28.1,370.9,24.8z M354.3,39.3c1.9,0.1,3.5,1.3,4,3.7c0.6,3-1.9,6.7-5.2,6.2c-2.9-0.5-4.5-4-3.4-6.6
		C350.5,40.7,352.4,39.7,354.3,39.3z M336.4,23.6c6,3.2,9.6,9.3,12.9,15c-10.6,0.5-20.6-5.8-23.1-16.3
		C329.6,21.5,333.2,21.9,336.4,23.6z M327.2,50.3c-7.3-2.5-12-11.2-10.2-18.8c1-4,3.5-6.9,6.7-8.4c-0.2,5,4.5,10.3,8.1,13
		c4.6,3.5,10.2,5.2,15.9,4.7c-0.4,0.7-0.8,1.5-0.9,2.4c-0.3,1.7,0.1,3.5,1,5c-3.1,1.3-6.3,2.3-9.6,2.8c-0.3-0.1-0.6,0-0.8,0.1
		C333.9,51.7,330.5,51.5,327.2,50.3z M340.2,81.9c-1.6-3.4-3.2-6.8-4.6-10.3c-0.3-0.9-1.2-1.3-2.1-0.8c-2.6,1.4-5.1,3-7.5,4.7
		c3.1-7.9,7.4-15,12.7-21.8c3.5-0.6,6.9-2,9.9-4.1c0.9,1,2.1,1.8,3.5,2.1C345.5,60.3,342.7,71.4,340.2,81.9z M364.9,52.8
		c7,5.4,12.4,11.9,16,19.8c-2.9-1.4-5.9-2.8-8.8-3c-0.5,0-1.1,0.3-1.3,0.7c-1.3,2.6-1.9,5.8-2.4,8.9c-3.1-9.8-6.9-19.4-13.4-27.5
		c1.8-0.4,3.3-1.4,4.3-2.8c1.5,1,3.2,1.8,5,2.6C364.2,52,364.4,52.5,364.9,52.8z M382.8,50.5c-7.7,1.5-15.4-0.3-22.5-3.2
		c0.8-1.8,1-4,0.3-6c-0.1-0.3-0.2-0.5-0.3-0.8c0.2-0.1,0.3-0.3,0.5-0.5c0.1-0.2,0.2-0.4,0.3-0.6c10.6,1.2,25.9-5.4,26.5-16.9
		c2.9,1.7,5.2,4.6,6.3,8.5C396.2,40,392.2,48.7,382.8,50.5z"/>
	<path class="st0" d="M320.4,56.7c-25.4,9.4-58.2,16.7-83.6,3c-12.5-6.7-23.1-25.9-8.9-36.9c6.3-4.9,15.3-3.3,20.7,2.3
		c2.9,3,4.7,7.3,4.4,11.4c-0.3,4-2.6,8.3-6.5,9.7c-4.9,1.8-10.6-1.6-10.9-7.1c-0.1-1.8-2.7-1.8-2.9,0c-1,14.1,18.2,13.8,22.5,2.4
		c4.7-12.7-7.5-25.7-20.3-24.7c-12,1-17.9,13.2-16.3,24.1c-10.9-15.3-29.5-26.3-47-30.8c-18.9-4.8-45.3-3.2-53.9,17.7
		c-0.1,0.3-0.2,0.6-0.4,1c-0.1,0.1-0.1,0.2-0.2,0.3c0,0.1,0,0.2-0.1,0.3c-0.5,1.5-0.9,3-1.2,4.5C111,48.3,94.3,59.8,78.6,56.8
		C68.7,55,58.3,44,64,33.5c3.5-6.5,12.4-9.1,17.4-2.4c1.4,1.9,1.5,6.2,0.3,8.2c-2.4,3.8-6.7,3.6-10.2,2.3c-1.3-0.5-1.9,1.4-0.9,2.1
		c9.6,7.3,19.3-7.1,12.4-15.5c-8.4-10.1-22.7-0.8-23.4,10.2c0,0,0,0.1,0,0.1C54.9,49.1,41,53.3,31.6,45.4c-5.1-4.3-8.1-13-2.2-18.2
		c2.7-2.4,8-3.5,11.4-1.7c2.2,1.5,2.8,4.2,1.7,6.6c-1.1,2.4-3.4,4-5.7,5.3c-0.3-0.2-0.6-0.4-0.9-0.6c-0.9-0.6-2.2,0.6-1.5,1.5
		c5.9,8,16.3-0.9,13.1-9.1c-3.6-9.2-16.7-9.4-22-1.8c-6.7,9.7,2.1,21.6,12,24.3c8.1,2.2,18.1-1.2,22.4-8.3
		c2.5,12.9,18,18.9,30.3,16.1c9.4-2.1,20.7-8.3,25.9-17.2c1.9,14.3,14.1,26.6,29.8,25.9c19.9-0.8,29.4-26.9,11.5-38.2
		c-7.6-4.8-19.8-4.5-22.9,5.4c-2.8,9.1,5.2,16.4,13.9,15c1.7-0.3,1.3-3.2-0.4-3c-9.6,1-15.3-11-6-16.1c6-3.3,13.6,0,17.7,4.9
		c8.4,9.8,2.9,24.9-9.3,28.1c-25,6.6-41.3-26.3-24.1-43.9c13.3-13.6,36.3-11.2,52.6-5.4c18.5,6.6,31.2,19,42.9,34.2
		c7.2,12.7,22.7,17.6,36.5,19.4c21,2.7,44.2-0.2,62.8-10.7C321.7,57.6,321.2,56.4,320.4,56.7z"/>
	<path class="st0" d="M312.9,51.9c-9.3,4.2-28.4,11.2-36.5,1.3c-4.2-5.1-3.4-13.3,2.6-16.7c2.5-1.4,5.8-1.9,8.6-1.2
		c1.6,0.4,2.9,1,4.1,2c1,1.3,1.5,2.7,1.6,4c-0.1,0.1-0.1,0.3-0.1,0.5c0,0.3,0,0.5,0.1,0.8c-0.3,2.5-2,4.6-4.5,5.9
		c-0.7,0-1.4,0-2.2,0c-1.2-0.7-2.6,1-1.5,2c6.7,6.1,14.9-2.3,12.3-9.8c-3-8.7-14.7-10.5-21.4-5.3c-7.1,5.5-6.3,17.1,0.9,22.2
		c10.2,7.2,27.5,1.8,36.8-4.3C314.4,52.7,313.7,51.6,312.9,51.9z"/>
	<path class="st0" d="M115.2,9.1c0-0.4-0.3-0.7-0.6-0.9c-0.8-2.8-6.3-2.3-7.4,2.3c-1.4,6-0.3,12.1-2.6,18.2
		C102,36,97.5,41.9,91.6,47c-0.1,0.1-0.2,0.3-0.2,0.4c0,0,0,0,0,0c-0.9,0.6-0.1,1.9,0.9,1.5C107.2,41.9,116.2,25.4,115.2,9.1z
		 M105.2,33.8c0.2,0.1,0.3,0.1,0.5,0.1c-0.7,1-1.4,2-2.2,3C104.1,35.9,104.7,34.9,105.2,33.8z"/>
	<path class="st0" d="M97.6,14.4c-0.8-4-2.8-11.8-8.3-11.5c-3.7,0.2-4.8,3.6-3.8,6.7c1.2,3.6,4.2,6.4,5.5,10.1
		c1.7,4.7,1.7,9.4,1.3,14.3c-0.1,0.9,1.3,1.2,1.7,0.5c0.2,0.2,0.7,0.3,0.9-0.1C97.9,28,98.9,21.3,97.6,14.4z M95,30.1
		c0.9-4.4,1.2-8.8,0.9-13.2C96.6,21.3,96.2,25.7,95,30.1z"/>
	<path class="st0" d="M214.7,27.1c-0.1-0.1-0.3-0.2-0.4-0.3c0.2-0.3,0.2-0.7-0.1-1c-6.7-7.1-13.4-15.7-21.1-21.7
		c-2.1-1.6-5.8-3.2-7.4,0c-1.8,3.5,2.9,7.9,5.1,9.7c7,5.6,15.5,10,23.2,14.5C214.8,28.5,215.4,27.5,214.7,27.1z M200.4,13.7
		c-0.7-0.6-1.4-1.2-2.1-1.8c0,0,0,0,0,0c-0.1-0.2-0.1-0.4-0.2-0.7C198.8,12,199.6,12.8,200.4,13.7z M193,9.1
		c0.9,1.2,1.8,2.4,2.8,3.7c-0.2-0.1-0.4-0.2-0.6-0.3c0-0.3,0-0.6-0.2-0.8c-1.2-1.2-2.3-2.6-3.5-3.8c0-0.1-0.1-0.2-0.1-0.3
		C191.9,8.1,192.5,8.6,193,9.1z M189.5,10.2c0.6,0.7,1.4,1.2,2.1,1.8c0.3,0.4,0.7,0.7,1,1c0,0.1,0,0.1,0,0.2
		C191.4,12.3,190.3,11.3,189.5,10.2z"/>
	<path class="st0" d="M217.1,24c-0.2-0.3-0.5-0.5-0.7-0.8c0.1-0.2,0.1-0.3,0-0.5c-1.7-6.1,0.9-13-1.8-19c-1-2.3-3.6-4.8-6.2-3.1
		c-3,2-1.5,7.5-0.8,10.2c1.5,5.4,4.5,10.2,8.6,14C216.8,25.3,217.5,24.5,217.1,24z M213.2,18.7c0.4-0.1,0.8-0.4,0.8-1
		c0-1,0-2-0.1-2.9c0,0,0.1-0.1,0.1-0.1c-0.1,1.9,0,3.7,0.2,5.5C213.8,19.8,213.5,19.2,213.2,18.7z"/>
	<path class="st0" d="M206.3,53c-12.9-19.7-34.3-40.8-60.2-36.5c-9.4,1.6-18.7,8.1-20.8,17.8c-1.8,8.2,2.3,16.7,10.2,19.6
		c0.2,0.1,0.4-0.3,0.2-0.4c-10.4-5.7-11.5-19-3.6-27.3c7.8-8.2,19.8-8.9,30.2-6.3c19.5,4.9,30.5,19.6,42.4,34.4
		C205.4,55.2,206.9,54,206.3,53z"/>
	<path class="st0" d="M163.3,24.9c-0.5-0.1-0.8,0.7-0.2,0.8c15.5,5.3,18,21,21.5,34.8c0.3,1,2,0.8,1.9-0.3
		C184.8,45.9,179,28.7,163.3,24.9z"/>
	<path class="st0" d="M170.4,38.9c-0.2-0.4-0.9-0.1-0.8,0.3c3,8.6,2.3,16.1-1.5,24.3c-0.5,1.1,0.9,2,1.6,1
		C174.9,57.1,174.8,46.6,170.4,38.9z"/>
	<path class="st0" d="M28.8,49.8C23.9,39.3,11.8,34.4,1,32.1c-1-0.2-1.4,1.2-0.4,1.5c10.5,4,20.9,6.6,27.4,16.7
		C28.3,50.9,29.1,50.4,28.8,49.8z"/>
	<path class="st0" d="M21,48c-4.7-2.5-10.4-3.4-15.6-2.1c-0.8,0.2-0.7,1.6,0.2,1.5c5.3-0.6,9.9-0.2,14.9,1.6
		C21.2,49.2,21.6,48.3,21,48z"/>
	<path class="st0" d="M51.1,42c0,0,0-0.1,0-0.1c-0.2-0.7-0.6-1.2-1-1.8c-0.4-0.5-1.1-0.3-1.5,0c-0.8,0.7-1.2,1.6-1.1,2.7
		c0,0.5,0.3,0.9,0.8,1.1c0.2,0.1,0.4,0.1,0.6,0.1c0.4,0.2,0.9,0.2,1.3,0c0.7-0.3,1-0.9,1-1.6C51.2,42.3,51.2,42.1,51.1,42z"/>
	<path class="st0" d="M58.1,28.1c-0.6-0.4-1.4-0.3-2,0.1c-0.2,0.1-0.4,0.3-0.6,0.5c-0.5-0.1-1.1,0.1-1.3,0.6c-0.4,1.3,0.4,2.7,1.7,3
		c1.4,0.3,2.7-0.8,2.9-2.2C58.9,29.4,58.7,28.5,58.1,28.1z"/>
	<path class="st0" d="M75.4,17.4c-0.4-1.6-2.4-2.1-3.5-1c-0.2,0.2-0.3,0.3-0.4,0.5c-0.6-0.2-1.3,0.1-1.2,0.8c0.1,1.6,1.4,3,3,2.8
		C74.8,20.5,75.7,18.9,75.4,17.4z"/>
	<path class="st0" d="M269.9,59.3c-1.2-0.8-3.3-0.5-3.4,1.2c0,0.1,0,0.2,0,0.3c-0.1,0.4-0.1,0.9,0.2,1.3c0.6,1.1,2.3,1.3,3.3,0.6
		C271.3,61.9,271.2,60.1,269.9,59.3z"/>
	<path class="st0" d="M262.6,46.3c-0.9,0.3-1.9,1.4-1.4,2.4c0,0.5,0.1,1.1,0.5,1.5c1.2,1.4,3.8,0.7,4.3-1
		C266.6,47.1,264.4,45.7,262.6,46.3z"/>
	<path class="st0" d="M275.8,26.7c-0.2-0.7-0.8-1.5-1.6-1.5c-0.4,0-0.7,0.1-1,0.3c-0.1,0-0.1,0-0.2,0c-1.2,0.2-1.8,1.3-1.7,2.5
		c0.1,1.4,1.4,2.3,2.8,1.9C275.3,29.5,276.1,28,275.8,26.7z"/>
	<path class="st0" d="M296,26c-0.2,0.1-0.4,0.3-0.6,0.5c-0.9,0.4-1.2,1.3-1,2.2c0.5,2,3.5,2.6,4.6,0.7C300,27.6,298.1,24.9,296,26z"
		/>
	<path class="st0" d="M307.2,43.4c-0.1-1.4-1.2-2.4-2.5-2.5c-0.6,0-1.2,0.5-1.4,1c0,0.1,0,0.1,0,0.2c-0.5,0.5-0.8,1.1-0.7,1.9
		c0.2,1.1,1.3,1.7,2.3,1.8c0.5,0.2,0.9,0,1.3-0.4C306.8,45,307.3,44.3,307.2,43.4z"/>
	<path class="st0" d="M385.7,58c18.6,10.4,41.8,13.3,62.8,10.7c13.8-1.8,29.3-6.7,36.5-19.4c11.6-15.1,24.3-27.6,42.9-34.2
		c16.3-5.8,39.3-8.2,52.6,5.4c17.2,17.6,0.9,50.5-24.1,43.9c-12.1-3.2-17.7-18.3-9.3-28.1c4.2-4.9,11.7-8.1,17.7-4.9
		c9.4,5.1,3.7,17.1-6,16.1c-1.7-0.2-2.1,2.7-0.4,3c8.7,1.3,16.8-6,13.9-15c-3.1-9.9-15.3-10.2-22.9-5.4
		c-17.9,11.3-8.5,37.4,11.5,38.2c15.7,0.6,28-11.7,29.8-25.9c5.2,8.9,16.4,15.1,25.9,17.2c12.2,2.8,27.8-3.2,30.3-16.1
		c4.3,7.1,14.2,10.5,22.4,8.3c9.9-2.7,18.7-14.6,12-24.3c-5.3-7.6-18.4-7.4-22,1.8c-3.2,8.2,7.3,17.1,13.1,9.1
		c0.7-0.9-0.6-2.1-1.5-1.5c-0.3,0.2-0.6,0.4-0.9,0.6c-2.3-1.3-4.6-2.9-5.7-5.3c-1.1-2.4-0.5-5.1,1.7-6.6c3.5-1.8,8.7-0.7,11.4,1.7
		c5.9,5.1,2.9,13.8-2.2,18.2c-9.4,8-23.3,3.8-27.9-6.8c0,0,0-0.1,0-0.1c-0.7-11-15-20.3-23.4-10.2c-7,8.4,2.7,22.8,12.4,15.5
		c1-0.7,0.4-2.6-0.9-2.1c-3.5,1.3-7.8,1.6-10.2-2.3c-1.3-2-1.2-6.3,0.3-8.2c5-6.7,13.9-4.1,17.4,2.4C648.4,44,637.9,55,628,56.8
		c-15.7,3-32.4-8.5-37.4-23.1c-0.3-1.5-0.6-3-1.2-4.5c0-0.1,0-0.2,0-0.3c0-0.1-0.1-0.2-0.2-0.3c-0.1-0.3-0.2-0.6-0.4-1
		c-8.6-20.9-35-22.5-53.9-17.7c-17.5,4.5-36,15.5-47,30.8c1.6-10.8-4.3-23-16.3-24.1c-12.7-1.1-25,11.9-20.3,24.7
		c4.3,11.5,23.4,11.7,22.5-2.4c-0.1-1.8-2.8-1.8-2.9,0c-0.3,5.6-5.9,8.9-10.9,7.1c-3.9-1.4-6.2-5.7-6.5-9.7
		c-0.3-4.2,1.6-8.5,4.4-11.4c5.4-5.6,14.4-7.1,20.7-2.3c14.2,11,3.6,30.1-8.9,36.9c-25.4,13.7-58.2,6.4-83.6-3
		C385.4,56.4,384.9,57.6,385.7,58z"/>
	<path class="st0" d="M393,53.2c9.3,6.1,26.6,11.5,36.8,4.3c7.2-5.1,7.9-16.7,0.9-22.2c-6.8-5.3-18.4-3.4-21.4,5.3
		c-2.6,7.5,5.6,15.9,12.3,9.8c1.1-1-0.3-2.6-1.5-2c-0.8,0-1.5,0-2.2,0c-2.4-1.3-4.2-3.4-4.5-5.9c0-0.3,0-0.5,0.1-0.8
		c0-0.2,0-0.4-0.1-0.5c0.1-1.3,0.6-2.7,1.6-4c1.2-1,2.5-1.6,4.1-2c2.9-0.7,6.1-0.2,8.6,1.2c5.9,3.4,6.7,11.7,2.6,16.7
		c-8.1,9.8-27.2,2.8-36.5-1.3C392.9,51.6,392.2,52.7,393,53.2z"/>
	<path class="st0" d="M614.4,48.9c1,0.5,1.8-0.9,0.9-1.5c0,0,0,0,0,0c0-0.2-0.1-0.3-0.2-0.4c-5.9-5-10.4-10.9-13.1-18.2
		c-2.2-6.1-1.2-12.2-2.6-18.2c-1.1-4.6-6.6-5.1-7.4-2.3c-0.3,0.2-0.5,0.5-0.6,0.9C590.5,25.4,599.5,41.9,614.4,48.9z M603.1,36.9
		c-0.8-1-1.5-1.9-2.2-3c0.2,0,0.3,0,0.5-0.1C602,34.9,602.5,35.9,603.1,36.9z"/>
	<path class="st0" d="M611.8,34.3c0.2,0.4,0.6,0.3,0.9,0.1c0.4,0.7,1.7,0.4,1.7-0.5c-0.4-4.9-0.4-9.6,1.3-14.3
		c1.3-3.7,4.3-6.5,5.5-10.1c1-3.1-0.1-6.5-3.8-6.7c-5.5-0.3-7.5,7.5-8.3,11.5C607.7,21.3,608.7,28,611.8,34.3z M610.7,16.8
		c-0.3,4.5,0,8.8,0.9,13.2C610.5,25.7,610.1,21.3,610.7,16.8z"/>
	<path class="st0" d="M492.6,28.1c7.8-4.4,16.2-8.9,23.2-14.5c2.2-1.8,6.9-6.2,5.1-9.7c-1.6-3.2-5.3-1.6-7.4,0
		c-7.7,6-14.4,14.6-21.1,21.7c-0.3,0.3-0.3,0.7-0.1,1c-0.1,0.1-0.3,0.2-0.4,0.3C491.3,27.5,491.9,28.5,492.6,28.1z M508.7,11.2
		c-0.1,0.2-0.2,0.4-0.2,0.7c0,0,0,0,0,0c-0.7,0.6-1.5,1.2-2.1,1.8C507.1,12.8,507.9,12,508.7,11.2z M515.3,7.6
		c0,0.1-0.1,0.2-0.1,0.3c-1.2,1.2-2.3,2.6-3.5,3.8c-0.2,0.2-0.3,0.5-0.2,0.8c-0.2,0.1-0.4,0.2-0.6,0.3c0.9-1.2,1.8-2.4,2.8-3.7
		C514.2,8.6,514.7,8.1,515.3,7.6z M514,13.2c0-0.1,0-0.1,0-0.2c0.4-0.3,0.7-0.7,1-1c0.8-0.5,1.5-1.1,2.1-1.8
		C516.4,11.3,515.2,12.3,514,13.2z"/>
	<path class="st0" d="M490.4,24.8c4.1-3.9,7-8.6,8.6-14c0.8-2.7,2.3-8.1-0.8-10.2c-2.6-1.8-5.2,0.8-6.2,3.1c-2.6,5.9,0,12.8-1.8,19
		c-0.1,0.2,0,0.4,0,0.5c-0.2,0.3-0.4,0.5-0.7,0.8C489.1,24.5,489.9,25.3,490.4,24.8z M492.5,20.3c0.2-1.8,0.3-3.6,0.2-5.5
		c0,0,0.1,0.1,0.1,0.1c-0.1,1-0.1,1.9-0.1,2.9c0,0.6,0.4,0.9,0.8,1C493.1,19.2,492.8,19.8,492.5,20.3z"/>
	<path class="st0" d="M500.4,53c12.9-19.7,34.3-40.8,60.2-36.5c9.4,1.6,18.7,8.1,20.8,17.8c1.8,8.2-2.3,16.7-10.2,19.6
		c-0.2,0.1-0.4-0.3-0.2-0.4c10.4-5.7,11.5-19,3.6-27.3c-7.8-8.2-19.8-8.9-30.2-6.3C524.9,24.7,514,39.5,502,54.3
		C501.2,55.2,499.7,54,500.4,53z"/>
	<path class="st0" d="M543.3,24.9c0.5-0.1,0.8,0.7,0.2,0.8c-15.5,5.3-18,21-21.5,34.8c-0.3,1-2,0.8-1.9-0.3
		C521.8,45.9,527.7,28.7,543.3,24.9z"/>
	<path class="st0" d="M536.3,38.9c0.2-0.4,0.9-0.1,0.8,0.3c-3,8.6-2.3,16.1,1.5,24.3c0.5,1.1-0.9,2-1.6,1
		C531.8,57.1,531.8,46.6,536.3,38.9z"/>
	<path class="st0" d="M677.8,49.8c5-10.6,17.1-15.4,27.8-17.7c1-0.2,1.4,1.2,0.4,1.5c-10.5,4-20.9,6.6-27.4,16.7
		C678.4,50.9,677.6,50.4,677.8,49.8z"/>
	<path class="st0" d="M685.6,48c4.7-2.5,10.4-3.4,15.6-2.1c0.8,0.2,0.7,1.6-0.2,1.5c-5.3-0.6-9.9-0.2-14.9,1.6
		C685.5,49.2,685.1,48.3,685.6,48z"/>
	<path class="st0" d="M655.5,42c0,0,0-0.1,0-0.1c0.2-0.7,0.6-1.2,1-1.8c0.4-0.5,1.1-0.3,1.5,0c0.8,0.7,1.2,1.6,1.1,2.7
		c0,0.5-0.3,0.9-0.8,1.1c-0.2,0.1-0.4,0.1-0.6,0.1c-0.4,0.2-0.9,0.2-1.3,0c-0.7-0.3-1-0.9-1-1.6C655.5,42.3,655.5,42.1,655.5,42z"/>
	<path class="st0" d="M648.6,28.1c0.6-0.4,1.4-0.3,2,0.1c0.2,0.1,0.4,0.3,0.6,0.5c0.5-0.1,1.1,0.1,1.3,0.6c0.4,1.3-0.4,2.7-1.7,3
		c-1.4,0.3-2.7-0.8-2.9-2.2C647.7,29.4,647.9,28.5,648.6,28.1z"/>
	<path class="st0" d="M633.4,20.6c1.7,0.2,2.9-1.3,3-2.8c0.1-0.7-0.7-1-1.2-0.8c-0.1-0.2-0.2-0.4-0.4-0.5c-1.2-1.1-3.1-0.6-3.5,1
		C630.9,18.9,631.9,20.5,633.4,20.6z"/>
	<path class="st0" d="M436.7,59.3c1.2-0.8,3.3-0.5,3.4,1.2c0,0.1,0,0.2,0,0.3c0.1,0.4,0.1,0.9-0.2,1.3c-0.6,1.1-2.3,1.3-3.3,0.6
		C435.3,61.9,435.5,60.1,436.7,59.3z"/>
	<path class="st0" d="M444,46.3c0.9,0.3,1.9,1.4,1.4,2.4c0,0.5-0.1,1.1-0.5,1.5c-1.2,1.4-3.8,0.7-4.3-1
		C440,47.1,442.3,45.7,444,46.3z"/>
	<path class="st0" d="M430.8,26.7c0.2-0.7,0.8-1.5,1.6-1.5c0.4,0,0.7,0.1,1,0.3c0.1,0,0.1,0,0.2,0c1.2,0.2,1.8,1.3,1.7,2.5
		c-0.1,1.4-1.4,2.3-2.8,1.9C431.3,29.5,430.5,28,430.8,26.7z"/>
	<path class="st0" d="M407.7,29.4c1,1.9,4,1.4,4.6-0.7c0.2-0.9-0.1-1.8-1-2.2c-0.2-0.2-0.4-0.4-0.6-0.5
		C408.5,24.9,406.7,27.6,407.7,29.4z"/>
	<path class="st0" d="M399.4,43.4c0.1-1.4,1.2-2.4,2.5-2.5c0.6,0,1.2,0.5,1.4,1c0,0.1,0,0.1,0,0.2c0.5,0.5,0.8,1.1,0.7,1.9
		c-0.2,1.1-1.3,1.7-2.3,1.8c-0.5,0.2-0.9,0-1.3-0.4C399.8,45,399.4,44.3,399.4,43.4z"/>
</g>
</svg>
