<?xml version="1.0" encoding="utf-8"?>
<!-- Generator: Adobe Illustrator 19.0.0, SVG Export Plug-In . SVG Version: 6.00 Build 0)  -->
<svg version="1.1" id="Layer_1" xmlns="http://www.w3.org/2000/svg" xmlns:xlink="http://www.w3.org/1999/xlink" x="0px" y="0px"
	 viewBox="0 0 744.8 70.4" style="enable-background:new 0 0 744.8 70.4;" xml:space="preserve">
<style type="text/css">
	.st0{fill:#1D1D1B;}
</style>
<g>
	<path class="st0" d="M387.5,59.9c0.5-0.7,0.8-1.5,0.9-2.5c0.1-2.7-2-4.9-3.4-7.1c-1.6-2.5-2.8-5.3-4-8c0.8-0.4,1.4-0.9,1.5-2.1
		c0-0.1,0-0.2,0-0.3c0,0,0,0,0-0.1c0.3-2-1.4-4.2-2.2-5.9c-0.8-1.6-1.7-3.2-2.7-4.8c3.5-0.9,1.6-4.7,0.1-7.6c-1-1.9-4.4-9.4-7.6-7.3
		c-1.7,1.1-2.7,4-3.6,5.7c-0.8,1.6-2.7,4.3-2.2,6.2c-0.1,0-0.2,0.1-0.3,0.1c-0.7,0.4-0.8,1.3-0.5,2c0.5,1.1,1.6,1.3,2.7,1.3
		c-1,1.6-1.9,3.3-2.8,4.9c-0.9,1.6-2.8,4.1-2.6,6.2c0.2,1.7,1.4,2.4,3.1,2.6c-2.4,3.9-4.4,7.9-6.3,12.1c-0.9,2-2.3,4.2-0.3,6
		c2.4,2.1,7.9,1.1,10.8,1c5.4,0,10.9-0.3,16.3-0.6c0.4,0.2,0.9,0.3,1.3,0.1c0.1-0.1,0.3-0.1,0.4-0.2c0,0,0,0,0,0
		C386.9,61.8,387.9,60.9,387.5,59.9C387.5,59.9,387.5,59.9,387.5,59.9z"/>
	<path class="st0" d="M352.2,45c-1.8-4-7.7-7.7-12.2-6.3c-10.7-1.4-22.5,3.2-32.5,5.6c-15.4,3.7-33.5,10.7-49.4,6.9
		c-6.3-1.5-12.2-5-16-10.3c-5.8-8.2-4.3-19.5,6.5-22.1c7.3-1.7,17.4,0.1,21.5,7c2.6,4.4,2.3,11.9-3.7,13.7
		c-5.3,1.5-9.7-3.6-11.5-7.8c-0.6-1.5-2.8-0.4-2.5,1.1c1.5,6.3,8.2,11.7,14.9,9.9c6.6-1.8,9-9.7,7-15.7
		c-4.6-13.7-30.3-16.6-37.1-3.5c-3.7,7-2.2,13.4,1.8,18.6c-16.9-12.5-36.6-21.2-57.1-25.7c-19.5-4.3-46.7-6.6-58.2,13.9
		c-0.5,1-1,2-1.4,3c-0.3,0-0.6,0.1-0.6,0.5c-2.9,15.5-17.8,23.7-32.8,23.4c-8.9-0.1-18-5.8-17.6-15.6c0.2-5.3,4.1-10.4,9.5-10.9
		c2.2-0.2,4,0.2,5.6,1.4c1.5,2.4,2.3,5.3,0.8,8c-0.6,1.1-1.4,1.9-2.4,2.6c-1.1,0-2.4,0-3.8-0.1c-1-1.5-3.1-0.2-2.4,1.4
		c0.2,0.4,0.3,0.7,0.5,1c0,0.2,0.1,0.3,0.3,0.4c5.4,8.7,18.1-2.5,12.7-12c-6.3-11.1-21.9-5.1-23.8,6c-4.8,27.7,41.9,26.4,52.7,5.7
		c1.8,12.6,14,23.5,27.1,25.4c18,2.6,35.6-15.3,22.9-32.1c-5.9-7.8-17.2-12.4-25.8-6.2c-6.8,4.9-7.4,15.2-0.2,19.9
		c1.3,0.8,2.8-1.1,1.6-2.1c-6.2-5.6-3.9-14.7,4.4-16.9c6.8-1.9,13.6,2.3,17.4,7.6c9.1,12.5-1.4,26.6-15.4,27
		c-23.1,0.6-39.8-27.5-19.4-43.5c16.3-12.7,41.6-6.8,59.7-1.4c18.1,5.4,34.7,14.3,50,25.3c-1.9,0.1-3.8,1-5.2,2.6
		c-3,3.6-2.1,9.3,1.3,12.3c3.4,3,9.3,2.8,11.1-1.9c1.3-3.6-2.4-8.5-6.2-6.3c-1,0.6-0.5,2,0.6,2.1c1.3,0.1,2.8,0.4,3.2,1.9
		c0.4,2-1.8,3.5-3.5,3.5c-2.6,0-4.7-2.4-5.3-4.8c-1.2-5,4.1-9.1,8.7-6.7c0.3,0.2,0.7-0.1,0.7-0.4c5.5,3.1,11.6,4.9,16.8,5.1
		c12.8,0.5,25.7-3.9,38-6.9c12.6-3.1,26.1-8.1,39.3-7.2c1.3,0.3,2.5,0.5,3.8,1.2c2.5,1.5,4.3,4,4,7c-0.3,2.5-1.8,5-4.4,5.4
		c-1.5,0.2-3.5-0.4-4.2-1.9c-1.1-2.2,1.3-4.8,3.5-4.2c0.7,0.2,1.2-0.9,0.5-1.2c-3.8-1.9-8.1,1.5-6.9,5.8c1.3,4.3,6.9,5.6,10.4,3.2
		C352.7,54,354,48.9,352.2,45z"/>
	<path class="st0" d="M67.2,54.1C67.1,54,67,53.9,67,53.8c0-0.3-0.1-0.7-0.4-1c-0.9-0.9-1.7-1.7-2.6-2.5C55,40.4,44.1,32,32.2,26.2
		C25.2,22.8,7.4,16,1.3,24.7c-6.2,8.9,11,11.1,15.8,11.7c8.7,1,17.4,1.3,25.7,4.3c8.3,3,15.5,7.9,21.6,14.1c0.6,0.6,1.4,0.5,1.9,0.1
		c0,0,0,0,0,0C66.9,55.4,67.7,54.6,67.2,54.1z M12.3,33c-1.1-0.2-2.3-0.5-3.4-0.8c-1.4-0.3-2.6-0.7-3.9-1.4c0-0.1,0-0.2,0-0.3
		c0.9,0.7,2,0.9,3.2,1.1c0.1,0.1,0.3,0.2,0.5,0.3c0.7,0.2,1.4,0.3,2.1,0.5c0.2,0.1,0.4,0.2,0.7,0.3l0.4,0c0.1,0,0.3,0.1,0.4,0.1
		C12.3,32.8,12.3,32.9,12.3,33z M24,25.7c-0.6-0.2-1.2-0.5-1.7-0.7c1.5,0.4,3,0.9,4.4,1.4C25.8,26.1,24.9,25.9,24,25.7z"/>
	<path class="st0" d="M61.4,41.5C61.4,41.5,61.4,41.5,61.4,41.5c0.1-0.2,0.1-0.4,0.1-0.6c-1.4-5.9-4.4-11.2-7.7-16.2
		c-2.3-3.5-5.2-7.8-9.3-9.5c-2.4-1-5.7-1-6.8,1.9c-0.7,1.8-0.1,3.5,1.5,4.3c1.4,1.6,2.9,3.1,4.4,4.5c0.9,0.9,1.9,1.9,2.9,2.8
		c4.3,4.4,8.5,9,12.7,13.6c0.4,0.5,1,0.3,1.3-0.2c0,0.1,0.1,0.1,0.1,0.2C60.9,42.7,61.8,42.1,61.4,41.5z"/>
	<path class="st0" d="M57.2,52.3C57.2,52.3,57.2,52.2,57.2,52.3c-1.2-0.7-2.4-1.2-3.6-1.8c-8.7-6.2-24.1-12.7-29.8-2
		c-1.7,3.2-1.4,6.9,2.5,7.9c3.4,0.8,7.3-1,10.6-1.8c6.7-1.7,12.9-1.4,19.7-0.1c0.1,0,0.2,0,0.3,0c0.4,0.2,0.7-0.1,0.8-0.4
		C58.2,53.6,58.1,52.6,57.2,52.3z"/>
	<path class="st0" d="M230.2,30.1c-0.1,0-0.1-0.1-0.2-0.1c0.1-0.4,0.1-0.8-0.3-1.1c-3.9-2.7-7.6-5.8-10.9-9.3
		c-2.8-3.1-4.8-6.8-7.4-10c-2-2.5-5.8-4.5-7.5-0.4c-1.8,4.5,4.4,10.2,7.4,12.6c5.4,4.4,11.9,7.2,18.5,9.1
		C230.4,31,230.7,30.3,230.2,30.1z M222.3,26.2c0.2-0.1,0.3-0.3,0.4-0.5c0.6,0.5,1.3,1.1,1.9,1.6C223.8,26.9,223.1,26.6,222.3,26.2z
		"/>
	<path class="st0" d="M232.1,9.3c-0.4-2.3-2.2-4.6-4.7-3.3c-2.5,1.3-3.2,5.3-3.2,7.9c0.1,4.5,2.2,8.6,4.8,12.1
		c0.4,0.5,1.1,0.3,1.2-0.2c0.2-0.2,0.4-0.5,0.3-0.9C229.5,19.5,233,14.5,232.1,9.3z M230.5,9.3c0.5,1,0.3,2.5-0.1,4.1
		c0-0.7,0-1.4-0.1-2c0.3-0.7,0.3-1.5,0-2.2c0-0.1-0.1-0.2-0.2-0.3c-0.2-0.3-0.3-0.5-0.6-0.8c-0.6-0.6-1.4-0.3-1.7,0.4
		c-0.2,0.2-0.5,0.5-0.7,0.7C228,7.6,229.2,6.7,230.5,9.3z M228.1,21.6c0.1-0.1,0.1-0.2,0.2-0.3c0.2-0.8,0.4-1.6,0.6-2.3
		c-0.2,1.2-0.3,2.3-0.3,3.4C228.4,22.2,228.2,21.9,228.1,21.6z"/>
	<path class="st0" d="M196.9,8.8c-1.9-0.8-4.2,0.7-4.2,2.8c0,0.4,0.2,0.8,0.4,1.2c0.3,0.8,1,1.5,1.9,1.9c1.6,0.6,3.4-0.3,3.8-2
		C199.2,11.2,198.4,9.5,196.9,8.8z"/>
	<path class="st0" d="M180.3,3.3c-1.8-1.1-4.2,0.1-4.4,2.2c-0.4,0.7-0.4,1.6,0.1,2.4c1,1.7,3.5,1.9,5,0.8
		C182.8,7.1,182.2,4.3,180.3,3.3z"/>
	<path class="st0" d="M160.8,2c-0.8-2.3-4.3-2.7-5.6-0.6c-0.4,0.7-0.4,1.5-0.2,2.2c-0.2,1.1,0.6,2.1,1.6,2.6
		C159,7.2,161.7,4.4,160.8,2z"/>
	<path class="st0" d="M132.5,8.7c-0.4-0.1-0.8-0.1-1.2-0.1c-0.7-0.2-1.5-0.3-2,0.2c-0.5,0.5-0.8,1.3-0.8,2c0,1,0.6,2,1.4,2.5
		c0.2,0.2,0.3,0.3,0.6,0.5c0.7,0.4,1.6,0.6,2.2,0c0.1-0.1,0.2-0.3,0.3-0.4c0.6-0.3,1.2-0.9,1.4-1.6C134.7,10.3,133.8,9,132.5,8.7z"
		/>
	<path class="st0" d="M116.5,21.1c-0.2,0-0.3,0-0.5,0c-0.1-0.1-0.3-0.1-0.5-0.1c-0.7,0.2-1.3,0.7-1.6,1.3c-0.2,0.4-0.3,0.8-0.3,1.2
		c0,0.3,0,0.6,0.1,0.9c0.7,1.9,3,1.9,4.2,0.6C119.3,23.6,118.5,21.3,116.5,21.1z"/>
	<path class="st0" d="M107.2,38.5c-0.2,0.4-0.4,0.8-0.4,1.2c-0.1,0.7,0.1,1.4,0.6,2c1.4,1.4,4.1,0.4,4.1-1.6
		C111.6,37.9,108.6,36.6,107.2,38.5z"/>
	<path class="st0" d="M96.7,46.2c-1-1.1-2.4-0.1-2.8,1c-0.3,0-0.7,0.2-0.8,0.5c-0.1,0.8,0,1.4,0.6,1.9c0.5,0.5,1.4,0.6,2.1,0.4
		c0.1,0,0.1-0.1,0.2-0.1c0.1,0,0.2-0.1,0.4-0.1c0.2-0.1,0.3-0.3,0.4-0.4C97.4,48.5,97.5,47.1,96.7,46.2z"/>
	<path class="st0" d="M309.2,29.4c-2.9-4.3-8.4-1.4-11.6,0.7c-7.3,4.9-13.4,10.9-20.8,15.6c-0.2,0.1-0.3,0.3-0.4,0.4
		c-0.1,0-0.3,0.1-0.4,0.1c-0.9,0.3-0.5,1.5,0.4,1.4c0.1,0,0.2,0,0.4-0.1c0.2,0.2,0.5,0.3,0.9,0.1c0.6-0.2,1.1-0.4,1.7-0.6
		C289.2,45.4,316,39.6,309.2,29.4z M303.6,37.5c0.4-0.3,0.8-0.6,1.2-0.9c0.5-0.4,0.6-1,0.5-1.5c0.4-0.1,0.5-0.6,0.4-0.9
		c0.1-0.2,0.1-0.4,0.1-0.6c0,0,0.1-0.1,0.1-0.1C306.5,35.2,305.7,36.5,303.6,37.5z"/>
	<path class="st0" d="M293.6,13.6c-2.3-2.5-6-1.3-7.7,1.2c-1.8,2.5-1.8,6.1-2.2,9c-0.5,3.5-1.2,7-1.2,10.5c0,0.2,0.1,0.4,0.2,0.6
		c-0.1,0.1-0.2,0.2-0.3,0.3c-0.6,0.5,0.2,1.4,0.8,1c4.6-3.2,8.2-7.3,10.3-12.6C294.7,20.7,296.1,16.4,293.6,13.6z M285.6,27
		c0.1,0.3,0.2,0.7,0.3,1c0,0,0,0.1,0,0.1c-0.2,0.5-0.4,0.9-0.6,1.4C285.4,28.7,285.5,27.9,285.6,27z"/>
	<path class="st0" d="M206.3,37.1c-14.4-12.9-36.2-19.2-55.3-15.8c-0.5,0.1-0.4,0.8,0.1,0.8c20.4-0.9,37.7,4.2,54.2,16.2
		C206.1,38.9,206.9,37.7,206.3,37.1z"/>
	<path class="st0" d="M165.4,25.9c-0.5-0.1-0.7,0.6-0.2,0.7c12,3.9,19,12.2,22.7,24c0.3,0.8,1.7,0.7,1.6-0.2
		C188,38.4,177,28,165.4,25.9z"/>
	<path class="st0" d="M177.2,41c-0.2-0.5-1-0.1-0.9,0.4c2.8,7.2,1.9,13.4-0.7,20.5c-0.3,0.9,0.9,1.3,1.4,0.6
		C181.3,56.2,180.7,47.4,177.2,41z"/>
	<path class="st0" d="M392.6,45c1.8-4,7.7-7.7,12.2-6.3c10.7-1.4,22.5,3.2,32.5,5.6c15.4,3.7,33.5,10.7,49.4,6.9
		c6.3-1.5,12.2-5,16-10.3c5.8-8.2,4.3-19.5-6.5-22.1c-7.3-1.7-17.4,0.1-21.5,7c-2.6,4.4-2.3,11.9,3.7,13.7c5.3,1.5,9.7-3.6,11.5-7.8
		c0.6-1.5,2.8-0.4,2.5,1.1c-1.5,6.3-8.2,11.7-14.9,9.9c-6.6-1.8-9-9.7-7-15.7c4.6-13.7,30.3-16.6,37.1-3.5c3.7,7,2.2,13.4-1.8,18.6
		c16.9-12.5,36.6-21.2,57.1-25.7c19.5-4.3,46.7-6.6,58.2,13.9c0.5,1,1,2,1.4,3c0.3,0,0.6,0.1,0.6,0.5c2.9,15.5,17.8,23.7,32.8,23.4
		c8.9-0.1,18-5.8,17.6-15.6c-0.2-5.3-4.1-10.4-9.5-10.9c-2.2-0.2-4,0.2-5.6,1.4c-1.5,2.4-2.3,5.3-0.8,8c0.6,1.1,1.4,1.9,2.4,2.6
		c1.1,0,2.4,0,3.8-0.1c1-1.5,3.1-0.2,2.4,1.4c-0.2,0.4-0.3,0.7-0.5,1c0,0.2-0.1,0.3-0.3,0.4c-5.4,8.7-18.1-2.5-12.7-12
		c6.3-11.1,21.9-5.1,23.8,6c4.8,27.7-41.9,26.4-52.7,5.7c-1.8,12.6-14,23.5-27.1,25.4c-18,2.6-35.6-15.3-22.9-32.1
		c5.9-7.8,17.2-12.4,25.8-6.2c6.8,4.9,7.4,15.2,0.2,19.9c-1.3,0.8-2.8-1.1-1.6-2.1c6.2-5.6,3.9-14.7-4.4-16.9
		c-6.8-1.9-13.6,2.3-17.4,7.6c-9.1,12.5,1.4,26.6,15.4,27c23.1,0.6,39.8-27.5,19.4-43.5c-16.3-12.7-41.6-6.8-59.7-1.4
		c-18.1,5.4-34.7,14.3-50,25.3c1.9,0.1,3.8,1,5.2,2.6c3,3.6,2.1,9.3-1.3,12.3c-3.4,3-9.3,2.8-11.1-1.9c-1.3-3.6,2.4-8.5,6.2-6.3
		c1,0.6,0.5,2-0.6,2.1c-1.3,0.1-2.8,0.4-3.2,1.9c-0.4,2,1.8,3.5,3.5,3.5c2.6,0,4.7-2.4,5.3-4.8c1.2-5-4.1-9.1-8.7-6.7
		c-0.3,0.2-0.7-0.1-0.7-0.4c-5.5,3.1-11.6,4.9-16.8,5.1c-12.8,0.5-25.7-3.9-38-6.9c-12.6-3.1-26.1-8.1-39.3-7.2
		c-1.3,0.3-2.5,0.5-3.8,1.2c-2.5,1.5-4.3,4-4,7c0.3,2.5,1.8,5,4.4,5.4c1.5,0.2,3.5-0.4,4.2-1.9c1.1-2.2-1.3-4.8-3.5-4.2
		c-0.7,0.2-1.2-0.9-0.5-1.2c3.8-1.9,8.1,1.5,6.9,5.8c-1.3,4.3-6.9,5.6-10.4,3.2C392,54,390.8,48.9,392.6,45z"/>
	<path class="st0" d="M678.4,54.9C678.4,54.9,678.4,54.9,678.4,54.9c0.5,0.4,1.3,0.5,1.9-0.1c6.2-6.2,13.4-11.1,21.6-14.1
		c8.3-3,17-3.3,25.7-4.3c4.8-0.5,22-2.8,15.8-11.7c-6.1-8.7-23.8-2-30.9,1.5c-11.8,5.8-22.8,14.2-31.7,24c-0.9,0.8-1.8,1.6-2.6,2.5
		c-0.3,0.3-0.4,0.7-0.4,1c-0.1,0.1-0.2,0.2-0.2,0.3C677.1,54.6,677.9,55.4,678.4,54.9z M732.5,32.7c0.1,0,0.3-0.1,0.4-0.1l0.4,0
		c0.3,0,0.5-0.1,0.7-0.3c0.7-0.2,1.4-0.3,2.1-0.5c0.2-0.1,0.4-0.1,0.5-0.3c1.2-0.2,2.3-0.5,3.2-1.1c0,0.1,0,0.2,0,0.3
		c-1.2,0.6-2.5,1.1-3.9,1.4c-1.1,0.3-2.3,0.6-3.4,0.8C732.5,32.9,732.5,32.8,732.5,32.7z M718.1,26.4c1.4-0.5,2.9-1,4.4-1.4
		c-0.6,0.2-1.2,0.5-1.7,0.7C719.8,25.9,718.9,26.1,718.1,26.4z"/>
	<path class="st0" d="M684.2,42.2c0-0.1,0.1-0.1,0.1-0.2c0.3,0.4,0.8,0.6,1.3,0.2c4.2-4.6,8.4-9.1,12.7-13.6c1-0.9,2-1.9,2.9-2.8
		c1.5-1.4,3-2.9,4.4-4.5c1.6-0.8,2.2-2.5,1.5-4.3c-1.1-2.8-4.4-2.8-6.8-1.9c-4.1,1.7-7,6-9.3,9.5c-3.3,5-6.3,10.4-7.7,16.2
		c-0.1,0.2,0,0.4,0.1,0.5c0,0,0,0,0,0.1C683,42.1,683.8,42.7,684.2,42.2z"/>
	<path class="st0" d="M687.1,54.1c0.1,0.3,0.5,0.6,0.8,0.4c0.1,0,0.2,0,0.3,0c6.8-1.3,13-1.5,19.7,0.1c3.2,0.8,7.1,2.6,10.6,1.8
		c3.9-1,4.2-4.6,2.5-7.9c-5.7-10.8-21.1-4.2-29.8,2c-1.2,0.5-2.4,1.1-3.6,1.7c0,0,0,0,0,0C686.6,52.6,686.6,53.6,687.1,54.1z"/>
	<path class="st0" d="M514.9,30.9c6.6-1.9,13.1-4.7,18.5-9.1c3-2.4,9.2-8.1,7.4-12.6c-1.7-4.1-5.5-2.1-7.5,0.4
		c-2.6,3.3-4.6,6.9-7.4,10c-3.2,3.6-6.9,6.6-10.9,9.3c-0.4,0.3-0.4,0.7-0.3,1.1c-0.1,0-0.1,0.1-0.2,0.1
		C514.1,30.3,514.4,31,514.9,30.9z M520.2,27.3c0.7-0.5,1.3-1.1,1.9-1.6c0.1,0.2,0.2,0.3,0.4,0.5C521.7,26.6,520.9,26.9,520.2,27.3z
		"/>
	<path class="st0" d="M514.2,24.8c-0.1,0.4,0.1,0.7,0.3,0.9c0.1,0.4,0.8,0.6,1.2,0.2c2.7-3.5,4.8-7.6,4.8-12.1
		c0-2.5-0.7-6.6-3.2-7.9c-2.5-1.3-4.3,1-4.7,3.3C511.7,14.5,515.3,19.5,514.2,24.8z M517.6,9.1c-0.2-0.2-0.4-0.5-0.7-0.7
		c-0.3-0.7-1.1-1-1.7-0.4c-0.2,0.2-0.4,0.5-0.6,0.8c-0.1,0.1-0.1,0.2-0.2,0.3c-0.3,0.7-0.3,1.5,0,2.2c-0.1,0.6-0.1,1.3-0.1,2
		c-0.4-1.5-0.6-3-0.1-4.1C515.6,6.7,516.7,7.6,517.6,9.1z M516.3,22.5c0-1.1-0.1-2.3-0.3-3.4c0.2,0.8,0.3,1.6,0.6,2.3
		c0,0.1,0.1,0.2,0.2,0.3C516.5,21.9,516.4,22.2,516.3,22.5z"/>
	<path class="st0" d="M546,12.8c0.4,1.7,2.2,2.6,3.8,2c0.9-0.4,1.6-1.1,1.9-1.9c0.2-0.4,0.4-0.7,0.4-1.2c0.1-2.1-2.3-3.6-4.2-2.8
		C546.4,9.5,545.6,11.2,546,12.8z"/>
	<path class="st0" d="M563.8,8.5c1.5,1.1,4,0.9,5-0.8c0.4-0.7,0.4-1.6,0.1-2.4c-0.2-2-2.6-3.2-4.4-2.2C562.6,4.3,562,7.1,563.8,8.5z
		"/>
	<path class="st0" d="M588.2,6.1c1-0.4,1.8-1.5,1.6-2.6c0.2-0.7,0.2-1.5-0.2-2.2c-1.3-2.1-4.7-1.7-5.6,0.6
		C583.1,4.4,585.7,7.2,588.2,6.1z"/>
	<path class="st0" d="M612.3,8.7c0.4-0.1,0.8-0.1,1.2-0.1c0.7-0.2,1.5-0.3,2,0.2c0.5,0.5,0.8,1.3,0.8,2c0,1-0.6,2-1.4,2.5
		c-0.2,0.2-0.3,0.3-0.6,0.5c-0.7,0.4-1.6,0.6-2.2,0c-0.1-0.1-0.2-0.3-0.3-0.4c-0.6-0.3-1.2-0.9-1.4-1.6C610,10.3,611,9,612.3,8.7z"
		/>
	<path class="st0" d="M628.3,21.1c0.2,0,0.3,0,0.5,0c0.1-0.1,0.3-0.1,0.5-0.1c0.7,0.2,1.3,0.7,1.6,1.3c0.2,0.4,0.3,0.8,0.3,1.2
		c0,0.3,0,0.6-0.1,0.9c-0.7,1.9-3,1.9-4.2,0.6C625.5,23.6,626.3,21.3,628.3,21.1z"/>
	<path class="st0" d="M633.2,40.1c0,2,2.7,3,4.1,1.6c0.5-0.5,0.7-1.3,0.6-2c0-0.4-0.1-0.9-0.4-1.2C636.2,36.6,633.2,37.9,633.2,40.1
		z"/>
	<path class="st0" d="M648.1,49.4c0.1,0.2,0.2,0.3,0.4,0.4c0.1,0.1,0.2,0.1,0.4,0.1c0.1,0,0.1,0.1,0.2,0.1c0.7,0.2,1.5,0.1,2.1-0.4
		c0.6-0.5,0.7-1.1,0.6-1.9c-0.1-0.4-0.4-0.5-0.8-0.5c-0.5-1.1-1.8-2.1-2.8-1C647.2,47.1,647.4,48.5,648.1,49.4z"/>
	<path class="st0" d="M465.5,47.2c0.5,0.2,1.1,0.4,1.7,0.6c0.4,0.1,0.7,0,0.9-0.1c0.1,0,0.3,0,0.4,0.1c0.9,0.1,1.3-1.1,0.4-1.4
		c-0.1,0-0.3-0.1-0.4-0.1c-0.1-0.2-0.2-0.3-0.4-0.4c-7.4-4.7-13.6-10.8-20.8-15.6c-3.2-2.2-8.7-5-11.6-0.7
		C428.8,39.6,455.6,45.4,465.5,47.2z M438.9,33.4c0,0,0.1,0.1,0.1,0.1c0,0.2,0,0.4,0.1,0.6c-0.1,0.4,0.1,0.8,0.4,0.9
		c-0.1,0.5,0,1.2,0.5,1.5c0.4,0.3,0.8,0.6,1.2,0.9C439.1,36.5,438.3,35.2,438.9,33.4z"/>
	<path class="st0" d="M451.3,23.7c2.1,5.2,5.7,9.3,10.3,12.6c0.6,0.4,1.3-0.5,0.8-1c-0.1-0.1-0.2-0.2-0.3-0.3
		c0.1-0.1,0.2-0.3,0.2-0.6c-0.1-3.5-0.8-7-1.2-10.5c-0.4-2.9-0.4-6.5-2.2-9c-1.7-2.5-5.4-3.7-7.7-1.2
		C448.7,16.4,450.1,20.7,451.3,23.7z M459.5,29.5c-0.2-0.5-0.4-0.9-0.6-1.4c0,0,0-0.1,0-0.1c0.1-0.3,0.2-0.7,0.3-1
		C459.3,27.9,459.4,28.7,459.5,29.5z"/>
	<path class="st0" d="M538.5,37.1c14.4-12.9,36.2-19.2,55.3-15.8c0.5,0.1,0.4,0.8-0.1,0.8c-20.4-0.9-37.7,4.2-54.2,16.2
		C538.7,38.9,537.8,37.7,538.5,37.1z"/>
	<path class="st0" d="M579.4,25.9c0.5-0.1,0.7,0.6,0.2,0.7c-12,3.9-19,12.2-22.7,24c-0.3,0.8-1.7,0.7-1.6-0.2
		C556.7,38.4,567.8,28,579.4,25.9z"/>
	<path class="st0" d="M567.5,41c0.2-0.5,1-0.1,0.9,0.4c-2.8,7.2-1.9,13.4,0.7,20.5c0.3,0.9-0.9,1.3-1.4,0.6
		C563.5,56.2,564.1,47.4,567.5,41z"/>
</g>
</svg>
