<?xml version="1.0" encoding="utf-8"?>
<!-- Generator: Adobe Illustrator 19.0.0, SVG Export Plug-In . SVG Version: 6.00 Build 0)  -->
<svg version="1.1" id="Layer_1" xmlns="http://www.w3.org/2000/svg" xmlns:xlink="http://www.w3.org/1999/xlink" x="0px" y="0px"
	 viewBox="0 0 634.8 63.4" style="enable-background:new 0 0 634.8 63.4;" xml:space="preserve">
<style type="text/css">
	.st0{fill:#1D1D1B;}
</style>
<g>
	<path class="st0" d="M333.9,32.9c-3.7,0-7.3,0.3-11,0.7c-1.4-2.8-2.8-5.7-4.2-8.5c-0.6-1.3-2.3-0.7-2.7,0.4
		c-1.2,3.1-2.4,6.1-3.6,9.2c-0.1,0-0.2,0-0.3,0c-3.9-1-8.8-0.3-12.7-0.2c-1.4,0-1.9,1.9-0.7,2.6c3.2,2,6.6,3.7,10.1,5.2
		c-2,3.8-3,7.9-3.4,12.2c-0.1,1.2,1.3,1.4,2,0.8c1.9-1.5,3.8-3.1,5.6-4.6c1.5-1.3,3.2-2.4,4.6-3.9c1.1,1.2,2.7,2.2,4,3.1
		c2.5,1.7,5.1,3,7.8,4.1c0.4,0.1,0.9,0,1.1-0.3c1.4-1.5,0.9-3.2-0.1-4.8c-0.4-0.8-0.9-1.6-1.4-2.4c-1-2-1.9-3.9-2.9-5.9
		c2.7-1.7,5.5-3.2,8.4-4.7C336.2,35.1,335.4,32.9,333.9,32.9z"/>
	<path class="st0" d="M297.4,42.8c-2.9,12.4-17.6,16.9-28.9,17.4c-10.8,0.6-22.2-3.9-27.6-13.9c-5.7-10.5,0-28.2,14.5-24.9
		c6.2,1.4,10.5,8.4,10,14.7c-0.8,9.4-11.8,12.7-16.1,3.3c-0.5-1.1-2.1-0.5-2.1,0.6c0,6,6.3,9.7,11.8,8.4c6.4-1.5,9.8-8.2,9.4-14.4
		c-1-15-19.6-21.7-29.1-9.3c-4.6,6-5,12.9-2.7,19c-4.2-4.4-9-8.4-14.1-11.8c1.1-0.7,0.8-2.4-0.5-2.8c-1.3-0.5-2.6-1-3.8-1.5
		c0.3-2.6,0.5-5.1,0.6-7.7c0-1.2-1.6-1.9-2.4-1c-1.6,1.7-3.1,3.5-4.7,5.2c-0.9-0.5-1.8-1.1-2.6-1.7c-0.9-0.7-1.9,0-2.2,0.8
		c-0.9-0.4-1.9-0.9-2.8-1.2c-15-6.3-36-11.5-50.2-0.7c-5,3.8-8.4,9.1-9.5,14.8c-0.2,0.1-0.4,0.3-0.5,0.5
		c-0.6,11.8-13.7,19.4-24.8,16.4c-5.1-1.4-9.2-5.5-9.4-10.9c-0.1-3.8,2-7.3,5.7-8.7c7.6-2.8,13.5,14,2.4,12.1
		c-1.1-0.2-2.1,1.5-0.9,2c7.9,3.7,14.7-5.8,9.5-12.6c-5.7-7.6-17.5-4.8-19.6,4.2c-0.7,2.8-0.6,5.2,0.1,7.3
		c-9.6-11.5-23-20.4-36.6-26.2c0.6-0.2,1.1-0.5,1.7-0.7c1.3-0.5,0.9-2.7-0.4-3c-1.6-0.3-3.3-0.6-4.9-1c-0.2-2-0.4-4-0.8-6
		c-0.2-1.4-2-1.2-2.7-0.3c-1.1,1.5-2.2,2.9-3.2,4.4c-2.2-0.7-4.4-1.5-6.6-2.4c-1.7-0.7-2.5,1.6-1.6,2.7c0.1,0.1,0.2,0.2,0.3,0.3
		c-11.1-2.5-22.7-2.9-33,1.2C6.5,20.6-4.2,35.4,1.6,49.4c4.8,11.7,20,18,30.9,10.3C45.1,50.9,38,28.9,21.9,34
		c-1.7,0.5-1,3.2,0.7,2.7c13.9-4.1,18.1,15.7,6.4,21.6c-8.4,4.3-18.6,0.1-23.2-7.7C-4.6,33,15.8,17.4,31.6,15.8
		c8.1-0.8,15.9-0.1,23.5,1.8c0.5,0.6,1,1.2,1.5,1.8c-0.1,0.1-0.1,0.2-0.2,0.3c-0.9,1.5-2.8,3.7-2.6,5.6c-0.1,0.1-0.2,0.1-0.4,0.2
		c-1.8,1.1-0.2,3.9,1.6,2.8c2-1.2,4-2.3,6-3.4c1.2,1.4,2.3,2.8,3.5,4.2c0.9,1.1,2.7,0.2,2.8-1.1c0-2.1,0-4.1-0.1-6.2
		c0,0,0.1,0,0.1,0c16.1,6.7,30.6,18.2,42.5,30.5c0.3,0.4,0.9,0.1,1.1-0.2c9,7.3,29,4.9,33.5-7.1c0.8,3.8,2.8,7.4,6.1,10.3
		c10.4,9.4,31.8,13.5,38.1-2.9c5.4-14-11.7-28-22.9-16.2c-1.4,1.5,0.8,3.6,2.2,2.2c9.2-8.7,21.6,1.8,17.6,12.8
		c-4.2,11.4-18.1,10.4-26.9,5.7c-8.4-4.5-13.7-12.3-10.7-21.9c2.5-7.9,9.5-13.4,17.3-15.5c14-3.7,30.1,1.2,42.9,7.4
		c0.1,0.3,0.3,0.5,0.4,0.8c-0.2,0.2-0.3,0.4-0.5,0.6c-1,1.1-3.3,2.7-3.1,4.5c-0.3,0.3-0.7,0.5-1,0.8c-1.4,1-0.7,3.4,1.2,2.9
		c2.3-0.6,4.7-1.2,7-1.8c0.6,1.2,1.2,2.3,1.7,3.5c0.6,1.1,2.5,0.9,2.8-0.4c0.3-1.5,0.6-3,0.8-4.5c0.4-0.1,0.9-0.2,1.3-0.3
		c7.8,5.3,14.5,11.6,21.4,18.3c-0.1,0.2-0.1,0.4,0,0.6c0.2,0.5,0.4,0.7,0.9,0.9c0.3,0.1,0.5,0.1,0.7,0c0.5,0.5,1,1,1.5,1.5
		c0.2,0.2,0.4,0.2,0.6,0.1c3,2.9,6.6,5.3,10.4,6.7c15,5.6,41.9,0.5,45-17.9C299.4,42.1,297.7,41.6,297.4,42.8z"/>
	<path class="st0" d="M44.9,20.5c-1.1-0.4-2.1-0.7-3.2-1.1c0-0.7,0-1.4,0-2.1c0-1.2-1.5-1.8-2.4-1c-0.6,0.5-1.2,1.1-1.7,1.7
		c-0.7-0.2-1.4-0.5-2.1-0.7c-0.8-0.3-1.9,0.6-1.5,1.5c0.3,0.8,0.7,1.6,1.1,2.4c-0.6,0.9-1.2,1.9-1.7,2.9c-0.6,1.2,0.6,2.6,1.9,1.9
		c0.7-0.3,1.3-0.6,2-0.9c0.3,0.5,0.7,0.9,1,1.4c0,0.3,0,0.6,0,0.9c0,1.5,2.3,1.9,2.6,0.4c0.3-1.3,0.4-2.7,0.5-4
		c1.1-0.3,2.2-0.5,3.3-0.7C46.3,22.8,46.1,20.9,44.9,20.5z"/>
	<path class="st0" d="M91.6,17.1c-0.9-0.6-1.9-1.3-2.8-1.9c0.1-0.5,0.2-1,0.3-1.6c0.2-1-1-2.3-2-1.5c-0.5,0.3-0.9,0.7-1.4,1
		c-0.8-0.5-1.6-1.1-2.4-1.6c-0.7-0.5-1.9,0.1-1.8,1.1c0.1,1.1,0.2,2.2,0.4,3.3l-2.7,1.9c-1,0.7-0.8,2.7,0.7,2.6
		c0.8-0.1,1.7-0.1,2.5-0.2c0.1,0.5,0.1,1,0.2,1.5c0.1,0.6,0.5,0.9,1,0.8c0,0.2,0,0.3,0,0.5c0.1,1.6,2.1,1.8,2.7,0.4
		c0.5-1.2,0.9-2.4,1.3-3.6c1.1-0.1,2.3-0.2,3.4-0.2C92.3,19.4,92.7,17.8,91.6,17.1z"/>
	<path class="st0" d="M208.4,13.7c-0.5-0.8-1.1-1.5-1.6-2.3c0.5-0.8,1.1-1.7,1.6-2.5c0.7-1.2-0.7-2.6-1.9-1.9
		c-0.7,0.4-1.4,0.8-2.1,1.2c-0.7-0.9-1.5-1.8-2.2-2.7c-0.6-0.7-1.6-0.3-2,0.4c-0.3,0.2-0.5,0.6-0.5,1.1c0,1.2,0,2.4,0,3.6
		c-1,0.5-2.1,0.9-3.1,1.3c-1.4,0.5-1.3,2.7,0.4,2.7c0.9,0,1.8,0,2.7,0.1c0,0.9,0,1.8,0,2.8c0,1.5,1.8,1.8,2.6,0.7c0.7-1,1.4-2,2.1-3
		c0.9,0.1,1.7,0.3,2.6,0.4C207.9,15.9,209.1,14.7,208.4,13.7z"/>
	<path class="st0" d="M283.4,50.8c-0.8-0.5-1.6-1.1-2.3-1.7c0.4-0.7,0.8-1.5,1.3-2.2c0.6-1.1-0.7-2.6-1.8-1.8
		c-0.8,0.6-1.5,1.1-2.3,1.6c-0.7-0.6-1.3-1.3-2-2c-0.7-0.7-1.9-0.1-1.9,0.8c0,1.1-0.1,2.3,0,3.5c-0.8,0.4-1.5,0.8-2.3,1.2
		c-1.1,0.5-0.6,2.6,0.7,2.4c0.7-0.1,1.4-0.1,2.1-0.1c0.1,0.6,0.3,1.2,0.6,1.8c0,0.1,0,0.1-0.1,0.2c-0.7,1.5,1.6,2.9,2.3,1.3
		c0.5-1.1,1-2.1,1.6-3.2c1.1,0.1,2.2,0.2,3.3,0.5C283.8,53.4,284.6,51.6,283.4,50.8z"/>
	<path class="st0" d="M86.1,38.4c-1,0.3-2.1,0.4-3.2,0.6c-0.5-0.9-1-1.9-1.6-2.8c-0.5-0.7-1.7-0.7-1.9,0.2c-0.2,1-0.4,2-0.6,2.9
		c-1,0.1-2,0.1-3,0.1c-1.3,0-1.5,1.6-0.6,2.2c1,0.8,2.1,1.4,3.2,2c0,0.1,0,0.2,0,0.3c-0.2,0.3-0.4,0.6-0.5,0.9
		c-0.3,0.7,0.2,1.5,0.8,1.5c0.4,0.3,1.1,0.1,1.1-0.5c0.4-0.3,0.8-0.6,1.2-0.9c0.8,0.4,1.7,0.7,2.6,1c0.8,0.3,1.6-0.6,1.4-1.4
		c-0.2-0.8-0.5-1.5-0.7-2.2c0.8-0.6,1.7-1.2,2.6-1.7C88.3,39.8,87.5,38,86.1,38.4z"/>
	<path class="st0" d="M32.1,6.6c-0.9-0.8-1.9-1.6-2.8-2.4c0.3-0.9,0.5-1.7,0.7-2.6c0.3-1.2-1.2-2.1-2.1-1.2c-0.5,0.5-1,0.9-1.4,1.4
		c-0.2-0.2-0.5-0.4-0.7-0.6c-0.7-0.6-1.8-0.2-1.8,0.7c0,0.8,0,1.5,0.1,2.2c-0.9,0.8-1.8,1.6-2.7,2.5c-0.8,0.7-0.2,2.2,0.9,2.2
		c0.8,0,1.7,0,2.5,0l0,0c-0.1,0.5,0,0.9,0.3,1.2c0.2,0.4,0.7,0.5,1.1,0.3c0.3-0.1,0.6-0.2,0.8-0.5c0.2-0.3,0.3-0.6,0.5-0.9
		c1.3,0,2.5,0,3.8-0.1C32.2,8.5,32.9,7.3,32.1,6.6z"/>
	<path class="st0" d="M144.4,25.9c-0.6-0.4-1.2-0.7-1.8-1.1l0.2-3c0.1-1.1-1.5-1.4-2-0.6c-0.4,0.6-0.8,1.3-1.3,1.9
		c-0.4-0.2-0.8-0.4-1.2-0.6c-0.7-0.3-1.7,0.2-1.4,1.1c0.3,0.8,0.5,1.6,0.7,2.4c-0.5,0.8-1.1,1.6-1.6,2.4c-0.5,0.8,0.3,1.8,1.2,1.6
		c0.6-0.2,1.2-0.4,1.8-0.6c0.1,0.2,0.3,0.4,0.4,0.6c0.1,0.1,0.2,0.2,0.3,0.2c0.1,0.8,0.2,1.5,0.3,2.3c0,0,0,0,0,0h0
		c0,0.1,0,0.2,0,0.3c0.2,1.3,2.1,0.9,2.2-0.3c0.1-1.4,0.2-2.8,0.2-4.2c0.6-0.2,1.2-0.4,1.8-0.6C145,27.5,145.1,26.4,144.4,25.9z"/>
	<path class="st0" d="M234.6,20c-0.5,0.1-1,0.2-1.6,0.3c-0.5-1-1-2-1.5-3c-0.5-1-2.1-0.5-2,0.5c0.1,0.9,0,1.8-0.1,2.7
		c-0.5,0-1.1,0-1.6-0.1c-1.1-0.1-1.6,1.6-0.6,2.1c0.5,0.2,1,0.5,1.6,0.7c-0.1,0.2-0.1,0.3-0.1,0.5c0,0.1,0,0.1,0,0.2
		c-0.3,0.3-0.6,0.7-0.9,1c-1.1,1.3,0.8,2.8,1.9,1.4c0.5-0.7,1.2-1.3,1.8-1.9c0.6,0.3,1.2,0.6,1.8,0.8c1,0.5,2-0.5,1.5-1.5
		c-0.2-0.4-0.4-0.8-0.6-1.2c0.3-0.2,0.7-0.3,1-0.5C236.5,21.6,236.1,19.6,234.6,20z"/>
	<path class="st0" d="M337.4,42.8c2.9,12.4,17.6,16.9,28.9,17.4c10.8,0.6,22.2-3.9,27.6-13.9c5.7-10.5,0-28.2-14.5-24.9
		c-6.2,1.4-10.5,8.4-10,14.7c0.8,9.4,11.8,12.7,16.1,3.3c0.5-1.1,2.1-0.5,2.1,0.6c0,6-6.3,9.7-11.8,8.4c-6.4-1.5-9.8-8.2-9.4-14.4
		c1-15,19.6-21.7,29.1-9.3c4.6,6,5,12.9,2.7,19c4.2-4.4,9-8.4,14.1-11.8c-1.1-0.7-0.8-2.4,0.5-2.8c1.3-0.5,2.6-1,3.8-1.5
		c-0.3-2.6-0.5-5.1-0.6-7.7c0-1.2,1.6-1.9,2.4-1c1.6,1.7,3.1,3.5,4.7,5.2c0.9-0.5,1.8-1.1,2.6-1.7c0.9-0.7,1.9,0,2.2,0.8
		c0.9-0.4,1.9-0.9,2.8-1.2c15-6.3,36-11.5,50.2-0.7c5,3.8,8.4,9.1,9.5,14.8c0.2,0.1,0.4,0.3,0.5,0.5c0.6,11.8,13.7,19.4,24.8,16.4
		c5.1-1.4,9.2-5.5,9.4-10.9c0.1-3.8-2-7.3-5.7-8.7c-7.6-2.8-13.5,14-2.4,12.1c1.1-0.2,2.1,1.5,0.9,2c-7.9,3.7-14.7-5.8-9.5-12.6
		c5.7-7.6,17.5-4.8,19.6,4.2c0.7,2.8,0.6,5.2-0.1,7.3c9.6-11.5,23-20.4,36.6-26.2c-0.6-0.2-1.1-0.5-1.7-0.7c-1.3-0.5-0.9-2.7,0.4-3
		c1.6-0.3,3.3-0.6,4.9-1c0.2-2,0.4-4,0.8-6c0.2-1.4,2-1.2,2.7-0.3c1.1,1.5,2.2,2.9,3.2,4.4c2.2-0.7,4.4-1.5,6.6-2.4
		c1.7-0.7,2.5,1.6,1.6,2.7c-0.1,0.1-0.2,0.2-0.3,0.3c11.1-2.5,22.7-2.9,33,1.2c12.9,5,23.6,19.9,17.8,33.9
		c-4.8,11.7-20,18-30.9,10.3c-12.5-8.9-5.5-30.9,10.7-25.7c1.7,0.5,1,3.2-0.7,2.7c-13.9-4.1-18.1,15.7-6.4,21.6
		c8.4,4.3,18.6,0.1,23.2-7.7c10.4-17.7-9.9-33.3-25.7-34.8c-8.1-0.8-15.9-0.1-23.5,1.8c-0.5,0.6-1,1.2-1.5,1.8
		c0.1,0.1,0.1,0.2,0.2,0.3c0.9,1.5,2.8,3.7,2.6,5.6c0.1,0.1,0.2,0.1,0.4,0.2c1.8,1.1,0.2,3.9-1.6,2.8c-2-1.2-4-2.3-6-3.4
		c-1.2,1.4-2.3,2.8-3.5,4.2c-0.9,1.1-2.7,0.2-2.8-1.1c0-2.1,0-4.1,0.1-6.2c0,0-0.1,0-0.1,0c-16.1,6.7-30.6,18.2-42.5,30.5
		c-0.3,0.4-0.9,0.1-1.1-0.2c-9,7.3-29,4.9-33.5-7.1c-0.8,3.8-2.8,7.4-6.1,10.3c-10.4,9.4-31.8,13.5-38.1-2.9
		c-5.4-14,11.7-28,22.9-16.2c1.4,1.5-0.8,3.6-2.2,2.2c-9.2-8.7-21.6,1.8-17.6,12.8c4.2,11.4,18.1,10.4,26.9,5.7
		c8.4-4.5,13.7-12.3,10.7-21.9c-2.5-7.9-9.5-13.4-17.3-15.5c-14-3.7-30.1,1.2-42.9,7.4c-0.1,0.3-0.3,0.5-0.4,0.8
		c0.2,0.2,0.3,0.4,0.5,0.6c1,1.1,3.3,2.7,3.1,4.5c0.3,0.3,0.7,0.5,1,0.8c1.4,1,0.7,3.4-1.2,2.9c-2.3-0.6-4.7-1.2-7-1.8
		c-0.6,1.2-1.2,2.3-1.7,3.5c-0.6,1.1-2.5,0.9-2.8-0.4c-0.3-1.5-0.6-3-0.8-4.5c-0.4-0.1-0.9-0.2-1.3-0.3
		c-7.8,5.3-14.5,11.6-21.4,18.3c0.1,0.2,0.1,0.4,0,0.6c-0.2,0.5-0.4,0.7-0.9,0.9c-0.3,0.1-0.5,0.1-0.7,0c-0.5,0.5-1,1-1.5,1.5
		c-0.2,0.2-0.4,0.2-0.6,0.1c-3,2.9-6.6,5.3-10.4,6.7c-15,5.6-41.9,0.5-45-17.9C335.3,42.1,337.1,41.6,337.4,42.8z"/>
	<path class="st0" d="M589.8,23c1.1,0.2,2.2,0.4,3.3,0.7c0.1,1.4,0.2,2.7,0.5,4c0.3,1.5,2.6,1.1,2.6-0.4c0-0.3,0-0.6,0-0.9
		c0.3-0.5,0.7-0.9,1-1.4c0.7,0.3,1.3,0.6,2,0.9c1.3,0.7,2.5-0.7,1.9-1.9c-0.5-1-1.1-2-1.7-2.9c0.4-0.8,0.8-1.6,1.1-2.4
		c0.4-0.9-0.7-1.8-1.5-1.5c-0.7,0.2-1.4,0.5-2.1,0.7c-0.5-0.6-1.1-1.2-1.7-1.7c-0.9-0.8-2.4-0.3-2.4,1c0,0.7,0,1.4,0,2.1
		c-1.1,0.4-2.1,0.7-3.2,1.1C588.7,20.9,588.5,22.8,589.8,23z"/>
	<path class="st0" d="M543.8,19.5c1.1,0.1,2.3,0.2,3.4,0.2c0.4,1.2,0.8,2.4,1.3,3.6c0.6,1.4,2.5,1.2,2.7-0.4c0-0.2,0-0.3,0-0.5
		c0.4,0,0.9-0.3,1-0.8c0.1-0.5,0.1-1,0.2-1.5c0.8,0.1,1.7,0.1,2.5,0.2c1.5,0.1,1.7-1.8,0.7-2.6l-2.7-1.9c0.1-1.1,0.3-2.2,0.4-3.3
		c0.1-0.9-1.1-1.5-1.8-1.1c-0.8,0.5-1.6,1.1-2.4,1.6c-0.5-0.3-0.9-0.7-1.4-1c-1.1-0.8-2.2,0.5-2,1.5c0.1,0.5,0.2,1,0.3,1.6
		c-0.9,0.6-1.9,1.3-2.8,1.9C542,17.8,542.5,19.4,543.8,19.5z"/>
	<path class="st0" d="M427.9,15.7c0.9-0.2,1.7-0.3,2.6-0.4c0.7,1,1.4,2,2.1,3c0.8,1.1,2.6,0.8,2.6-0.7c0-0.9,0-1.8,0-2.8
		c0.9-0.1,1.8-0.1,2.7-0.1c1.7,0,1.8-2.2,0.4-2.7c-1-0.4-2.1-0.9-3.1-1.3c0-1.2,0-2.4,0-3.6c0-0.5-0.2-0.8-0.5-1.1
		c-0.4-0.7-1.3-1.1-2-0.4c-0.8,0.9-1.5,1.8-2.2,2.7c-0.7-0.4-1.4-0.8-2.1-1.2c-1.2-0.7-2.6,0.7-1.9,1.9c0.5,0.9,1.1,1.7,1.6,2.5
		c-0.5,0.8-1.1,1.5-1.6,2.3C425.7,14.7,426.8,15.9,427.9,15.7z"/>
	<path class="st0" d="M351.3,50.8c0.8-0.5,1.6-1.1,2.3-1.7c-0.4-0.7-0.8-1.5-1.3-2.2c-0.6-1.1,0.7-2.6,1.8-1.8
		c0.8,0.6,1.5,1.1,2.3,1.6c0.7-0.6,1.3-1.3,2-2c0.7-0.7,1.9-0.1,1.9,0.8c0,1.1,0.1,2.3,0,3.5c0.8,0.4,1.5,0.8,2.3,1.2
		c1.1,0.5,0.6,2.6-0.7,2.4c-0.7-0.1-1.4-0.1-2.1-0.1c-0.1,0.6-0.3,1.2-0.6,1.8c0,0.1,0,0.1,0.1,0.2c0.7,1.5-1.6,2.9-2.3,1.3
		c-0.5-1.1-1-2.1-1.6-3.2c-1.1,0.1-2.2,0.2-3.3,0.5C350.9,53.4,350.1,51.6,351.3,50.8z"/>
	<path class="st0" d="M547.7,40.6c0.9,0.6,1.7,1.1,2.6,1.7c-0.3,0.7-0.5,1.5-0.7,2.2c-0.2,0.8,0.6,1.7,1.4,1.4
		c0.9-0.3,1.7-0.6,2.6-1c0.4,0.3,0.8,0.6,1.2,0.9c0,0.7,0.7,0.8,1.1,0.5c0.7,0,1.2-0.8,0.8-1.5c-0.1-0.3-0.3-0.6-0.5-0.9
		c0-0.1,0-0.2,0-0.3c1.1-0.6,2.2-1.3,3.2-2c0.9-0.7,0.7-2.2-0.6-2.2c-1,0-2,0-3-0.1c-0.1-1-0.3-2-0.6-2.9c-0.2-0.9-1.4-0.9-1.9-0.2
		c-0.6,0.9-1.1,1.8-1.6,2.8c-1.1-0.2-2.1-0.4-3.2-0.6C547.3,38,546.5,39.8,547.7,40.6z"/>
	<path class="st0" d="M602.7,6.6c0.9-0.8,1.9-1.6,2.8-2.4c-0.3-0.9-0.5-1.7-0.7-2.6c-0.3-1.2,1.2-2.1,2.1-1.2c0.5,0.5,1,0.9,1.4,1.4
		c0.2-0.2,0.5-0.4,0.7-0.6c0.7-0.6,1.8-0.2,1.8,0.7c0,0.8,0,1.5-0.1,2.2c0.9,0.8,1.8,1.6,2.7,2.5c0.8,0.7,0.2,2.2-0.9,2.2
		c-0.8,0-1.7,0-2.5,0l0,0c0.1,0.5,0,0.9-0.3,1.2c-0.2,0.4-0.7,0.5-1.1,0.3c-0.3-0.1-0.6-0.2-0.8-0.5c-0.2-0.3-0.3-0.6-0.5-0.9
		c-1.3,0-2.5,0-3.8-0.1C602.6,8.5,601.9,7.3,602.7,6.6z"/>
	<path class="st0" d="M490.4,25.9c0.6-0.4,1.2-0.7,1.8-1.1l-0.2-3c-0.1-1.1,1.5-1.4,2-0.6c0.4,0.6,0.8,1.3,1.3,1.9
		c0.4-0.2,0.8-0.4,1.2-0.6c0.7-0.3,1.7,0.2,1.4,1.1c-0.3,0.8-0.5,1.6-0.7,2.4c0.5,0.8,1.1,1.6,1.6,2.4c0.5,0.8-0.3,1.8-1.2,1.6
		c-0.6-0.2-1.2-0.4-1.8-0.6c-0.1,0.2-0.3,0.4-0.4,0.6c-0.1,0.1-0.2,0.2-0.3,0.2c-0.1,0.8-0.2,1.5-0.3,2.3c0,0,0,0,0,0h0
		c0,0.1,0,0.2,0,0.3c-0.2,1.3-2.1,0.9-2.2-0.3c-0.1-1.4-0.2-2.8-0.2-4.2c-0.6-0.2-1.2-0.4-1.8-0.6C489.8,27.5,489.6,26.4,490.4,25.9
		z"/>
	<path class="st0" d="M400.1,20c0.5,0.1,1,0.2,1.6,0.3c0.5-1,1-2,1.5-3c0.5-1,2.1-0.5,2,0.5c-0.1,0.9,0,1.8,0.1,2.7
		c0.5,0,1.1,0,1.6-0.1c1.1-0.1,1.6,1.6,0.6,2.1c-0.5,0.2-1,0.5-1.6,0.7c0.1,0.2,0.1,0.3,0.1,0.5c0,0.1,0,0.1,0,0.2
		c0.3,0.3,0.6,0.7,0.9,1c1.1,1.3-0.8,2.8-1.9,1.4c-0.5-0.7-1.2-1.3-1.8-1.9c-0.6,0.3-1.2,0.6-1.8,0.8c-1,0.5-2-0.5-1.5-1.5
		c0.2-0.4,0.4-0.8,0.6-1.2c-0.3-0.2-0.7-0.3-1-0.5C398.2,21.6,398.7,19.6,400.1,20z"/>
</g>
</svg>
