<?xml version="1.0" encoding="utf-8"?>
<!-- Generator: Adobe Illustrator 19.0.0, SVG Export Plug-In . SVG Version: 6.00 Build 0)  -->
<svg version="1.1" id="Layer_1" xmlns="http://www.w3.org/2000/svg" xmlns:xlink="http://www.w3.org/1999/xlink" x="0px" y="0px"
	 viewBox="-878.8 401.8 2048 221.4" style="enable-background:new -878.8 401.8 2048 221.4;" xml:space="preserve">
<style type="text/css">
	.st0{fill:#1D1D1B;}
</style>
<g>
	<path class="st0" d="M209.5,501.2c-0.3-1.9-1.9-3.1-3.4-3.4c1.2-1.9,0.9-4.4-1.9-5c-8.7-1.6-18.1-2.5-27.5-3.1
		c15.6-6.6,29-20,20.9-33.7c-5.6-9.7-18.4-10-27.5-5c-8.7,5-15,13.1-18.7,22.2c-1.2-0.6-2.5-0.9-3.7-0.9c-1.9,0-3.4,0.3-5,0.9
		c-9-15-34.3-28.1-44.6-14c-6.9,9,1.2,20,9,25.6c3.1,2.2,6.6,3.7,10,5.3c-9,0.6-17.8,0.9-26.2,1.9l0,0c0-0.3-0.6-0.3-0.6,0l0,0
		c-0.3,0-0.3,0-0.6,0c-3.4,0.3-4.1,4.7-1.2,5.9c-3.4,15.3-0.6,32.1-0.3,47.4c0.6,20.6,1.2,41.2,1.9,61.5c0,2.2,1.9,4.4,4.4,4.4
		c34.9-3.4,69.6-3.7,104.5-1.2c3.1,0.3,4.4-2.2,4.4-4.4c0.3-0.3,0.6-0.6,0.6-1.2C209.2,571.4,212.6,533.7,209.5,501.2z M139,599.2
		c-13.4,0.3-26.8,1.2-40.2,2.5c-0.6-20.3-1.6-40.6-2.2-61.1c-0.6-14,0.6-29-3.1-42.7c10.9,0.9,22.5,1.6,34,2.2
		c-5,6.9-10.3,13.7-16.5,20c-2.5,2.5-1.2,6.9,2.2,7.8c3.1,0.9,6.2,1.9,9.4,2.8c1.9,0.6,4.4-0.3,5.3-2.2c2.2-4.7,4.7-9.4,6.9-14.4
		c1.9-3.1,3.4-6.6,5-9.4C136.8,535.9,136.2,568.6,139,599.2z M202.6,500.3c-5.6,31.5-5.9,68-4.7,100.1c-13.4-0.9-26.8-1.2-39.9-1.2
		c2.2-30,1.6-60.2-0.3-90.2c4.7,6.2,9.7,12.5,14.7,18.4c1.9,2.2,5.6,1.6,6.9-0.9c2.2-3.7,4.4-7.8,6.6-11.5c1.6-2.5,0-5.6-2.8-6.6
		c-1.9-0.6-3.4-1.2-5-1.9c-2.2-1.9-5-3.4-7.8-4.7c11.2,0,22.2-0.6,32.8-1.9C202.6,499.7,202.6,500,202.6,500.3z"/>
	<path class="st0" d="M45.4,537.4c-42.1-40.2-113.9-7.8-159.1,9.4c-56.2,21.5-150.7,64-194.4-1.9c-24.3-36.8-4.7-100.5,46.8-93.3
		c21.8,2.8,41.8,20.3,40.6,43.7c-0.9,15-10,27.5-24.3,30.9c-24,6.2-38.1-11.9-39-33.1c-0.3-5.6-7.8-5.3-8.4,0
		c-6.2,51.2,68.6,60.8,80.2,11.9c10.6-46.5-45.2-77.4-83.6-55.8c-27.5,15.6-36.5,44.3-31.2,71.4c-34.3-43.7-79.2-80.2-136-87.7
		c-56.8-7.2-116.7,21.2-132.6,79.6c-24,43.4-89.2,51.8-134.2,52.4c-47.4,0.6-97-15.3-124.2-56.8c-11.9-18.1-18.7-41.8-13.1-63.6
		c6.6-23.7,32.1-34.6,55.2-30.9c26.8,4.4,49.9,30.9,42.4,58.3c-11.2,41.2-73.6,32.1-61.5-11.5c1.6-5.9-6.6-7.8-8.7-2.5
		c-17.5,42.4,41.2,68.9,69.3,37.4c30.9-34.6,0.6-85.8-40.9-92c-49.6-7.5-76.7,36.8-64.6,81.4c14.4,51.5,65.5,82.4,116.1,88.9
		c37.1,4.7,77.7-0.3,113.2-11.9c19-6.2,36.5-15.9,47.7-30.9c-2.8,48.4,34.9,93.6,86.4,92.3c55.8-1.6,85.2-63.6,48.4-106.4
		c-16.8-19.7-50.9-35.3-72.1-12.2c-19,20.3-6.2,49.9,18.7,55.8c5.9,1.6,8.4-7.5,2.5-9.4c-12.8-1.9-18.1-9-15.6-21.5
		c-5.6-13.4-0.6-21.8,15-25.6c10.6-2.8,22.5,1.9,30.6,7.8c11.9,8.1,22.5,21.2,26.5,35.3c8.7,32.4-18.1,61.5-48.7,65.2
		c-65.8,8.1-98.9-65.8-70.2-118.2c27.5-49.9,88.9-61.1,140.1-45.9c47.7,14.7,84.5,50.5,115.4,88.3c5,12.2,12.8,23.1,23.1,31.5
		c49,40.2,118.2,14.7,170-5.3c39-15,83.6-37.4,126.4-35.3c25,1.2,54,15.9,54.9,44.3c0.6,16.8-12.8,34.3-30.9,31.5
		c-22.8-3.4-26.5-38.7,0.9-41.2c3.1-0.3,2.8-4.4,0-4.7c-34.9-3.7-37.4,49.9-2.5,54.6C63.1,617.6,71.3,562.1,45.4,537.4z"/>
	<path class="st0" d="M-278.2,540.5c-2.8-4.1-10-4.7-11.5,0.6c-0.9,2.5,0.3,5.3,2.2,6.9c0.9,0.9,2.2,1.9,3.7,1.9
		C-278.8,550.5-275,544.9-278.2,540.5z"/>
	<path class="st0" d="M-235.1,560.5c-0.9-5.3-8.1-8.1-11.9-4.1c-1.9,1.9-1.9,5-0.9,7.2c0,1.9,0.9,3.4,2.5,4.4
		C-240.4,571.1-234.5,565.8-235.1,560.5z"/>
	<path class="st0" d="M-174.6,543c-1.2-0.3-2.8,0-3.7,0.9c-0.6,0.6-0.9,0.9-1.2,1.6c-0.6,0-1.6,0-2.2,0.9
		c-4.7,5.6,1.6,14.4,8.4,11.2C-167.1,554.9-168.3,545.2-174.6,543z"/>
	<path class="st0" d="M-97.8,510.9c-1.2-1.2-3.1-2.2-5.3-1.9c-1.6,0.3-3.4,1.6-4.7,2.8c-1.9,1.6-2.8,3.7-2.8,5.9
		c-0.6,2.2,0,4.7,1.9,6.6c4.7,4.4,12.5,0.9,13.7-5C-94.4,516.5-95.6,513.1-97.8,510.9z"/>
	<path class="st0" d="M-13.3,495.6c-1.6-1.9-3.1-4.7-5.6-5c-2.2-0.3-4.4,0.9-5.6,2.5c-0.3,0-0.6,0-0.9,0c-3.1,0-5.3,2.5-5.3,5.6
		c0,3.4,3.1,6.2,6.2,6.9c3.7,0.9,7.2-0.9,10.3-2.8C-11.7,500.9-11.4,497.8-13.3,495.6z"/>
	<path class="st0" d="M-355.2,520.3c-10.3-13.4-22.5-25.6-35.9-35.9c-26.2-19.7-57.7-30.6-89.5-28.4c-8.4-0.9-17.5-0.6-26.8,0.9
		c-5,0.9-2.8,8.4,2.2,7.8c42.7-7.2,72.1,15.3,95.8,44.9c2.2,3.4,5,6.9,7.8,10.3c5.3,7.2,10.6,14.7,15.3,22.2c1.6,3.4,3.7,6.6,5.9,9
		c0.3,0.3,0.6,0.6,0.6,0.9c7.8,11.5,18.1,24.6,33.1,26.2c8.1,0.6,15.9-2.5,16.8-11.5C-328.4,552.1-346.8,531.2-355.2,520.3z
		 M-387.3,495.6c4.1,3.7,8.1,7.5,11.9,11.5c-6.9-6.9-14.4-13.1-21.5-18.7c-0.9-0.6-1.9-0.9-2.8-0.9c-6.9-5.3-14.4-9.7-21.8-13.7
		C-409.5,479.1-398,486.6-387.3,495.6z"/>
	<path class="st0" d="M-403.6,550.2c-7.8-19.7-20.3-35.9-36.8-49c-0.9-0.9-2.5,0-2.5,0.9c-2.5,0-5,2.5-3.1,5.3
		c7.5,12.2,13.4,25,16.2,39.3c2.5,11.9-0.6,27.1,4.7,38.4c4.4,9,15.6,15,24,6.9C-390.5,582-399.5,560.5-403.6,550.2z"/>
	<path class="st0" d="M-610.4,552.1c-0.3-1.6-1.9-1.6-3.1-0.9c-1.9-1.6-5-1.2-5.6,1.6c-2.8,11.9-10,19.3-20.6,24.6
		c-7.2,3.4-15,6.2-20.6,11.9c-7.2,7.2-10.6,22.5,1.6,26.8c13.7,4.7,30-10.3,37.4-19.7C-611.7,583.9-606.4,568-610.4,552.1z
		 M-639.7,589.2c-0.3,0.6-0.6,1.2-1.2,1.9c-0.6-0.6-1.6-0.9-2.2-1.2l0.3-0.3C-641,588.6-638.2,585.5-639.7,589.2z"/>
	<path class="st0" d="M-670.3,578c-0.9-0.9-1.9-1.6-2.8-2.5c-0.9-0.9-1.9-0.9-3.1-0.3c-0.6,0.3-0.9,0.6-0.9,1.2c0,0,0,0-0.3,0
		c-16.8,11.5-34.6,15.3-54.9,14.4c-14-0.9-32.4-9-46.5-6.2c-10.9,2.2-14,11.9-8.1,20.6c10.3,15.3,34.6,13.7,50.2,11.2
		c25-3.7,47.7-14.4,66.1-31.8c0.6-0.6,0.6-1.9,0-2.5c0.3-0.3,0.6-0.6,0.9-0.9C-669.4,580.2-669.7,578.6-670.3,578z M-720.9,604.8
		c0.9-0.3,1.9-1.2,2.2-2.2c2.5-0.3,4.7-0.6,7.2-0.9c-3.4,1.2-6.9,2.5-10.3,3.4C-721.5,605.1-721.2,605.1-720.9,604.8z M-696.5,595.1
		c0-0.3-0.3-0.6-0.6-0.9c3.1-0.9,5.9-2.2,8.7-3.4C-690.9,592.3-693.7,593.9-696.5,595.1z"/>
	<path class="st0" d="M-801.7,517.8c-1.2-0.9-2.5-0.6-3.7,0c-1.6,0.6-2.8,1.9-3.4,3.4c-1.2-0.3-2.5,0-3.1,1.9
		c-1.6,5.6,4.7,10.6,10,7.8C-797,528.1-797.6,520.9-801.7,517.8z"/>
	<path class="st0" d="M-763,534.9c-2.2-1.2-4.7-0.3-6.6,1.2c-1.2-0.3-2.5,0.3-2.8,1.9c-0.6,2.2-1.9,4.7-0.9,6.9
		c0.6,1.6,2.2,2.8,3.7,3.7c3.7,1.6,8.1,0,9.7-4.1C-758.3,541.2-759.9,536.8-763,534.9z"/>
	<path class="st0" d="M-709.3,544.3c-0.6-1.9-2.5-3.4-3.7-5c-1.2-1.2-3.4-1.6-4.7-0.6c-0.9,0.6-1.9,1.6-2.5,2.5
		c-1.6,1.2-2.5,2.8-2.8,4.7c-0.3,3.1,1.6,5.9,4.7,6.6c3.1,0.9,6.6-0.9,8.4-3.4C-709.3,547.7-709,545.8-709.3,544.3z"/>
	<path class="st0" d="M-665.6,529c-1.9-0.3-3.4,0.3-4.4,1.9c-0.6,0.6-0.9,1.6-0.9,2.5c-1.2,0-2.2,0.6-2.8,1.9
		c-1.2,5.9,5.9,11.2,10.9,7.5C-657.5,539-659.7,530.5-665.6,529z"/>
	<path class="st0" d="M-612,505c-0.6-4.4-5.6-7.8-10-5.3c-1.6,0.9-2.2,2.2-2.5,3.4c-1.9-0.6-4.4,0.3-3.7,3.1
		c0.9,3.4,4.1,6.6,7.8,7.2c2.2,0.3,5,0.3,6.6-1.9C-612.3,509.6-611.7,507.5-612,505z"/>
	<path class="st0" d="M-342.4,480c-13.4-20.3-31.8-38.4-52.7-50.2c-2.5-1.2-4.4,2.2-2.2,3.7c19.3,14.7,36.5,30.3,52.1,49
		C-344,483.8-341.5,481.9-342.4,480z"/>
	<path class="st0" d="M-337.7,468.8c-10.9-20.6-15.6-41.5-15.6-64.9c0-2.5-3.7-2.5-4.1,0c-2.2,23.4,3.7,46.8,16.2,66.5
		C-339.6,472.2-336.5,470.6-337.7,468.8z"/>
	<path class="st0" d="M-296.6,418.9c-18.4,4.1-31.5,21.2-31.8,39.6c0,2.2,3.1,1.9,3.1,0c1.9-16.8,13.7-30.6,29.6-35.9
		C-292.8,422-294.1,418.2-296.6,418.9z"/>
	<path class="st0" d="M244.4,537.4c42.1-40.2,113.9-7.8,159.1,9.4c56.2,21.5,150.7,64,194.4-1.9c24.3-36.8,4.7-100.5-46.8-93.3
		c-21.8,2.8-41.8,20.3-40.6,43.7c0.9,15,10,27.5,24.3,30.9c24,6.2,38.1-11.9,39-33.1c0.3-5.6,7.8-5.3,8.4,0
		c6.2,51.2-68.6,60.8-80.2,11.9c-10.6-46.5,45.2-77.4,83.6-55.8c27.5,15.6,36.5,44.3,31.2,71.4c34.3-43.7,79.2-80.2,136-87.7
		c57.4-7.8,117,20.9,133.2,79.2c24,43.4,89.2,51.8,134.2,52.4c47.7,0.6,97-15.3,124.2-56.8c11.9-18.1,18.7-41.8,13.1-63.6
		c-6.2-24-32.1-34.9-55.2-31.2c-26.8,4.4-49.6,30.9-42.1,58.7c11.2,41.2,73.6,32.1,61.5-11.5c-1.6-5.9,6.6-7.8,8.7-2.5
		c17.2,42.4-41.2,68.6-69.6,37.1c-30.9-34.6-0.6-85.8,40.9-92c49.6-7.5,76.7,37.1,64.6,81.4c-14,51.5-65.5,82.4-115.7,88.6
		c-37.1,4.7-77.7-0.3-113.2-11.9c-19-6.2-36.5-15.9-47.7-30.9c2.8,48.4-34.9,93.6-86.4,92.3c-55.8-1.6-85.2-63.6-48.4-106.4
		c16.8-19.7,50.9-35.3,72.1-12.2c19,20.3,6.2,49.9-18.7,55.8c-5.9,1.6-8.4-7.5-2.5-9.4c12.8-1.9,18.1-9,15.6-21.5
		c5.6-13.4,0.6-21.8-15-25.6c-10.6-2.8-22.5,1.9-30.6,7.8c-11.9,8.1-22.5,21.2-26.5,35.3c-8.7,32.4,18.1,61.5,48.7,65.2
		c66.1,8.1,99.2-65.8,70.5-118.2c-27.5-49.9-88.9-61.1-140.1-45.9c-47.7,14.7-84.5,50.5-115.4,88.3c-5,12.2-12.8,23.1-23.1,31.5
		c-49,40.2-118.2,14.7-170-5.3c-39-15-83.6-37.4-126.4-35.3c-25,1.2-54,15.9-54.9,44.3c-0.6,16.8,12.8,34.3,30.9,31.5
		c22.8-3.4,26.5-38.7-0.9-41.2c-3.1-0.3-2.8-4.4,0-4.7c34.9-3.7,37.4,49.9,2.5,54.6C226.6,617.6,218.5,562.1,244.4,537.4z"/>
	<path class="st0" d="M573.9,550.2c1.6,0,2.8-0.9,3.7-1.9c1.9-1.6,2.8-4.7,2.2-6.9c-1.9-5.3-8.7-4.7-11.5-0.6
		C564.8,544.9,568.6,550.5,573.9,550.2z"/>
	<path class="st0" d="M524.9,560.5c0.9-5.3,8.1-8.1,11.9-4.1c1.9,1.9,1.9,5,0.9,7.2c0,1.9-0.9,3.4-2.5,4.4
		C530.2,571.1,524.3,565.8,524.9,560.5z"/>
	<path class="st0" d="M463.4,558c6.9,2.8,13.1-5.6,8.4-11.2c-0.6-0.6-1.2-0.9-2.2-0.9c-0.3-0.6-0.9-1.2-1.2-1.6
		c-0.9-0.9-2.5-1.6-3.7-0.9C458.1,545.2,456.6,554.9,463.4,558z"/>
	<path class="st0" d="M387.6,510.9c1.2-1.2,3.1-2.2,5.3-1.9c1.6,0.3,3.4,1.6,4.7,2.8c1.9,1.6,2.8,3.7,2.8,5.9c0.6,2.2,0,4.7-1.9,6.6
		c-4.7,4.4-12.5,0.9-13.7-5C384.2,516.5,385.4,513.1,387.6,510.9z"/>
	<path class="st0" d="M303.1,495.6c1.6-1.9,3.1-4.7,5.6-5c2.2-0.3,4.4,0.9,5.6,2.5c0.3,0,0.6,0,0.9,0c3.1,0,5.3,2.5,5.3,5.6
		c0,3.4-3.1,6.2-6.2,6.9c-3.7,0.9-7.2-0.9-10.3-2.8C301.5,500.9,301.2,497.8,303.1,495.6z"/>
	<path class="st0" d="M619.7,566.7c0.9,9,8.7,12.5,16.8,11.5c15-1.2,25.3-14.4,33.1-26.2c0.3-0.3,0.6-0.6,0.6-0.9
		c2.2-2.5,4.4-5.6,5.9-9c5-7.5,10-15,15.3-22.2c2.8-3.1,5.6-6.9,7.8-10.3c23.7-29.3,53-52.1,95.8-44.9c5,0.9,7.2-6.9,2.2-7.8
		c-9.7-1.6-18.4-1.9-26.8-0.9c-31.8-2.5-63.6,8.7-89.5,28.4c-13.7,10.3-25.6,22.5-35.9,35.9C636.6,531.2,618.2,552.1,619.7,566.7z
		 M711.4,473.5c-7.8,3.7-15,8.4-21.8,13.7c-0.9,0-1.9,0.3-2.8,0.9c-7.2,5.9-14.4,12.2-21.5,18.7c3.7-4.1,7.8-7.8,11.9-11.5
		C687.7,486.6,699.3,479.1,711.4,473.5z"/>
	<path class="st0" d="M690.5,592c8.4,8.1,19.7,2.2,24-6.9c5.3-11.2,2.5-26.5,4.7-38.4c2.8-14,8.7-27.1,16.2-39.3
		c1.6-2.8-0.6-5.3-3.1-5.3c0-0.9-1.6-1.9-2.5-0.9c-16.5,13.1-29,29.3-36.8,49C689.3,560.5,680.2,582,690.5,592z"/>
	<path class="st0" d="M911.1,596.7c7.5,9.7,23.7,24.6,37.4,19.7c12.5-4.4,9-19.7,1.6-26.8c-5.9-5.6-13.4-8.4-20.6-11.9
		c-10.6-5.3-17.8-12.8-20.6-24.6c-0.6-2.8-3.7-3.1-5.6-1.6c-0.9-0.9-2.5-0.9-3.1,0.9C896.1,568,901.1,583.9,911.1,596.7z
		 M932.6,589.5l0.3,0.3c-0.9,0.3-1.6,0.6-2.2,1.2c-0.3-0.6-0.9-1.2-1.2-1.9C928,585.5,930.8,588.6,932.6,589.5z"/>
	<path class="st0" d="M959.8,581.1c0.3,0.3,0.6,0.6,0.9,0.9c-0.6,0.6-0.6,1.9,0,2.5c18.4,17.5,41.2,28.1,66.1,31.8
		c15.6,2.5,39.9,4.1,50.2-11.2c5.9-8.7,2.5-18.4-8.1-20.6c-14-2.8-32.4,5.6-46.5,6.2c-20.3,1.2-38.1-2.8-54.9-14.4c0,0,0,0-0.3,0
		c-0.3-0.6-0.6-0.9-0.9-1.2c-1.2-0.6-2.2-0.3-3.1,0.3s-1.9,1.6-2.8,2.5C959.5,578.6,959.2,580.2,959.8,581.1z M1011.6,605.1
		c-3.4-0.9-6.9-2.2-10.3-3.4c2.5,0.3,4.7,0.6,7.2,0.9c0.3,0.9,0.9,1.9,2.2,2.2C1010.9,605.1,1011.3,605.1,1011.6,605.1z
		 M977.9,590.8c2.8,1.2,5.9,2.5,8.7,3.4c-0.3,0.3-0.3,0.6-0.6,0.9C983.5,593.9,980.7,592.3,977.9,590.8z"/>
	<path class="st0" d="M1091.4,517.8c1.2-0.9,2.5-0.6,3.7,0c1.6,0.6,2.8,1.9,3.4,3.4c1.2-0.3,2.5,0,3.1,1.9c1.6,5.6-4.7,10.6-10,7.8
		C1086.8,528.1,1087.4,520.9,1091.4,517.8z"/>
	<path class="st0" d="M1052.7,534.9c2.2-1.2,4.7-0.3,6.6,1.2c1.2-0.3,2.5,0.3,2.8,1.9c0.6,2.2,1.9,4.7,0.9,6.9
		c-0.6,1.6-2.2,2.8-3.7,3.7c-3.7,1.6-8.1,0-9.7-4.1C1048.1,541.2,1049.6,536.8,1052.7,534.9z"/>
	<path class="st0" d="M1000,549c1.6,2.8,5.3,4.4,8.4,3.4c2.8-0.9,5-3.7,4.7-6.6c-0.3-1.9-1.2-3.7-2.8-4.7c-0.6-0.9-1.6-1.9-2.5-2.5
		c-1.2-0.9-3.7-0.6-4.7,0.6c-1.2,1.2-3.1,3.1-3.7,5C998.8,545.8,999.1,547.7,1000,549z"/>
	<path class="st0" d="M952.6,542.7c5.3,3.7,12.5-1.6,10.9-7.5c-0.3-1.6-1.6-1.9-2.8-1.9c-0.3-0.9-0.6-1.6-0.9-2.5
		c-0.9-1.6-2.5-2.2-4.4-1.9C949.5,530.5,947.3,539,952.6,542.7z"/>
	<path class="st0" d="M901.8,505c0.6-4.4,5.6-7.8,10-5.3c1.6,0.9,2.2,2.2,2.5,3.4c1.9-0.6,4.4,0.3,3.7,3.1c-0.9,3.4-4.1,6.6-7.8,7.2
		c-2.2,0.3-5,0.3-6.6-1.9C902.1,509.6,901.4,507.5,901.8,505z"/>
	<path class="st0" d="M632.2,480c13.4-20.3,31.8-38.4,52.7-50.2c2.5-1.2,4.4,2.2,2.2,3.7c-19.3,14.7-36.5,30.3-52.1,49
		C633.8,483.8,631.3,481.9,632.2,480z"/>
	<path class="st0" d="M627.5,468.8c10.9-20.6,15.6-41.5,15.6-64.9c0-2.5,3.7-2.5,4.1,0c2.2,23.4-3.7,46.8-16.2,66.5
		C629.1,472.2,626.3,470.6,627.5,468.8z"/>
	<path class="st0" d="M586.3,418.9c18.4,4.1,31.5,21.2,31.8,39.6c0,2.2-3.1,1.9-3.1,0c-1.9-16.8-13.7-30.6-29.6-35.9
		C582.6,422,583.8,418.2,586.3,418.9z"/>
</g>
</svg>
