<?xml version="1.0" encoding="utf-8"?>
<!-- Generator: Adobe Illustrator 19.0.0, SVG Export Plug-In . SVG Version: 6.00 Build 0)  -->
<svg version="1.1" id="Layer_1" xmlns="http://www.w3.org/2000/svg" xmlns:xlink="http://www.w3.org/1999/xlink" x="0px" y="0px"
	 viewBox="-840.9 423.4 2048 178.8" style="enable-background:new -840.9 423.4 2048 178.8;" xml:space="preserve">
<style type="text/css">
	.st0{fill:#1D1D1B;}
</style>
<g>
	<path class="st0" d="M228.8,512.6c-15.6-17.1-39.5-6.8-44.5,11.5c-8.3-17.7-37.2-20.9-49.8-3.5c-15,20.4-0.3,50.4,25.1,43.9
		c2.1,11.8,11.2,21.8,24.2,22.1c13.3,0,26.5-10,27.4-23.9C234.4,562.1,243.5,528.8,228.8,512.6z M158.9,559.2c0,0.3,0,0.6,0,0.6
		c-10.3,0.9-19.8-2.7-22.7-13.9c-2.4-8.3-0.3-18,5.9-24.2c5.9-6.2,15.9-8.6,23.9-5.6c8.8,3.2,12.7,10.9,14.2,19.2
		C168.3,536.2,159.2,546.8,158.9,559.2z M184.2,577.7c-9.4,0.3-16.2-7.4-17.1-16.5c-0.9-10.3,6.5-17.7,15.9-19.8
		c0.3,0,0.6,0.3,1.2,0.3c9.7,0.9,18.6,9.4,18.3,19.5C202.2,570.7,193.1,577.2,184.2,577.7z M226.4,543.8c-4.1,7.1-9.7,9.1-16.5,11.2
		c-2.7-10.6-11.5-18.9-22.4-20.4c0.6-6.8,2.7-13.3,7.7-18c9.1-9.1,22.4-7.4,29.8,2.9C230.3,526.7,231.1,535.9,226.4,543.8z"/>
	<path class="st0" d="M192.2,559.5c-2.9,0.9-5.6,2.9-8,5.3c-1.5-1.2-2.7-2.7-3.5-4.1c-0.9-1.5-2.9-0.3-2.4,1.2
		c1.2,1.8,2.4,3.5,3.8,5c-1.5,1.5-2.7,3.2-3.5,4.7c-0.9,1.5,1.2,3.2,2.4,1.8s2.4-2.7,3.8-4.1c1.5,1.5,3.2,2.7,5,2.9
		c1.5,0.3,2.9-1.5,1.8-2.9c-1.2-1.2-2.4-1.8-3.8-2.7c2.1-1.8,4.4-2.9,6.5-4.7C195.5,561.2,194,558.9,192.2,559.5z"/>
	<path class="st0" d="M220.2,534.1c-0.6,0-1.5,0-2.1,0.3c0.3-0.9,0.6-1.8,0.9-2.9c0.6-2.4-2.4-3.2-3.5-1.5c-1.2,1.5-1.8,3.2-2.1,5.3
		c-0.9,0-2.1,0-2.9-0.3c-2.1-0.3-2.7,2.4-0.9,2.9c0.9,0.3,2.1,0.6,3.2,0.6c-0.3,1.8-0.3,3.5,0,5c0,1.5,2.7,2.1,2.9,0.3
		c0.3-1.8,0.6-3.8,0.9-5.6c1.8-0.3,3.5-0.9,4.7-2.4C222.3,535.6,221.1,534.4,220.2,534.1z"/>
	<path class="st0" d="M156.2,537c-2.4,1.5-4.4,3.5-6.2,5.9c-0.6-0.9-1.5-1.5-2.1-2.4c-1.2-1.8-3.8-0.3-2.7,1.5
		c0.6,1.2,1.5,2.7,2.7,4.1c-1.2,1.8-2.1,3.5-2.7,5.6c-0.6,1.5,1.5,2.9,2.4,1.5c0.9-1.5,1.8-2.9,2.9-4.1c1.5,1.5,3.2,2.4,5,2.4
		s2.1-1.8,1.2-2.9c-0.9-1.2-2.4-1.8-3.8-2.7c1.8-2.1,3.5-4.1,5.3-6.5C159.5,537.9,157.4,536.2,156.2,537z"/>
	<path class="st0" d="M114.1,535.9c-0.9,0-2.1,0-3.2,0c0.3-1.2,0-2.4-1.2-3.2c-7.1-4.7-14.5-7.4-20.6-13.3c-5.3-5-10-10.6-14.2-16.8
		c0-0.6-0.6-1.5-1.2-1.8c0-0.3-0.3-0.3-0.3-0.6c-1.2-1.8-4.7-0.6-3.8,1.5v0.3c-8.8,5.9-19.5,9.7-29.8,4.7
		c-10.9-5.3-15.9-17.4-14.5-28.9c0.3-1.2-0.9-2.1-2.1-2.1c-0.3,0-0.9-0.3-1.5,0c-23,9.4-40.1-8.6-39.2-31c0-2.4-2.7-3.5-4.7-2.7
		c-28.6,14.7-60.5,12.4-87.6-4.4c-2.1-1.2-3.8,1.2-3.2,2.9c-0.3,0.6-0.3,1.2,0,1.8c0.3,0.3,0.6,0.9,0.9,1.2c0,0.3,0,0.3,0.3,0.6
		c14.5,29.2,19.2,55.7,21.5,87.9c0,1.8,1.2,2.7,2.1,2.9c0.6,0.6,1.2,0.9,2.1,0.6c29.2-7.4,43.4,13.9,49.6,38.6
		c0.6,1.8,2.7,3.2,4.4,2.7c7.4-2.7,13.3-7.7,20.6-10.3c18-7.1,34.5,0.9,42.2,18.3c1.5,3.5,7.1,1.5,6.8-2.1
		c14.5-22.4,45.4-36.6,69.9-43.7c1.2-0.3,1.8-0.9,2.1-1.8C111.7,536.4,114.1,535.9,114.1,535.9C114.3,536.2,114.3,535.9,114.1,535.9
		z M-23.7,449.7c1.5,22.4,21.2,46.9,43.9,33.3c-0.9,12.4,5.3,25.1,17.1,30.4c11.5,5.3,26,2.9,34.5-6.2c5.6,10.9,15.3,22.1,26.5,27.4
		c-3.2-0.3-6.5-0.9-9.4-0.9c-10,0-20.1-0.6-30.1-1.8c-21.5-2.7-43.1-8.3-63.4-16.2c-38.3-15-67.8-38.9-96.4-67
		C-76.5,461.5-48.5,461.5-23.7,449.7z M35,577.2c-5-10-13-17.4-24.5-20.4c-5.3-1.2-10.9-1.2-16.2,0c-5.9,1.2-16.8,10-21.8,9.4
		c-5.9-0.6-6.5-11.5-10-17.4c-3.2-5.3-7.1-9.7-12.1-13.3c-10.3-7.1-22.1-8.3-33.6-5.3c2.1-22.1-2.9-46-12.4-67
		c23.3,24.8,54,43.9,84.6,56.9c20.6,8.8,42.5,14.7,64.9,18c10,1.5,20.4,2.4,30.4,2.4C64.5,548.8,45.3,560.6,35,577.2z"/>
	<path class="st0" d="M-107.2,515.5c0.3-0.9,0.3-2.1-0.6-2.9c-14.2-17.1-41-40.7-38-66.1c0.3-0.3,0.3-0.6,0.6-0.6
		c0.9-1.5,0.6-2.7-0.3-3.5c-0.6-1.5-2.4-1.8-3.5-0.9c-0.3,0-0.9,0.3-1.2,0.6c-21.2,18-43.9,6.8-56.9-14.2c0.3-1.5-0.6-2.7-1.8-3.2
		l0,0c-1.5-2.7-6.2-0.9-5,2.1l0,0c-8.8,10.6-17.4,19.8-31.9,22.4c-17.1,3.2-33.3-4.1-44.8-16.5c-1.5-1.8-3.2-0.9-4.4,0.3
		c-1.2,0.6-2.1,1.8-2.1,3.2c3.5,48.7-54,36.6-80.5,23.3c-2.4-1.2-5.9,0.3-5.9,3.2c1.2,18.6-2.4,36.3-10.9,52.8
		c-7.1,13.3-18,22.7-26.8,34.8c-0.6,0.6,0.3,1.8,1.2,1.5c-0.6,0.9-0.6,2.1,0,2.9c0,1.5,1.5,3.2,3.2,2.7c33-10.6,66.4-7.1,92.9,16.8
		c2.4,2.1,5.3,0.9,6.5-1.2c1.2,0.3,2.4-0.3,2.7-2.1c4.4-18.3,18.6-32.7,38.6-31c13.6,1.2,21.2,10,31.6,17.4c2.4,1.8,5.6,0,6.2-2.7
		c7.4-26,36.3-28.9,51.6-8.3c0.3,0.3,0.6,0.6,0.6,0.6v0.3c-0.9,3.5,3.8,4.4,5.3,1.5c10-24.5,43.4-27.1,65.2-31.6
		c1.2-0.3,2.1-1.2,2.4-2.1c0.3,0,0.6,0.3,0.9,0.3s0.3,0.3,0.6,0.3c0.6,0.3,0.9,0.3,1.5,0.3c0.6,0.3,0.9,0.3,1.5,0.6
		C-106.9,518.8-105.7,516.4-107.2,515.5z M-375.3,469.5c19.8,9.1,42.5,16.5,63.4,6.8c13.6-6.2,22.1-18.6,22.7-33
		c22.7,20.6,62.8,19.8,78.8-8.3c5.9,11.2,15.3,20.6,28.3,23.9c10,2.7,21.8,0.9,29.8-5.3c-0.3,18.3,13.3,39.8,27.7,53.4
		c-44.5-18.3-97.3-17.1-143.6-10.6c-27.7,3.8-54.9,10.6-81.1,20.4c-16.2,5.9-34.2,12.7-49.8,21.5
		C-382.9,520.8-375.3,492.5-375.3,469.5z M-181.5,540c-17.1-23.6-51-17.7-62.2,8c-14.2-10.3-26-19.2-45.4-13.6
		c-15.9,4.4-26.5,17.7-29.5,33.6c-19.5-17.1-46-26-71.4-23c14.2-7.1,28-14.5,43.1-19.8c23.9-8.8,48.7-15.3,73.7-19.8
		c49.8-8.8,98.8-7.4,146.6,6.8C-147.3,513.7-171.2,522.9-181.5,540z"/>
	<path class="st0" d="M-411.2,495.7c-0.3-1.5-1.5-2.7-2.9-2.7c-6.2-0.3-11.8,0.6-18.3-1.5c-6.5-2.1-11.8-5.9-16.5-10.6
		c-1.5-1.5-3.8-0.6-4.4,1.2c-0.6,0-1.5,0.3-1.8,0.9c-6.8,5.9-13,11.8-22.7,11.2c-10.6-0.6-18.3-8.6-21.8-18
		c-0.9-2.4-3.2-2.4-4.7-1.2c-1.5-0.3-2.9,0.6-3.5,2.4c-3.8,11.5-12.7,23-26.3,20.4c-16.5-3.2-22.4-21.5-22.1-36.3
		c0-2.7-4.1-3.2-4.7-0.6c0,0.3,0,0.3,0,0.6c-0.6,0-1.2,0-2.1,0.3c-23.3,10.9-44.5,13.6-66.1-3.5c-2.4-2.1-5.6,0.9-3.5,3.5
		c0,0,0,0,0.3,0.3v0.3c-1.5-0.9-3.8,0-3.2,2.4c4.4,14.5,12.1,27.7,13.3,43.1c1.2,15.9-4.7,27.7-12.7,41.3c-1.5,2.7,1.5,6.2,4.4,4.4
		c22.7,6.5,40.7,17.4,48.1,42.2c0.9,2.7,3.8,4.1,6.5,2.7c25.7-15,63.4-30.4,83.8,1.5c2.9,4.4,9.7,0.6,7.7-3.8
		c5-6.8,8.3-14.7,14.7-20.6c8.8-7.7,17.1-6.5,27.7-3.8c2.7,0.6,3.8-1.5,3.5-3.5c4.7-24.8,24.8-44.2,27.1-69.3c0,0,0,0,0-0.3
		c0.3-0.3,0.3-0.6,0.6-0.9C-410.7,496.9-410.7,496-411.2,495.7z M-562.8,469.8c-0.3,16.5,10,33.3,27.1,36
		c13.3,2.4,29.5-6.8,33.3-20.1c10.6,18.3,41.9,23.6,51.6,1.8c7.4,8.6,20.1,14.7,31.3,13.3v0.3c-30.4,29.2-71.4,46-113.8,38
		c-40.4-7.4-69.6-34.2-88.5-68.7C-604.1,481.3-578.8,483.1-562.8,469.8z M-469.1,565.6c-8.8,5.3-15.6,14.7-19.8,24.5
		c-21.5-28.3-59.9-17.4-87.6-2.1c-8.3-20.4-26.8-38.9-49.6-40.1c13-13,13.9-33.9,9.1-53.1c42.8,60.5,138.3,71.1,192,18
		c-7.4,16.2-17.1,32.1-19.8,49.6C-451.7,559.2-462.3,561.8-469.1,565.6z"/>
	<path class="st0" d="M-644.3,518.2c-5.3-9.1-12.4-17.1-17.4-26.8c-5.3-10.3-9.1-21.5-12.1-32.7c0-0.3-0.3-0.6-0.6-0.9
		c0.3-2.4-1.8-4.7-4.4-3.8c-10.9,3.5-19.8,7.7-31.3,3.8c-10.6-3.5-17.4-11.5-22.7-20.9c-0.6-1.2-2.1-1.5-3.2-0.9
		c-0.9-0.3-2.1-0.3-2.9,0.9c-8.3,9.4-13.9,18.9-26.5,23.6c-13.9,5-27.1,2.7-39.8-4.1c-0.9-0.9-2.1-1.8-3.2-2.7
		c-2.7-2.1-6.8,2.1-4.7,4.7c6.8,9.1,13,18.3,9.4,31c-4.1,15.3-19.2,21.2-33.3,19.8c-3.8-0.3-4.7,4.4-2.7,6.8
		c12.7,14.5,18.9,31.3,19.8,51c0,1.5,0.9,2.1,2.1,2.1c0,0.3-0.3,0.6-0.3,1.2c-0.3,0.9,0,1.8,0.9,2.4c0.6,0.6,1.2,0.3,2.1,0.6
		c0.6,0,0.9-0.3,0.9-0.9c0.3,0,0.3-0.3,0.3-0.6s0-0.3,0-0.6c2.4-1.5,5.9-4.1,5.9-4.1c5.6-4.4,11.5-7.7,18.6-9.4
		c15-3.5,25.1,3.8,34.5,14.5c2.1,2.1,5,0.6,5.6-1.8c0.6-0.3,0.9-1.2,0.9-2.1c0.3-10.9,5.3-21.5,15-26.8c4.7-2.7,11.2-4.4,16.5-2.4
		c6.2,2.1,8,7.4,10.3,12.4c1.2,2.7,5.6,2.1,6.2-0.9c0-0.3,0-0.6,0-0.9c5-8.3,11.8-15.3,20.6-19.8c10-5.3,19.2-4.4,30.1-5
		c1.2,0,2.1-0.9,2.9-1.8C-644.5,523.2-642.8,520.8-644.3,518.2z M-815.3,558.9c-0.6-15.6-5.3-29.8-14.2-42.8
		c25.4-2.4,42.8-30.1,31.3-51.3c22.4,8.8,53.4,3.2,62.5-20.1c10,20.1,38.9,31,57.2,17.4c1.2,12.7,5,27.1,11.5,39.5
		C-716.2,476-800.9,505.2-815.3,558.9z M-701.8,540.9c-4.7-9.1-18.9-12.4-28.3-9.7c-13.3,4.1-22.1,16.2-23.9,29.2
		c-6.8-8.3-19.2-12.4-29.5-11.8c-5.3,0.3-13,2.4-20.1,5.9c14.7-23,30.7-40.7,60.2-49.6c27.1-8.3,57.2-8.6,81.7,5
		c1.5,2.4,3.2,4.4,5,6.2C-674,514-692.9,525.8-701.8,540.9z"/>
	<path class="st0" d="M252.1,536.2c0,0,2.1,0.6,4.7,1.5c0.3,0.9,0.9,1.5,2.1,1.8c24.5,7.1,55.7,21.2,69.9,43.7
		c-0.3,3.2,5.3,5.3,6.8,2.1c7.7-17.4,24.2-25.4,42.2-18.3c7.4,2.9,13,7.7,20.6,10.3c1.8,0.6,4.1-0.9,4.4-2.7
		c6.2-24.8,20.4-46.3,49.6-38.6c0.9,0.3,1.5,0,2.1-0.6c1.2-0.3,2.1-1.2,2.1-2.9c2.4-32.1,7.1-58.7,21.5-87.9c0-0.3,0-0.3,0.3-0.6
		c0.3-0.3,0.6-0.9,0.9-1.2c0.6-0.6,0.3-1.5,0-1.8c0.9-1.8-0.9-4.1-3.2-2.9c-27.1,16.8-59,19.2-87.6,4.4c-2.1-0.9-4.7,0.3-4.7,2.7
		c0.9,22.4-16.2,40.7-39.2,31c-0.6-0.3-1.2-0.3-1.5,0c-1.2,0-2.4,0.6-2.1,2.1c1.5,11.5-3.8,23.6-14.5,28.9
		c-10.3,5-20.9,1.2-29.8-4.7v-0.3c0.9-2.4-2.7-3.5-3.8-1.5c0,0.3-0.3,0.3-0.3,0.6c-0.6,0.3-1.2,1.2-1.2,1.8
		c-4.1,6.2-8.6,11.8-14.2,16.8c-6.5,5.9-13.6,8.6-20.6,13.3c-1.2,0.9-1.5,2.1-1.2,3.2C254.2,536.2,253,536.2,252.1,536.2
		C251.8,535.9,251.8,536.2,252.1,536.2z M466.8,449.1c-28.6,28-58.1,51.9-96.4,67c-20.4,8-41.6,13.6-63.4,16.2
		c-10,1.2-20.1,1.8-30.1,1.8c-2.7,0-5.9,0.3-9.4,0.9c11.2-5.6,20.9-16.5,26.5-27.4c8.3,9.1,23,11.5,34.5,6.2
		c11.8-5.6,18-18,17.1-30.4c22.7,13.9,42.8-10.6,43.9-33.3C414.9,461.5,442.6,461.5,466.8,449.1z M282.8,540.6
		c10.3,0,20.4-0.9,30.4-2.4c22.4-3.2,43.9-9.1,64.9-18c30.4-12.7,61.3-31.9,84.6-56.9c-9.4,20.9-14.5,44.8-12.4,67
		c-11.5-2.9-23.3-1.8-33.6,5.3c-5,3.5-9.1,8-12.1,13.3c-3.5,5.9-4.1,16.8-10,17.4c-5.3,0.6-15.9-8.3-21.8-9.4
		c-5.3-1.2-10.9-1.2-16.2,0c-11.5,2.7-19.5,10.3-24.5,20.4C321.1,560.6,301.9,548.8,282.8,540.6z"/>
	<path class="st0" d="M474.5,518.2c0.6-0.3,0.9-0.3,1.5-0.6c0.3,0,0.9,0,1.5-0.3c0.3,0,0.3-0.3,0.6-0.3c0.3,0,0.6-0.3,0.9-0.3
		c0.3,0.9,0.9,1.8,2.4,2.1c22.1,4.4,55.4,7.1,65.2,31.6c1.2,3.2,6.2,2.1,5.3-1.5v-0.3c0.3-0.3,0.6-0.3,0.6-0.6
		c15.3-20.6,44.2-17.4,51.6,8.3c0.6,2.4,4.1,4.1,6.2,2.7c10.3-7.4,18-16.2,31.6-17.4c20.1-2.1,34.2,12.7,38.6,31
		c0.3,1.5,1.5,2.1,2.7,2.1c1.2,2.1,4.1,3.2,6.5,1.2c26.5-23.9,59.9-27.4,92.9-16.8c1.8,0.6,3.2-1.2,3.2-2.7c0.6-0.9,0.9-2.1,0-2.9
		c0.9,0,1.5-0.9,1.2-1.5c-8.6-12.1-19.8-21.5-26.8-34.8c-8.8-16.5-12.1-34.2-10.9-52.8c0.3-3.2-3.2-4.4-5.9-3.2
		c-26.5,13-84.1,25.4-80.5-23.3c0-1.5-0.9-2.7-2.1-3.2c-0.9-1.5-2.9-2.1-4.4-0.3c-11.5,12.4-27.7,19.8-44.8,16.5
		c-14.2-2.7-23-12.1-31.9-22.4l0,0c1.2-2.9-3.5-4.7-5-2.1l0,0c-1.2,0.6-2.1,1.8-1.8,3.2c-13,20.6-35.7,32.1-56.9,14.2
		c-0.3-0.3-0.9-0.6-1.2-0.6c-1.2-0.9-2.9-0.3-3.5,0.9c-0.9,0.9-1.2,2.1-0.3,3.5c0.3,0.3,0.3,0.6,0.6,0.6c2.9,25.7-23.6,49-38,66.1
		c-0.9,0.9-0.9,2.1-0.6,2.9C472.1,516.4,473,518.8,474.5,518.2z M765.6,538.5c-15.9-8.8-33.6-15.3-49.8-21.5
		c-26.3-9.7-53.4-16.5-81.1-20.4c-46.3-6.5-99.1-7.7-143.6,10.6c14.5-13.6,27.7-35.1,27.7-53.4c8.3,6.2,19.8,8,29.8,5.3
		c13-3.2,22.4-12.7,28.3-23.9c15.9,28,56,28.6,78.8,8.3c0.3,14.2,9.1,26.5,22.7,33c20.9,9.7,43.7,2.4,63.4-6.8
		C741.4,492.5,749.1,520.8,765.6,538.5z M493.1,512c47.8-14.2,96.7-15.3,146.6-6.8c25.1,4.4,49.8,10.9,73.7,19.8
		c15,5.6,28.9,13,43.1,19.8c-25.4-2.9-51.9,5.9-71.4,23c-3.2-15.6-13.9-28.9-29.5-33.6c-19.5-5.6-31.3,3.5-45.4,13.6
		c-11.2-25.7-45.1-31.6-62.2-8C537.3,522.9,513.4,513.7,493.1,512z"/>
	<path class="st0" d="M777.4,497.8c0.3,0.3,0.3,0.6,0.6,0.9c0,0,0,0,0,0.3c2.4,25.1,22.4,44.5,27.1,69.3c-0.3,2.1,1.2,4.1,3.5,3.5
		c10.3-2.7,18.9-3.8,27.7,3.8c6.5,5.9,10,13.6,14.7,20.6c-2.1,4.7,4.7,8.3,7.7,3.8c20.4-31.9,58.4-16.8,83.8-1.5
		c2.4,1.5,5.6,0,6.5-2.7c7.4-24.8,25.4-35.7,48.4-43.1c2.7,1.8,5.9-1.8,4.4-4.4c-7.7-13.3-13.9-25.1-12.7-41.3
		c1.2-15.6,8.8-28.6,13.3-43.1c0.6-2.1-1.8-3.2-3.2-2.4v-0.3c0,0,0,0,0.3-0.3c2.1-2.4-0.9-5.3-3.5-3.5
		c-21.5,17.1-42.8,14.5-66.1,3.5c-0.6-0.3-1.2-0.3-2.1-0.3c0-0.3,0-0.3,0-0.6c-0.9-2.7-4.7-2.1-4.7,0.6c0.3,14.7-5.6,33-22.1,36.3
		c-13.9,2.7-22.4-8.8-26.3-20.4c-0.6-1.8-2.1-2.7-3.5-2.4c-1.5-1.2-3.8-0.9-4.7,1.2c-3.5,9.4-11.2,17.4-21.8,18
		c-9.7,0.6-15.9-5.3-22.7-11.2c-0.6-0.6-1.2-0.6-1.8-0.9c-0.6-1.8-2.9-2.7-4.4-1.2c-4.7,4.7-10,8.6-16.5,10.6
		c-6.2,2.1-11.8,0.9-18.3,1.5c-1.5,0-2.7,1.2-2.9,2.7C777.1,496,776.8,496.9,777.4,497.8z M988,470.4
		c-18.6,34.5-48.1,61.3-88.5,68.7c-42.5,8-83.5-8.8-113.8-38v-0.3c11.2,1.5,24.2-4.7,31.3-13.3c9.7,22.1,40.7,16.5,51.6-1.8
		c3.8,13.3,20.1,22.4,33.3,20.1c17.1-2.9,27.4-19.8,27.1-36C944.9,483.1,970.3,481.3,988,470.4z M810.4,562.7
		c-2.7-17.4-12.4-33.3-19.8-49.6c54,52.8,149.5,42.5,192-18c-5,19.2-4.1,40.1,9.1,53.1c-22.7,1.2-41.3,19.5-49.6,40.1
		c-27.7-15.6-66.1-26.3-87.6,2.1c-3.8-9.7-10.9-19.5-19.8-24.5C828.7,561.8,817.8,559.2,810.4,562.7z"/>
	<path class="st0" d="M1013.3,523.5c0.6,0.9,1.8,1.8,2.9,1.8c10.9,0.6,20.1-0.3,30.1,5c8.8,4.4,15.6,11.5,20.6,19.8
		c0,0.3,0,0.6,0,0.9c0.6,2.7,4.7,3.2,6.2,0.9c2.7-5.3,4.4-10.3,10.3-12.4c5.3-1.8,11.8-0.3,16.5,2.4c9.7,5.6,14.7,16.2,15,26.8
		c0,0.9,0.3,1.5,0.9,2.1c0.6,2.4,3.8,4.1,5.6,1.8c9.4-10.6,19.2-18.3,34.5-14.5c6.8,1.8,13,5.3,18.6,9.4c0,0,3.5,2.7,5.9,4.1
		c0,0,0,0.3,0,0.6c0,0.3,0.3,0.6,0.3,0.6c0.3,0.3,0.6,0.9,0.9,0.9c0.9,0,1.2,0,2.1-0.6c0.9-0.6,1.2-1.5,0.9-2.4
		c0-0.3-0.3-0.6-0.3-1.2c0.9,0,1.8-0.9,2.1-2.1c0.9-19.8,7.1-36.6,19.8-51.9c1.8-2.4,0.9-7.1-2.7-6.8c-14.2,1.5-28.9-4.4-33.3-19.8
		c-3.5-12.4,2.7-21.5,9.4-31c2.1-2.7-2.1-6.5-4.7-4.7c-1.2,0.9-2.1,1.8-3.2,2.7c-12.7,6.8-26,9.1-39.8,4.1
		c-12.7-4.7-18.3-13.9-26.5-23.6c-0.9-0.9-2.1-1.2-2.9-0.9c-1.2-0.6-2.4-0.3-3.2,0.9c-5.3,9.4-12.1,17.4-22.7,20.9
		c-11.5,3.8-20.4-0.3-31.3-3.8c-2.7-0.9-4.4,1.5-4.4,3.8c-0.3,0.3-0.3,0.6-0.6,0.9c-2.9,11.2-6.8,22.4-12.1,32.7
		c-5,9.7-12.1,17.7-17.4,26.8C1008.9,520.8,1011,523.2,1013.3,523.5z M1033.1,501.6c6.5-12.4,10.3-26.8,11.5-39.5
		c18.3,13.9,47.5,2.7,56.9-17.1c9.4,23.3,40.4,28.9,62.5,20.1c-11.5,21.2,5.9,49.3,31.3,51.3c-8.8,13-13.6,26.8-14.2,42.8
		C1167,505.2,1082.4,476,1033.1,501.6z M1022.8,516.4c1.8-2.1,3.5-4.1,5-6.2c24.5-13.6,54.9-13.3,81.7-5
		c29.5,9.1,45.1,26.8,60.2,49.6c-6.8-3.5-14.7-5.6-20.1-5.9c-10.3-0.6-22.7,3.5-29.5,11.8c-1.8-13.3-10.6-25.1-23.9-29.2
		c-9.4-2.9-23.6,0.6-28.3,9.7C1059.1,525.8,1040.2,514,1022.8,516.4z"/>
</g>
</svg>
