<?xml version="1.0" encoding="utf-8"?>
<!-- Generator: Adobe Illustrator 19.0.0, SVG Export Plug-In . SVG Version: 6.00 Build 0)  -->
<svg version="1.1" id="Layer_1" xmlns="http://www.w3.org/2000/svg" xmlns:xlink="http://www.w3.org/1999/xlink" x="0px" y="0px"
	 viewBox="0 0 694.2 60.5" style="enable-background:new 0 0 694.2 60.5;" xml:space="preserve">
<style type="text/css">
	.st0{fill:#1D1D1B;}
</style>
<g>
	<path class="st0" d="M362.6,30.2c-5.3-5.8-13.4-2.3-15.1,3.9c-2.8-6-12.6-7.1-16.9-1.2c-5.1,6.9-0.1,17.1,8.5,14.9
		c0.7,4,3.8,7.4,8.2,7.5c4.5,0,9-3.4,9.3-8.1C364.5,47,367.6,35.7,362.6,30.2z M338.9,46c0,0.1,0,0.2,0,0.2
		c-3.5,0.3-6.7-0.9-7.7-4.7c-0.8-2.8-0.1-6.1,2-8.2c2-2.1,5.4-2.9,8.1-1.9c3,1.1,4.3,3.7,4.8,6.5C342.1,38.2,339,41.8,338.9,46z
		 M347.5,52.3c-3.2,0.1-5.5-2.5-5.8-5.6c-0.3-3.5,2.2-6,5.4-6.7c0.1,0,0.2,0.1,0.4,0.1c3.3,0.3,6.3,3.2,6.2,6.6
		C353.6,49.9,350.5,52.1,347.5,52.3z M361.8,40.8c-1.4,2.4-3.3,3.1-5.6,3.8c-0.9-3.6-3.9-6.4-7.6-6.9c0.2-2.3,0.9-4.5,2.6-6.1
		c3.1-3.1,7.6-2.5,10.1,1C363.1,35,363.4,38.1,361.8,40.8z"/>
	<path class="st0" d="M350.2,46.1c-1,0.3-1.9,1-2.7,1.8c-0.5-0.4-0.9-0.9-1.2-1.4c-0.3-0.5-1-0.1-0.8,0.4c0.4,0.6,0.8,1.2,1.3,1.7
		c-0.5,0.5-0.9,1.1-1.2,1.6c-0.3,0.5,0.4,1.1,0.8,0.6c0.4-0.5,0.8-0.9,1.3-1.4c0.5,0.5,1.1,0.9,1.7,1c0.5,0.1,1-0.5,0.6-1
		c-0.4-0.4-0.8-0.6-1.3-0.9c0.7-0.6,1.5-1,2.2-1.6C351.3,46.7,350.8,45.9,350.2,46.1z"/>
	<path class="st0" d="M359.7,37.5c-0.2,0-0.5,0-0.7,0.1c0.1-0.3,0.2-0.6,0.3-1c0.2-0.8-0.8-1.1-1.2-0.5c-0.4,0.5-0.6,1.1-0.7,1.8
		c-0.3,0-0.7,0-1-0.1c-0.7-0.1-0.9,0.8-0.3,1c0.3,0.1,0.7,0.2,1.1,0.2c-0.1,0.6-0.1,1.2,0,1.7c0,0.5,0.9,0.7,1,0.1
		c0.1-0.6,0.2-1.3,0.3-1.9c0.6-0.1,1.2-0.3,1.6-0.8C360.4,38,360,37.6,359.7,37.5z"/>
	<path class="st0" d="M338,38.5c-0.8,0.5-1.5,1.2-2.1,2c-0.2-0.3-0.5-0.5-0.7-0.8c-0.4-0.6-1.3-0.1-0.9,0.5c0.2,0.4,0.5,0.9,0.9,1.4
		c-0.4,0.6-0.7,1.2-0.9,1.9c-0.2,0.5,0.5,1,0.8,0.5c0.3-0.5,0.6-1,1-1.4c0.5,0.5,1.1,0.8,1.7,0.8c0.6,0,0.7-0.6,0.4-1
		c-0.3-0.4-0.8-0.6-1.3-0.9c0.6-0.7,1.2-1.4,1.8-2.2C339.1,38.8,338.4,38.2,338,38.5z"/>
	<path class="st0" d="M323.7,38.1c-0.3,0-0.7,0-1.1,0c0.1-0.4,0-0.8-0.4-1.1c-2.4-1.6-4.9-2.5-7-4.5c-1.8-1.7-3.4-3.6-4.8-5.7
		c0-0.2-0.2-0.5-0.4-0.6c0-0.1-0.1-0.1-0.1-0.2c-0.4-0.6-1.6-0.2-1.3,0.5c0,0,0,0.1,0,0.1c-3,2-6.6,3.3-10.1,1.6
		c-3.7-1.8-5.4-5.9-4.9-9.8c0.1-0.4-0.3-0.7-0.7-0.7c-0.1,0-0.3-0.1-0.5,0c-7.8,3.2-13.6-2.9-13.3-10.5c0-0.8-0.9-1.2-1.6-0.9
		c-9.7,5-20.5,4.2-29.7-1.5c-0.7-0.4-1.3,0.4-1.1,1c-0.1,0.2-0.1,0.4,0,0.6c0.1,0.1,0.2,0.3,0.3,0.4c0,0.1,0,0.1,0.1,0.2
		c4.9,9.9,6.5,18.9,7.3,29.8c0,0.6,0.4,0.9,0.7,1c0.2,0.2,0.4,0.3,0.7,0.2c9.9-2.5,14.7,4.7,16.8,13.1c0.2,0.6,0.9,1.1,1.5,0.9
		c2.5-0.9,4.5-2.6,7-3.5c6.1-2.4,11.7,0.3,14.3,6.2c0.5,1.2,2.4,0.5,2.3-0.7c4.9-7.6,15.4-12.4,23.7-14.8c0.4-0.1,0.6-0.3,0.7-0.6
		c0.8-0.3,1.6-0.5,1.6-0.5C323.8,38.2,323.8,38.1,323.7,38.1z M277,8.9c0.5,7.6,7.2,15.9,14.9,11.3c-0.3,4.2,1.8,8.5,5.8,10.3
		c3.9,1.8,8.8,1,11.7-2.1c1.9,3.7,5.2,7.5,9,9.3c-1.1-0.1-2.2-0.3-3.2-0.3c-3.4,0-6.8-0.2-10.2-0.6c-7.3-0.9-14.6-2.8-21.5-5.5
		c-13-5.1-23-13.2-32.7-22.7C259.1,12.9,268.6,12.9,277,8.9z M296.9,52.1c-1.7-3.4-4.4-5.9-8.3-6.9c-1.8-0.4-3.7-0.4-5.5,0
		c-2,0.4-5.7,3.4-7.4,3.2c-2-0.2-2.2-3.9-3.4-5.9c-1.1-1.8-2.4-3.3-4.1-4.5c-3.5-2.4-7.5-2.8-11.4-1.8c0.7-7.5-1-15.6-4.2-22.7
		c7.9,8.4,18.3,14.9,28.7,19.3c7,3,14.4,5,22,6.1c3.4,0.5,6.9,0.8,10.3,0.8C306.9,42.5,300.4,46.5,296.9,52.1z"/>
	<path class="st0" d="M248.7,31.2c0.1-0.3,0.1-0.7-0.2-1c-4.8-5.8-13.9-13.8-12.9-22.4c0.1-0.1,0.1-0.2,0.2-0.2
		c0.3-0.5,0.2-0.9-0.1-1.2c-0.2-0.5-0.8-0.6-1.2-0.3c-0.1,0-0.3,0.1-0.4,0.2c-7.2,6.1-14.9,2.3-19.3-4.8c0.1-0.5-0.2-0.9-0.6-1.1
		c0,0,0,0,0,0c-0.5-0.9-2.1-0.3-1.7,0.7c0,0,0,0,0,0c-3,3.6-5.9,6.7-10.8,7.6c-5.8,1.1-11.3-1.4-15.2-5.6c-0.5-0.6-1.1-0.3-1.5,0.1
		c-0.4,0.2-0.7,0.6-0.7,1.1c1.2,16.5-18.3,12.4-27.3,7.9c-0.8-0.4-2,0.1-2,1.1c0.4,6.3-0.8,12.3-3.7,17.9c-2.4,4.5-6.1,7.7-9.1,11.8
		c-0.2,0.2,0.1,0.6,0.4,0.5c-0.2,0.3-0.2,0.7,0,1c0,0.5,0.5,1.1,1.1,0.9c11.2-3.6,22.5-2.4,31.5,5.7c0.8,0.7,1.8,0.3,2.2-0.4
		c0.4,0.1,0.8-0.1,0.9-0.7c1.5-6.2,6.3-11.1,13.1-10.5c4.6,0.4,7.2,3.4,10.7,5.9c0.8,0.6,1.9,0,2.1-0.9c2.5-8.8,12.3-9.8,17.5-2.8
		c0.1,0.1,0.2,0.2,0.2,0.2c0,0,0,0.1,0,0.1c-0.3,1.2,1.3,1.5,1.8,0.5c3.4-8.3,14.7-9.2,22.1-10.7c0.4-0.1,0.7-0.4,0.8-0.7
		c0.1,0,0.2,0.1,0.3,0.1c0.1,0,0.1,0.1,0.2,0.1c0.2,0.1,0.3,0.1,0.5,0.1c0.2,0.1,0.3,0.1,0.5,0.2C248.8,32.3,249.2,31.5,248.7,31.2z
		 M157.8,15.6c6.7,3.1,14.4,5.6,21.5,2.3c4.6-2.1,7.5-6.3,7.7-11.2c7.7,7,21.3,6.7,26.7-2.8c2,3.8,5.2,7,9.6,8.1
		c3.4,0.9,7.4,0.3,10.1-1.8c-0.1,6.2,4.5,13.5,9.4,18.1c-15.1-6.2-33-5.8-48.7-3.6c-9.4,1.3-18.6,3.6-27.5,6.9
		c-5.5,2-11.6,4.3-16.9,7.3C155.2,33,157.8,23.4,157.8,15.6z M223.5,39.5c-5.8-8-17.3-6-21.1,2.7c-4.8-3.5-8.8-6.5-15.4-4.6
		c-5.4,1.5-9,6-10,11.4c-6.6-5.8-15.6-8.8-24.2-7.8c4.8-2.4,9.5-4.9,14.6-6.7c8.1-3,16.5-5.2,25-6.7c16.9-3,33.5-2.5,49.7,2.3
		C235.1,30.6,227,33.7,223.5,39.5z"/>
	<path class="st0" d="M145.6,24.5c-0.1-0.5-0.5-0.9-1-0.9c-2.1-0.1-4,0.2-6.2-0.5c-2.2-0.7-4-2-5.6-3.6c-0.5-0.5-1.3-0.2-1.5,0.4
		c-0.2,0-0.5,0.1-0.6,0.3c-2.3,2-4.4,4-7.7,3.8c-3.6-0.2-6.2-2.9-7.4-6.1c-0.3-0.8-1.1-0.8-1.6-0.4c-0.5-0.1-1,0.2-1.2,0.8
		c-1.3,3.9-4.3,7.8-8.9,6.9c-5.6-1.1-7.6-7.3-7.5-12.3c0-0.9-1.4-1.1-1.6-0.2c0,0.1,0,0.1,0,0.2c-0.2,0-0.4,0-0.7,0.1
		c-7.9,3.7-15.1,4.6-22.4-1.2c-0.8-0.7-1.9,0.3-1.2,1.2c0,0,0,0,0.1,0.1c0,0,0,0.1,0,0.1c-0.5-0.3-1.3,0-1.1,0.8
		c1.5,4.9,4.1,9.4,4.5,14.6c0.4,5.4-1.6,9.4-4.3,14c-0.5,0.9,0.5,2.1,1.5,1.5C78.9,46.3,85,50,87.5,58.4c0.3,0.9,1.3,1.4,2.2,0.9
		c8.7-5.1,21.5-10.3,28.4,0.5c1,1.5,3.3,0.2,2.6-1.3c1.7-2.3,2.8-5,5-7c3-2.6,5.8-2.2,9.4-1.3c0.9,0.2,1.3-0.5,1.2-1.2
		c1.6-8.4,8.4-15,9.2-23.5c0,0,0,0,0-0.1c0.1-0.1,0.1-0.2,0.2-0.3C145.8,24.9,145.8,24.6,145.6,24.5z M94.2,15.7
		c-0.1,5.6,3.4,11.3,9.2,12.2c4.5,0.8,10-2.3,11.3-6.8c3.6,6.2,14.2,8,17.5,0.6c2.5,2.9,6.8,5,10.6,4.5c0,0,0,0.1,0,0.1
		c-10.3,9.9-24.2,15.6-38.6,12.9c-13.7-2.5-23.6-11.6-30-23.3C80.2,19.6,88.8,20.2,94.2,15.7z M126,48.2c-3,1.8-5.3,5-6.7,8.3
		c-7.3-9.6-20.3-5.9-29.7-0.7c-2.8-6.9-9.1-13.2-16.8-13.6c4.4-4.4,4.7-11.5,3.1-18c14.5,20.5,46.9,24.1,65.1,6.1
		c-2.5,5.5-5.8,10.9-6.7,16.8C131.9,46,128.3,46.9,126,48.2z"/>
	<path class="st0" d="M66.6,32.1c-1.8-3.1-4.2-5.8-5.9-9.1c-1.8-3.5-3.1-7.3-4.1-11.1c0-0.1-0.1-0.2-0.2-0.3
		c0.1-0.8-0.6-1.6-1.5-1.3c-3.7,1.2-6.7,2.6-10.6,1.3c-3.6-1.2-5.9-3.9-7.7-7.1c-0.2-0.4-0.7-0.5-1.1-0.3c-0.3-0.1-0.7-0.1-1,0.3
		c-2.8,3.2-4.7,6.4-9,8c-4.7,1.7-9.2,0.9-13.5-1.4c-0.3-0.3-0.7-0.6-1.1-0.9c-0.9-0.7-2.3,0.7-1.6,1.6c2.3,3.1,4.4,6.2,3.2,10.5
		c-1.4,5.2-6.5,7.2-11.3,6.7c-1.3-0.1-1.6,1.5-0.9,2.3C4.6,36.2,6.7,41.9,7,48.6c0,0.5,0.3,0.7,0.7,0.7c0,0.1-0.1,0.2-0.1,0.4
		c-0.1,0.3,0,0.6,0.3,0.8c0.2,0.2,0.4,0.1,0.7,0.2c0.2,0,0.3-0.1,0.3-0.3C9,50.4,9,50.3,9,50.2c0-0.1,0-0.1,0-0.2
		c0.8-0.5,2-1.4,2-1.4c1.9-1.5,3.9-2.6,6.3-3.2c5.1-1.2,8.5,1.3,11.7,4.9c0.7,0.7,1.7,0.2,1.9-0.6c0.2-0.1,0.3-0.4,0.3-0.7
		c0.1-3.7,1.8-7.3,5.1-9.1c1.6-0.9,3.8-1.5,5.6-0.8c2.1,0.7,2.7,2.5,3.5,4.2c0.4,0.9,1.9,0.7,2.1-0.3c0-0.1,0-0.2,0-0.3
		c1.7-2.8,4-5.2,7-6.7c3.4-1.8,6.5-1.5,10.2-1.7c0.4,0,0.7-0.3,1-0.6C66.5,33.8,67.1,33,66.6,32.1z M8.6,45.9
		c-0.2-5.3-1.8-10.1-4.8-14.5c8.6-0.8,14.5-10.2,10.6-17.4c7.6,3,18.1,1.1,21.2-6.8C39,14,48.8,17.7,55,13.1
		c0.4,4.3,1.7,9.2,3.9,13.4C42.2,17.8,13.5,27.7,8.6,45.9z M47.1,39.8c-1.6-3.1-6.4-4.2-9.6-3.3C33,37.9,30,42,29.4,46.4
		c-2.3-2.8-6.5-4.2-10-4c-1.8,0.1-4.4,0.8-6.8,2c5-7.8,10.4-13.8,20.4-16.8c9.2-2.8,19.4-2.9,27.7,1.7c0.5,0.8,1.1,1.5,1.7,2.1
		C56.5,30.7,50.1,34.7,47.1,39.8z"/>
	<path class="st0" d="M370.5,38.2c0,0,0.7,0.2,1.6,0.5c0.1,0.3,0.3,0.5,0.7,0.6c8.3,2.4,18.9,7.2,23.7,14.8
		c-0.1,1.1,1.8,1.8,2.3,0.7c2.6-5.9,8.2-8.6,14.3-6.2c2.5,1,4.4,2.6,7,3.5c0.6,0.2,1.4-0.3,1.5-0.9c2.1-8.4,6.9-15.7,16.8-13.1
		c0.3,0.1,0.5,0,0.7-0.2c0.4-0.1,0.7-0.4,0.7-1c0.8-10.9,2.4-19.9,7.3-29.8c0-0.1,0-0.1,0.1-0.2c0.1-0.1,0.2-0.3,0.3-0.4
		c0.2-0.2,0.1-0.5,0-0.6c0.3-0.6-0.3-1.4-1.1-1c-9.2,5.7-20,6.5-29.7,1.5c-0.7-0.3-1.6,0.1-1.6,0.9c0.3,7.6-5.5,13.8-13.3,10.5
		c-0.2-0.1-0.4-0.1-0.5,0c-0.4,0-0.8,0.2-0.7,0.7c0.5,3.9-1.3,8-4.9,9.8c-3.5,1.7-7.1,0.4-10.1-1.6c0,0,0-0.1,0-0.1
		c0.3-0.8-0.9-1.2-1.3-0.5c0,0.1-0.1,0.1-0.1,0.2c-0.2,0.1-0.4,0.4-0.4,0.6c-1.4,2.1-2.9,4-4.8,5.7c-2.2,2-4.6,2.9-7,4.5
		c-0.4,0.3-0.5,0.7-0.4,1.1c-0.4,0-0.8,0-1.1,0C370.4,38.1,370.4,38.2,370.5,38.2z M443.3,8.7c-9.7,9.5-19.7,17.6-32.7,22.7
		c-6.9,2.7-14.1,4.6-21.5,5.5c-3.4,0.4-6.8,0.6-10.2,0.6c-0.9,0-2,0.1-3.2,0.3c3.8-1.9,7.1-5.6,9-9.3c2.8,3.1,7.8,3.9,11.7,2.1
		c4-1.9,6.1-6.1,5.8-10.3c7.7,4.7,14.5-3.6,14.9-11.3C425.7,12.9,435.1,12.9,443.3,8.7z M380.9,39.7c3.5,0,6.9-0.3,10.3-0.8
		c7.6-1.1,14.9-3.1,22-6.1c10.3-4.3,20.8-10.8,28.7-19.3c-3.2,7.1-4.9,15.2-4.2,22.7c-3.9-1-7.9-0.6-11.4,1.8
		c-1.7,1.2-3.1,2.7-4.1,4.5c-1.2,2-1.4,5.7-3.4,5.9c-1.8,0.2-5.4-2.8-7.4-3.2c-1.8-0.4-3.7-0.4-5.5,0c-3.9,0.9-6.6,3.5-8.3,6.9
		C393.9,46.5,387.4,42.5,380.9,39.7z"/>
	<path class="st0" d="M445.9,32.1c0.2-0.1,0.3-0.1,0.5-0.2c0.1,0,0.3,0,0.5-0.1c0.1,0,0.1-0.1,0.2-0.1c0.1,0,0.2-0.1,0.3-0.1
		c0.1,0.3,0.3,0.6,0.8,0.7c7.5,1.5,18.8,2.4,22.1,10.7c0.4,1.1,2.1,0.7,1.8-0.5c0,0,0-0.1,0-0.1c0.1-0.1,0.2-0.1,0.2-0.2
		c5.2-7,15-5.9,17.5,2.8c0.2,0.8,1.4,1.4,2.1,0.9c3.5-2.5,6.1-5.5,10.7-5.9c6.8-0.7,11.6,4.3,13.1,10.5c0.1,0.5,0.5,0.7,0.9,0.7
		c0.4,0.7,1.4,1.1,2.2,0.4c9-8.1,20.3-9.3,31.5-5.7c0.6,0.2,1.1-0.4,1.1-0.9c0.2-0.3,0.3-0.7,0-1c0.3,0,0.5-0.3,0.4-0.5
		c-2.9-4.1-6.7-7.3-9.1-11.8c-3-5.6-4.1-11.6-3.7-17.9c0.1-1.1-1.1-1.5-2-1.1c-9,4.4-28.5,8.6-27.3-7.9c0-0.5-0.3-0.9-0.7-1.1
		c-0.3-0.5-1-0.7-1.5-0.1c-3.9,4.2-9.4,6.7-15.2,5.6c-4.8-0.9-7.8-4.1-10.8-7.6c0,0,0,0,0,0c0.4-1-1.2-1.6-1.7-0.7c0,0,0,0,0,0
		c-0.4,0.2-0.7,0.6-0.6,1.1c-4.4,7-12.1,10.9-19.3,4.8c-0.1-0.1-0.3-0.2-0.4-0.2c-0.4-0.3-1-0.1-1.2,0.3c-0.3,0.3-0.4,0.7-0.1,1.2
		c0.1,0.1,0.1,0.2,0.2,0.2c1,8.7-8,16.6-12.9,22.4c-0.3,0.3-0.3,0.7-0.2,1C445.1,31.5,445.4,32.3,445.9,32.1z M544.6,39
		c-5.4-3-11.4-5.2-16.9-7.3c-8.9-3.3-18.1-5.6-27.5-6.9c-15.7-2.2-33.6-2.6-48.7,3.6c4.9-4.6,9.4-11.9,9.4-18.1
		c2.8,2.1,6.7,2.7,10.1,1.8c4.4-1.1,7.6-4.3,9.6-8.1c5.4,9.5,19,9.7,26.7,2.8c0.1,4.8,3.1,9,7.7,11.2c7.1,3.3,14.8,0.8,21.5-2.3
		C536.4,23.4,539,33,544.6,39z M452.2,30c16.2-4.8,32.8-5.2,49.7-2.3c8.5,1.5,16.9,3.7,25,6.7c5.1,1.9,9.8,4.4,14.6,6.7
		c-8.6-1-17.6,2-24.2,7.8c-1.1-5.3-4.7-9.8-10-11.4c-6.6-1.9-10.6,1.2-15.4,4.6c-3.8-8.7-15.3-10.7-21.1-2.7
		C467.2,33.7,459.1,30.6,452.2,30z"/>
	<path class="st0" d="M548.6,25.2c0.1,0.1,0.1,0.2,0.2,0.3c0,0,0,0,0,0.1c0.8,8.5,7.6,15.1,9.2,23.5c-0.1,0.7,0.4,1.4,1.2,1.2
		c3.5-0.9,6.4-1.3,9.4,1.3c2.2,2,3.4,4.6,5,7c-0.7,1.6,1.6,2.8,2.6,1.3c6.9-10.8,19.8-5.7,28.4-0.5c0.8,0.5,1.9,0,2.2-0.9
		c2.5-8.4,8.6-12.1,16.4-14.6c0.9,0.6,2-0.6,1.5-1.5c-2.6-4.5-4.7-8.5-4.3-14c0.4-5.3,3-9.7,4.5-14.6c0.2-0.7-0.6-1.1-1.1-0.8
		c0,0,0-0.1,0-0.1c0,0,0,0,0.1-0.1c0.7-0.8-0.3-1.8-1.2-1.2c-7.3,5.8-14.5,4.9-22.4,1.2c-0.2-0.1-0.4-0.1-0.7-0.1c0-0.1,0-0.1,0-0.2
		c-0.3-0.9-1.6-0.7-1.6,0.2c0.1,5-1.9,11.2-7.5,12.3c-4.7,0.9-7.6-3-8.9-6.9c-0.2-0.6-0.7-0.9-1.2-0.8c-0.5-0.4-1.3-0.3-1.6,0.4
		c-1.2,3.2-3.8,5.9-7.4,6.1c-3.3,0.2-5.4-1.8-7.7-3.8c-0.2-0.2-0.4-0.2-0.6-0.3c-0.2-0.6-1-0.9-1.5-0.4c-1.6,1.6-3.4,2.9-5.6,3.6
		c-2.1,0.7-4,0.3-6.2,0.5c-0.5,0-0.9,0.4-1,0.9C548.5,24.6,548.4,24.9,548.6,25.2z M620,15.9c-6.3,11.7-16.3,20.8-30,23.3
		c-14.4,2.7-28.3-3-38.6-12.9c0,0,0-0.1,0-0.1c3.8,0.5,8.2-1.6,10.6-4.5c3.3,7.5,13.8,5.6,17.5-0.6c1.3,4.5,6.8,7.6,11.3,6.8
		c5.8-1,9.3-6.7,9.2-12.2C605.4,20.2,614,19.6,620,15.9z M559.8,47.2c-0.9-5.9-4.2-11.3-6.7-16.8c18.3,17.9,50.7,14.4,65.1-6.1
		c-1.7,6.5-1.4,13.6,3.1,18c-7.7,0.4-14,6.6-16.8,13.6c-9.4-5.3-22.4-8.9-29.7,0.7c-1.3-3.3-3.7-6.6-6.7-8.3
		C566,46.9,562.3,46,559.8,47.2z"/>
	<path class="st0" d="M628.6,33.9c0.2,0.3,0.6,0.6,1,0.6c3.7,0.2,6.8-0.1,10.2,1.7c3,1.5,5.3,3.9,7,6.7c0,0.1,0,0.2,0,0.3
		c0.2,0.9,1.6,1.1,2.1,0.3c0.9-1.8,1.5-3.5,3.5-4.2c1.8-0.6,4-0.1,5.6,0.8c3.3,1.9,5,5.5,5.1,9.1c0,0.3,0.1,0.5,0.3,0.7
		c0.2,0.8,1.3,1.4,1.9,0.6c3.2-3.6,6.5-6.2,11.7-4.9c2.3,0.6,4.4,1.8,6.3,3.2c0,0,1.2,0.9,2,1.4c0,0,0,0.1,0,0.2
		c0,0.1,0.1,0.2,0.1,0.2c0.1,0.1,0.2,0.3,0.3,0.3c0.3,0,0.4,0,0.7-0.2c0.3-0.2,0.4-0.5,0.3-0.8c0-0.1-0.1-0.2-0.1-0.4
		c0.3,0,0.6-0.3,0.7-0.7c0.3-6.7,2.4-12.4,6.7-17.6c0.6-0.8,0.3-2.4-0.9-2.3c-4.8,0.5-9.8-1.5-11.3-6.7c-1.2-4.2,0.9-7.3,3.2-10.5
		c0.7-0.9-0.7-2.2-1.6-1.6c-0.4,0.3-0.7,0.6-1.1,0.9c-4.3,2.3-8.8,3.1-13.5,1.4c-4.3-1.6-6.2-4.7-9-8c-0.3-0.3-0.7-0.4-1-0.3
		c-0.4-0.2-0.8-0.1-1.1,0.3c-1.8,3.2-4.1,5.9-7.7,7.1c-3.9,1.3-6.9-0.1-10.6-1.3c-0.9-0.3-1.5,0.5-1.5,1.3c-0.1,0.1-0.1,0.2-0.2,0.3
		c-1,3.8-2.3,7.6-4.1,11.1c-1.7,3.3-4.1,6-5.9,9.1C627.1,33,627.8,33.8,628.6,33.9z M635.3,26.5c2.2-4.2,3.5-9.1,3.9-13.4
		c6.2,4.7,16.1,0.9,19.3-5.8c3.2,7.9,13.7,9.8,21.2,6.8c-3.9,7.2,2,16.7,10.6,17.4c-3,4.4-4.6,9.1-4.8,14.5
		C680.7,27.7,652,17.8,635.3,26.5z M631.8,31.5c0.6-0.7,1.2-1.4,1.7-2.1c8.3-4.6,18.6-4.5,27.7-1.7c10,3.1,15.3,9.1,20.4,16.8
		c-2.3-1.2-5-1.9-6.8-2c-3.5-0.2-7.7,1.2-10,4c-0.6-4.5-3.6-8.5-8.1-9.9c-3.2-1-8,0.2-9.6,3.3C644.1,34.7,637.7,30.7,631.8,31.5z"/>
</g>
</svg>
