<?xml version="1.0" encoding="utf-8"?>
<!-- Generator: Adobe Illustrator 19.0.0, SVG Export Plug-In . SVG Version: 6.00 Build 0)  -->
<svg version="1.1" id="Layer_1" xmlns="http://www.w3.org/2000/svg" xmlns:xlink="http://www.w3.org/1999/xlink" x="0px" y="0px"
	 viewBox="-828.7 386.4 2048 253.6" style="enable-background:new -828.7 386.4 2048 253.6;" xml:space="preserve">
<style type="text/css">
	.st0{fill:#1D1D1B;}
</style>
<g>
	<path class="st0" d="M320.8,474.3c-6.4-22.3-27.5-39.7-51.3-36.8c-29.6,3.5-46.4,34.2-58.6,58.3l0,0c-0.6,0.3-1.2,0.6-1.4,1.2
		c-5.5-4.3-12.8-6.7-19.1-4.1c-13.3-22.6-30.1-48.1-58.6-52.2c-23.8-3.5-47.2,13.9-51.3,37.4c-7.8,42.6,26.1,65.8,61.2,64.9
		c-17.1,21.7-29.6,46.7-38.3,72.8c-1.4,4.1,4.1,6.4,7,4.1c8.7-7.2,17.7-13.6,27.5-19.1c5.2,12.8,11,25.2,17.1,37.4
		c1.4,3.2,6.7,2.3,7.5-0.9c7.8-34.2,18-65.8,33.3-97.1c18.3,30.1,30.1,62.3,39.7,95.9c1.2,3.8,7.5,4.3,8.4,0
		c1.4-6.7,2.3-28.4,7-33.3c7.2-7.8,23.5,3.8,31.3,7c2.9,1.2,6.4-2.3,5.2-5.2c-9.3-24.6-23.8-46.1-43.5-63.2
		c17.7,4.1,36.5,3.5,52.5-3.8C320.5,527,327.5,498,320.8,474.3z M246.3,458.3c12.2-11,27.5-13.9,40.3-9.9
		c-7.8,34.5-36.5,38-64.9,44.3C228.3,480.4,235.9,467.9,246.3,458.3z M198.2,500.4c5.5,0.3,10.1,3.8,11.6,10.7
		c1.7,8.7-5.5,19.4-15.1,18c-8.4-1.4-13-11.6-9.9-19.1C187.2,504.4,192.7,501.5,198.2,500.4z M146.3,454.9
		c17.4,9.3,27.8,27,37.4,43.5c-30.7,1.4-59.7-16.8-67-47.2C126.6,448.8,137,449.9,146.3,454.9z M119.6,532.2
		c-21.2-7.2-34.8-32.5-29.6-54.5c2.9-11.6,10.1-20,19.4-24.3c-0.6,14.5,13,29.9,23.5,37.7c13.3,10.1,29.6,15.1,46.1,13.6
		c-1.2,2-2.3,4.3-2.6,7c-0.9,4.9,0.3,10.1,2.9,14.5c-9,3.8-18.3,6.7-27.8,8.1c-0.9-0.3-1.7,0-2.3,0.3
		C139.1,536.3,129.2,535.7,119.6,532.2z M157.3,623.8c-4.6-9.9-9.3-19.7-13.3-29.9c-0.9-2.6-3.5-3.8-6.1-2.3
		c-7.5,4.1-14.8,8.7-21.7,13.6c9-22.9,21.4-43.5,36.8-63.2c10.1-1.7,20-5.8,28.7-11.9c2.6,2.9,6.1,5.2,10.1,6.1
		C172.7,561.2,164.6,593.4,157.3,623.8z M228.9,539.5c20.3,15.7,35.9,34.5,46.4,57.4c-8.4-4.1-17.1-8.1-25.5-8.7
		c-1.4,0-3.2,0.9-3.8,2c-3.8,7.5-5.5,16.8-7,25.8c-9-28.4-20-56.2-38.8-79.7c5.2-1.2,9.6-4.1,12.5-8.1c4.3,2.9,9.3,5.2,14.5,7.5
		C226.9,537.2,227.5,538.6,228.9,539.5z M280.8,532.8c-22.3,4.3-44.6-0.9-65.2-9.3c2.3-5.2,2.9-11.6,0.9-17.4
		c-0.3-0.9-0.6-1.4-0.9-2.3c0.6-0.3,0.9-0.9,1.4-1.4c0.3-0.6,0.6-1.2,0.9-1.7c30.7,3.5,75.1-15.7,76.8-49
		c8.4,4.9,15.1,13.3,18.3,24.6C319.6,502.4,308.1,527.6,280.8,532.8z"/>
	<path class="st0" d="M99.9,550.8c-73.6,27.2-168.7,48.4-242.3,8.7c-36.2-19.4-67-75.1-25.8-107c18.3-14.2,44.3-9.6,60,6.7
		c8.4,8.7,13.6,21.2,12.8,33c-0.9,11.6-7.5,24.1-18.8,28.1c-14.2,5.2-30.7-4.6-31.6-20.6c-0.3-5.2-7.8-5.2-8.4,0
		c-2.9,40.9,52.8,40,65.2,7c13.6-36.8-21.7-74.5-58.8-71.6c-34.8,2.9-51.9,38.3-47.2,69.9c-31.6-44.3-85.5-76.2-136.2-89.3
		c-54.8-13.9-131.3-9.3-156.2,51.3c-0.3,0.9-0.6,1.7-1.2,2.9c-0.3,0.3-0.3,0.6-0.6,0.9c0,0.3,0,0.6-0.3,0.9c-1.4,4.3-2.6,8.7-3.5,13
		c-13.9,41.7-62.3,75.1-107.8,66.4c-28.7-5.2-58.8-37.1-42.3-67.5c10.1-18.8,35.9-26.4,50.4-7c4.1,5.5,4.3,18,0.9,23.8
		c-7,11-19.4,10.4-29.6,6.7c-3.8-1.4-5.5,4.1-2.6,6.1c27.8,21.2,55.9-20.6,35.9-44.9c-24.3-29.3-65.8-2.3-67.8,29.6v0.3
		c-13.6,30.7-53.9,42.9-81.2,20c-14.8-12.5-23.5-37.7-6.4-52.8c7.8-7,23.2-10.1,33-4.9c6.4,4.3,8.1,12.2,4.9,19.1
		c-3.2,7-9.9,11.6-16.5,15.4c-0.9-0.6-1.7-1.2-2.6-1.7c-2.6-1.7-6.4,1.7-4.3,4.3c17.1,23.2,47.2-2.6,38-26.4
		c-10.4-26.7-48.4-27.2-63.8-5.2c-19.4,28.1,6.1,62.6,34.8,70.4c23.5,6.4,52.5-3.5,64.9-24.1c7.2,37.4,52.2,54.8,87.8,46.7
		c27.2-6.1,60-24.1,75.1-49.9c5.5,41.4,40.9,77.1,86.4,75.1c57.7-2.3,85.2-78,33.3-110.7c-22-13.9-57.4-13-66.4,15.7
		c-8.1,26.4,15.1,47.5,40.3,43.5c4.9-0.9,3.8-9.3-1.2-8.7c-27.8,2.9-44.3-31.9-17.4-46.7c17.4-9.6,39.4,0,51.3,14.2
		c24.3,28.4,8.4,72.2-27,81.4c-72.5,19.1-119.7-76.2-69.9-127.2c38.6-39.4,105.2-32.5,152.5-15.7c53.6,19.1,90.4,55.1,124.3,99.1
		c20.9,36.8,65.8,51,105.8,56.2c60.9,7.8,128.1-0.6,182-31C103.7,553.4,102.3,549.9,99.9,550.8z"/>
	<path class="st0" d="M78.2,536.9c-27,12.2-82.3,32.5-105.8,3.8c-12.2-14.8-9.9-38.6,7.5-48.4c7.2-4.1,16.8-5.5,24.9-3.5
		c4.6,1.2,8.4,2.9,11.9,5.8c2.9,3.8,4.3,7.8,4.6,11.6c-0.3,0.3-0.3,0.9-0.3,1.4c0,0.9,0,1.4,0.3,2.3c-0.9,7.2-5.8,13.3-13,17.1
		c-2,0-4.1,0-6.4,0c-3.5-2-7.5,2.9-4.3,5.8c19.4,17.7,43.2-6.7,35.7-28.4c-8.7-25.2-42.6-30.4-62-15.4
		c-20.6,15.9-18.3,49.6,2.6,64.3c29.6,20.9,79.7,5.2,106.7-12.5C82.5,539.2,80.5,536,78.2,536.9z"/>
	<path class="st0" d="M-494.8,412.8c0-1.2-0.9-2-1.7-2.6c-2.3-8.1-18.3-6.7-21.4,6.7c-4.1,17.4-0.9,35.1-7.5,52.8
		c-7.5,21.2-20.6,38.3-37.7,53c-0.3,0.3-0.6,0.9-0.6,1.2l0,0c-2.6,1.7-0.3,5.5,2.6,4.3C-518,507.9-491.9,460.1-494.8,412.8z
		 M-523.8,484.4c0.6,0.3,0.9,0.3,1.4,0.3c-2,2.9-4.1,5.8-6.4,8.7C-527,490.5-525.3,487.6-523.8,484.4z"/>
	<path class="st0" d="M-545.9,428.2c-2.3-11.6-8.1-34.2-24.1-33.3c-10.7,0.6-13.9,10.4-11,19.4c3.5,10.4,12.2,18.6,15.9,29.3
		c4.9,13.6,4.9,27.2,3.8,41.4c-0.3,2.6,3.8,3.5,4.9,1.4c0.6,0.6,2,0.9,2.6-0.3C-545,467.6-542.1,448.2-545.9,428.2z M-553.4,473.7
		c2.6-12.8,3.5-25.5,2.6-38.3C-548.8,448.2-549.9,460.9-553.4,473.7z"/>
	<path class="st0" d="M-206.4,465c-0.3-0.3-0.9-0.6-1.2-0.9c0.6-0.9,0.6-2-0.3-2.9c-19.4-20.6-38.8-45.5-61.2-62.9
		c-6.1-4.6-16.8-9.3-21.4,0c-5.2,10.1,8.4,22.9,14.8,28.1c20.3,16.2,44.9,29,67.2,42C-206.2,469.1-204.4,466.2-206.4,465z
		 M-247.9,426.2c-2-1.7-4.1-3.5-6.1-5.2l0,0c-0.3-0.6-0.3-1.2-0.6-2C-252.5,421.2-250.2,423.5-247.9,426.2z M-269.3,412.8
		c2.6,3.5,5.2,7,8.1,10.7c-0.6-0.3-1.2-0.6-1.7-0.9c0-0.9,0-1.7-0.6-2.3c-3.5-3.5-6.7-7.5-10.1-11c0-0.3-0.3-0.6-0.3-0.9
		C-272.5,409.9-270.8,411.4-269.3,412.8z M-279.5,416c1.7,2,4.1,3.5,6.1,5.2c0.9,1.2,2,2,2.9,2.9c0,0.3,0,0.3,0,0.6
		C-274,422.1-277.2,419.2-279.5,416z"/>
	<path class="st0" d="M-199.5,456c-0.6-0.9-1.4-1.4-2-2.3c0.3-0.6,0.3-0.9,0-1.4c-4.9-17.7,2.6-37.7-5.2-55.1
		c-2.9-6.7-10.4-13.9-18-9c-8.7,5.8-4.3,21.7-2.3,29.6c4.3,15.7,13,29.6,24.9,40.6C-200.4,459.8-198.3,457.5-199.5,456z
		 M-210.8,440.7c1.2-0.3,2.3-1.2,2.3-2.9c0-2.9,0-5.8-0.3-8.4l0.3-0.3c-0.3,5.5,0,10.7,0.6,15.9C-209,443.8-209.9,442.1-210.8,440.7
		z"/>
	<path class="st0" d="M-230.8,540.1c-37.4-57.1-99.4-118.3-174.5-105.8c-27.2,4.6-54.2,23.5-60.3,51.6c-5.2,23.8,6.7,48.4,29.6,56.8
		c0.6,0.3,1.2-0.9,0.6-1.2c-30.1-16.5-33.3-55.1-10.4-79.1c22.6-23.8,57.4-25.8,87.5-18.3c56.5,14.2,88.4,56.8,122.9,99.7
		C-233.4,546.4-229,543-230.8,540.1z"/>
	<path class="st0" d="M-355.4,458.6c-1.4-0.3-2.3,2-0.6,2.3c44.9,15.4,52.2,60.9,62.3,100.9c0.9,2.9,5.8,2.3,5.5-0.9
		C-293.1,519.5-309.9,469.6-355.4,458.6z"/>
	<path class="st0" d="M-334.8,499.2c-0.6-1.2-2.6-0.3-2.3,0.9c8.7,24.9,6.7,46.7-4.3,70.4c-1.4,3.2,2.6,5.8,4.6,2.9
		C-321.8,552-322.1,521.5-334.8,499.2z"/>
	<path class="st0" d="M-745.3,530.8c-14.2-30.4-49.3-44.6-80.6-51.3c-2.9-0.6-4.1,3.5-1.2,4.3c30.4,11.6,60.6,19.1,79.4,48.4
		C-746.7,534-744.4,532.5-745.3,530.8z"/>
	<path class="st0" d="M-767.9,525.6c-13.6-7.2-30.1-9.9-45.2-6.1c-2.3,0.6-2,4.6,0.6,4.3c15.4-1.7,28.7-0.6,43.2,4.6
		C-767.3,529.1-766.2,526.4-767.9,525.6z"/>
	<path class="st0" d="M-680.6,508.2v-0.3c-0.6-2-1.7-3.5-2.9-5.2c-1.2-1.4-3.2-0.9-4.3,0c-2.3,2-3.5,4.6-3.2,7.8
		c0,1.4,0.9,2.6,2.3,3.2c0.6,0.3,1.2,0.3,1.7,0.3c1.2,0.6,2.6,0.6,3.8,0c2-0.9,2.9-2.6,2.9-4.6
		C-680.4,509.1-680.4,508.5-680.6,508.2z"/>
	<path class="st0" d="M-660.4,467.9c-1.7-1.2-4.1-0.9-5.8,0.3c-0.6,0.3-1.2,0.9-1.7,1.4c-1.4-0.3-3.2,0.3-3.8,1.7
		c-1.2,3.8,1.2,7.8,4.9,8.7c4.1,0.9,7.8-2.3,8.4-6.4C-658,471.7-658.6,469.1-660.4,467.9z"/>
	<path class="st0" d="M-610.2,436.9c-1.2-4.6-7-6.1-10.1-2.9c-0.6,0.6-0.9,0.9-1.2,1.4c-1.7-0.6-3.8,0.3-3.5,2.3
		c0.3,4.6,4.1,8.7,8.7,8.1C-611.9,445.9-609.3,441.2-610.2,436.9z"/>
	<path class="st0" d="M-46.4,558.3c-3.5-2.3-9.6-1.4-9.9,3.5c0,0.3,0,0.6,0,0.9c-0.3,1.2-0.3,2.6,0.6,3.8c1.7,3.2,6.7,3.8,9.6,1.7
		C-42.4,565.9-42.7,560.7-46.4,558.3z"/>
	<path class="st0" d="M-67.6,520.7c-2.6,0.9-5.5,4.1-4.1,7c0,1.4,0.3,3.2,1.4,4.3c3.5,4.1,11,2,12.5-2.9
		C-56,523-62.4,518.9-67.6,520.7z"/>
	<path class="st0" d="M-29.3,463.8c-0.6-2-2.3-4.3-4.6-4.3c-1.2,0-2,0.3-2.9,0.9c-0.3,0-0.3,0-0.6,0c-3.5,0.6-5.2,3.8-4.9,7.2
		c0.3,4.1,4.1,6.7,8.1,5.5C-30.8,472-28.5,467.6-29.3,463.8z"/>
	<path class="st0" d="M29.2,461.8c-0.6,0.3-1.2,0.9-1.7,1.4c-2.6,1.2-3.5,3.8-2.9,6.4c1.4,5.8,10.1,7.5,13.3,2
		C40.8,466.4,35.3,458.6,29.2,461.8z"/>
	<path class="st0" d="M61.7,512.2c-0.3-4.1-3.5-7-7.2-7.2c-1.7,0-3.5,1.4-4.1,2.9c0,0.3,0,0.3,0,0.6c-1.4,1.4-2.3,3.2-2,5.5
		c0.6,3.2,3.8,4.9,6.7,5.2c1.4,0.6,2.6,0,3.8-1.2C60.5,516.9,62,514.9,61.7,512.2z"/>
	<path class="st0" d="M289.2,554.6c53.9,30.1,121.2,38.6,182,31c40-5.2,84.9-19.4,105.8-56.2c33.6-43.8,70.4-80,124.3-99.1
		c47.2-16.8,113.9-23.8,152.5,15.7c49.9,51,2.6,146.4-69.9,127.2c-35.1-9.3-51.3-53-27-81.4c12.2-14.2,33.9-23.5,51.3-14.2
		c27.2,14.8,10.7,49.6-17.4,46.7c-4.9-0.6-6.1,7.8-1.2,8.7c25.2,3.8,48.7-17.4,40.3-43.5c-9-28.7-44.3-29.6-66.4-15.7
		c-51.9,32.8-24.6,108.4,33.3,110.7c45.5,1.7,81.2-33.9,86.4-75.1c15.1,25.8,47.5,43.8,75.1,49.9c35.4,8.1,80.6-9.3,87.8-46.7
		c12.5,20.6,41.2,30.4,64.9,24.1c28.7-7.8,54.2-42.3,34.8-70.4c-15.4-22-53.3-21.4-63.8,5.2c-9.3,23.8,21.2,49.6,38,26.4
		c2-2.6-1.7-6.1-4.3-4.3c-0.9,0.6-1.7,1.2-2.6,1.7c-6.7-3.8-13.3-8.4-16.5-15.4c-3.2-7-1.4-14.8,4.9-19.1c10.1-5.2,25.2-2,33,4.9
		c17.1,14.8,8.4,40-6.4,52.8c-27.2,23.2-67.5,11-80.9-19.7v-0.3c-2-31.9-43.5-58.8-67.8-29.6c-20.3,24.3,7.8,66.1,35.9,44.9
		c2.9-2,1.2-7.5-2.6-6.1c-10.1,3.8-22.6,4.6-29.6-6.7c-3.8-5.8-3.5-18.3,0.9-23.8c14.5-19.4,40.3-11.9,50.4,7
		c15.9,29.9-14.5,61.7-43.2,67c-45.5,8.7-93.9-24.6-108.4-67c-0.9-4.3-1.7-8.7-3.5-13c0-0.3,0-0.6,0-0.9s-0.3-0.6-0.6-0.9
		c-0.3-0.9-0.6-1.7-1.2-2.9c-24.9-60.6-101.4-65.2-156.2-51.3c-50.7,13-104.3,44.9-136.2,89.3c4.6-31.3-12.5-66.7-47.2-69.9
		c-36.8-3.2-72.5,34.5-58.8,71.6c12.5,33.3,67.8,33.9,65.2-7c-0.3-5.2-8.1-5.2-8.4,0c-0.9,16.2-17.1,25.8-31.6,20.6
		c-11.3-4.1-18-16.5-18.8-28.1c-0.9-12.2,4.6-24.6,12.8-33c15.7-16.2,41.7-20.6,60-6.7c41.2,31.9,10.4,87.2-25.8,107
		c-73.6,39.7-168.7,18.6-242.3-8.7C288.3,549.9,286.9,553.4,289.2,554.6z"/>
	<path class="st0" d="M310.4,540.7c27,17.7,77.1,33.3,106.7,12.5c20.9-14.8,22.9-48.4,2.6-64.3c-19.7-15.4-53.3-9.9-62,15.4
		c-7.5,21.7,16.2,46.1,35.7,28.4c3.2-2.9-0.9-7.5-4.3-5.8c-2.3,0-4.3,0-6.4,0c-7-3.8-12.2-9.9-13-17.1c0-0.9,0-1.4,0.3-2.3
		c0-0.6,0-1.2-0.3-1.4c0.3-3.8,1.7-7.8,4.6-11.6c3.5-2.9,7.2-4.6,11.9-5.8c8.4-2,17.7-0.6,24.9,3.5c17.1,9.9,19.4,33.9,7.5,48.4
		c-23.5,28.4-78.8,8.1-105.8-3.8C310.1,536,308.1,539.2,310.4,540.7z"/>
	<path class="st0" d="M952.1,528.2c2.9,1.4,5.2-2.6,2.6-4.3l0,0c0-0.6-0.3-0.9-0.6-1.2c-17.1-14.5-30.1-31.6-38-52.8
		c-6.4-17.7-3.5-35.4-7.5-52.8c-3.2-13.3-19.1-14.8-21.4-6.7c-0.9,0.6-1.4,1.4-1.7,2.6C882.8,460.1,908.9,507.9,952.1,528.2z
		 M919.4,493.4c-2.3-2.9-4.3-5.5-6.4-8.7c0.6,0,0.9,0,1.4-0.3C916.2,487.6,917.6,490.5,919.4,493.4z"/>
	<path class="st0" d="M944.6,485.9c0.6,1.2,1.7,0.9,2.6,0.3c1.2,2,4.9,1.2,4.9-1.4c-1.2-14.2-1.2-27.8,3.8-41.4
		c3.8-10.7,12.5-18.8,15.9-29.3c2.9-9-0.3-18.8-11-19.4c-15.9-0.9-21.7,21.7-24.1,33.3C932.7,448.2,935.6,467.6,944.6,485.9z
		 M941.4,435.1c-0.9,13,0,25.5,2.6,38.3C940.8,460.9,939.6,448.2,941.4,435.1z"/>
	<path class="st0" d="M599.1,467.9c22.6-12.8,47-25.8,67.2-42c6.4-5.2,20-18,14.8-28.1c-4.6-9.3-15.4-4.6-21.4,0
		c-22.3,17.4-41.7,42.3-61.2,62.9c-0.9,0.9-0.9,2-0.3,2.9c-0.3,0.3-0.9,0.6-1.2,0.9C595.3,466.2,597,469.1,599.1,467.9z
		 M645.7,418.9c-0.3,0.6-0.6,1.2-0.6,2l0,0c-2,1.7-4.3,3.5-6.1,5.2C641.1,423.5,643.4,421.2,645.7,418.9z M664.9,408.5
		c0,0.3-0.3,0.6-0.3,0.9c-3.5,3.5-6.7,7.5-10.1,11c-0.6,0.6-0.9,1.4-0.6,2.3c-0.6,0.3-1.2,0.6-1.7,0.9c2.6-3.5,5.2-7,8.1-10.7
		C661.7,411.4,663.1,409.9,664.9,408.5z M661.1,424.7c0-0.3,0-0.3,0-0.6c1.2-0.9,2-2,2.9-2.9c2.3-1.4,4.3-3.2,6.1-5.2
		C668.1,419.2,664.6,422.1,661.1,424.7z"/>
	<path class="st0" d="M592.7,458.3c11.9-11.3,20.3-24.9,24.9-40.6c2.3-7.8,6.7-23.5-2.3-29.6c-7.5-5.2-15.1,2.3-18,9
		c-7.5,17.1,0,37.1-5.2,55.1c-0.3,0.6,0,1.2,0,1.4c-0.6,0.9-1.2,1.4-2,2.3C588.9,457.5,591.2,459.8,592.7,458.3z M598.8,445.3
		c0.6-5.2,0.9-10.4,0.6-15.9l0.3,0.3c-0.3,2.9-0.3,5.5-0.3,8.4c0,1.7,1.2,2.6,2.3,2.9C600.5,442.1,599.6,443.8,598.8,445.3z"/>
	<path class="st0" d="M621.7,540.1c37.4-57.1,99.4-118.3,174.5-105.8c27.2,4.6,54.2,23.5,60.3,51.6c5.2,23.8-6.7,48.4-29.6,56.8
		c-0.6,0.3-1.2-0.9-0.6-1.2c30.1-16.5,33.3-55.1,10.4-79.1c-22.6-23.8-57.4-25.8-87.5-18.3c-56.5,13.9-88.1,56.8-122.9,99.7
		C624,546.4,619.6,543,621.7,540.1z"/>
	<path class="st0" d="M746,458.6c1.4-0.3,2.3,2,0.6,2.3c-44.9,15.4-52.2,60.9-62.3,100.9c-0.9,2.9-5.8,2.3-5.5-0.9
		C683.7,519.5,700.8,469.6,746,458.6z"/>
	<path class="st0" d="M725.7,499.2c0.6-1.2,2.6-0.3,2.3,0.9c-8.7,24.9-6.7,46.7,4.3,70.4c1.4,3.2-2.6,5.8-4.6,2.9
		C712.7,552,712.7,521.5,725.7,499.2z"/>
	<path class="st0" d="M1135.9,530.8c14.5-30.7,49.6-44.6,80.6-51.3c2.9-0.6,4.1,3.5,1.2,4.3c-30.4,11.6-60.6,19.1-79.4,48.4
		C1137.6,534,1135.3,532.5,1135.9,530.8z"/>
	<path class="st0" d="M1158.5,525.6c13.6-7.2,30.1-9.9,45.2-6.1c2.3,0.6,2,4.6-0.6,4.3c-15.4-1.7-28.7-0.6-43.2,4.6
		C1158.2,529.1,1157,526.4,1158.5,525.6z"/>
	<path class="st0" d="M1071.2,508.2v-0.3c0.6-2,1.7-3.5,2.9-5.2c1.2-1.4,3.2-0.9,4.3,0c2.3,2,3.5,4.6,3.2,7.8c0,1.4-0.9,2.6-2.3,3.2
		c-0.6,0.3-1.2,0.3-1.7,0.3c-1.2,0.6-2.6,0.6-3.8,0c-2-0.9-2.9-2.6-2.9-4.6C1071.2,509.1,1071.2,508.5,1071.2,508.2z"/>
	<path class="st0" d="M1051.2,467.9c1.7-1.2,4.1-0.9,5.8,0.3c0.6,0.3,1.2,0.9,1.7,1.4c1.4-0.3,3.2,0.3,3.8,1.7
		c1.2,3.8-1.2,7.8-4.9,8.7c-4.1,0.9-7.8-2.3-8.4-6.4C1048.6,471.7,1049.2,469.1,1051.2,467.9z"/>
	<path class="st0" d="M1007.2,446.2c4.9,0.6,8.4-3.8,8.7-8.1c0.3-2-2-2.9-3.5-2.3c-0.3-0.6-0.6-1.2-1.2-1.4c-3.5-3.2-9-1.7-10.1,2.9
		C999.9,441.2,1002.8,445.9,1007.2,446.2z"/>
	<path class="st0" d="M437,558.3c3.5-2.3,9.6-1.4,9.9,3.5c0,0.3,0,0.6,0,0.9c0.3,1.2,0.3,2.6-0.6,3.8c-1.7,3.2-6.7,3.8-9.6,1.7
		C433,565.9,433.6,560.7,437,558.3z"/>
	<path class="st0" d="M458.2,520.7c2.6,0.9,5.5,4.1,4.1,7c0,1.4-0.3,3.2-1.4,4.3c-3.5,4.1-11,2-12.5-2.9
		C446.6,523,453.3,518.9,458.2,520.7z"/>
	<path class="st0" d="M419.9,463.8c0.6-2,2.3-4.3,4.6-4.3c1.2,0,2,0.3,2.9,0.9c0.3,0,0.3,0,0.6,0c3.5,0.6,5.2,3.8,4.9,7.2
		c-0.3,4.1-4.1,6.7-8.1,5.5C421.4,472,419.1,467.6,419.9,463.8z"/>
	<path class="st0" d="M353,471.7c2.9,5.5,11.6,4.1,13.3-2c0.6-2.6-0.3-5.2-2.9-6.4c-0.6-0.6-1.2-1.2-1.7-1.4
		C355.3,458.6,350.1,466.4,353,471.7z"/>
	<path class="st0" d="M328.9,512.2c0.3-4.1,3.5-7,7.2-7.2c1.7,0,3.5,1.4,4.1,2.9c0,0.3,0,0.3,0,0.6c1.4,1.4,2.3,3.2,2,5.5
		c-0.6,3.2-3.8,4.9-6.7,5.2c-1.4,0.6-2.6,0-3.8-1.2C330.1,516.9,328.9,514.9,328.9,512.2z"/>
</g>
</svg>
