<?xml version="1.0" encoding="utf-8"?>
<!-- Generator: Adobe Illustrator 19.0.0, SVG Export Plug-In . SVG Version: 6.00 Build 0)  -->
<svg version="1.1" id="Layer_1" xmlns="http://www.w3.org/2000/svg" xmlns:xlink="http://www.w3.org/1999/xlink" x="0px" y="0px"
	 viewBox="-900.5 411 2048 204.7" style="enable-background:new -900.5 411 2048 204.7;" xml:space="preserve">
<style type="text/css">
	.st0{fill:#1D1D1B;}
</style>
<g>
	<path class="st0" d="M176.3,517c-11.9,0-23.5,1-35.5,2.3c-4.5-9-9-18.4-13.5-27.4c-1.9-4.2-7.4-2.3-8.7,1.3
		c-3.9,10-7.7,19.7-11.6,29.7c-0.3,0-0.6,0-1,0c-12.6-3.2-28.4-1-41-0.6c-4.5,0-6.1,6.1-2.3,8.4c10.3,6.4,21.3,11.9,32.6,16.8
		c-6.4,12.3-9.7,25.5-11,39.3c-0.3,3.9,4.2,4.5,6.4,2.6c6.1-4.8,12.3-10,18.1-14.8c4.8-4.2,10.3-7.7,14.8-12.6
		c3.5,3.9,8.7,7.1,12.9,10c8.1,5.5,16.4,9.7,25.2,13.2c1.3,0.3,2.9,0,3.5-1c4.5-4.8,2.9-10.3-0.3-15.5c-1.3-2.6-2.9-5.2-4.5-7.7
		c-3.2-6.4-6.1-12.6-9.4-19c8.7-5.5,17.7-10.3,27.1-15.2C183.7,524.1,181.1,517,176.3,517z"/>
	<path class="st0" d="M58.6,548.9c-9.4,40-56.8,54.5-93.2,56.1c-34.8,1.9-71.6-12.6-89-44.8c-18.4-33.9,0-90.9,46.8-80.3
		c20,4.5,33.9,27.1,32.2,47.4c-2.6,30.3-38,41-51.9,10.6c-1.6-3.5-6.8-1.6-6.8,1.9c0,19.3,20.3,31.3,38,27.1
		c20.6-4.8,31.6-26.4,30.3-46.4c-3.2-48.4-63.2-70-93.8-30c-14.8,19.3-16.1,41.6-8.7,61.3c-13.5-14.2-29-27.1-45.5-38
		c3.5-2.3,2.6-7.7-1.6-9c-4.2-1.6-8.4-3.2-12.3-4.8c1-8.4,1.6-16.4,1.9-24.8c0-3.9-5.2-6.1-7.7-3.2c-5.2,5.5-10,11.3-15.2,16.8
		c-2.9-1.6-5.8-3.5-8.4-5.5c-2.9-2.3-6.1,0-7.1,2.6c-2.9-1.3-6.1-2.9-9-3.9c-48.4-20.3-116.1-37.1-161.9-2.3
		c-16.1,12.3-27.1,29.3-30.6,47.7c-0.6,0.3-1.3,1-1.6,1.6c-1.9,38-44.2,62.6-80,52.9c-16.4-4.5-29.7-17.7-30.3-35.1
		c-0.3-12.3,6.4-23.5,18.4-28.1c24.5-9,43.5,45.1,7.7,39c-3.5-0.6-6.8,4.8-2.9,6.4c25.5,11.9,47.4-18.7,30.6-40.6
		c-18.4-24.5-56.4-15.5-63.2,13.5c-2.3,9-1.9,16.8,0.3,23.5c-31-37.1-74.2-65.8-118-84.5c1.9-0.6,3.5-1.6,5.5-2.3
		c4.2-1.6,2.9-8.7-1.3-9.7c-5.2-1-10.6-1.9-15.8-3.2c-0.6-6.4-1.3-12.9-2.6-19.3c-0.6-4.5-6.4-3.9-8.7-1c-3.5,4.8-7.1,9.4-10.3,14.2
		c-7.1-2.3-14.2-4.8-21.3-7.7c-5.5-2.3-8.1,5.2-5.2,8.7c0.3,0.3,0.6,0.6,1,1c-35.8-8.1-73.2-9.4-106.4,3.9
		c-40.6,16.8-75.1,64.5-56.4,109.6c15.5,37.7,64.5,58,99.6,33.2c40.6-28.4,17.7-99.3-34.2-82.9c-5.5,1.6-3.2,10.3,2.3,8.7
		c44.8-13.2,58.4,50.6,20.6,69.6c-27.1,13.9-60,0.3-74.8-24.8c-33.5-56.8,32.2-107.1,83.2-112.2c26.1-2.6,51.3-0.3,75.8,5.8
		c1.6,1.9,3.2,3.9,4.8,5.8c-0.3,0.3-0.3,0.6-0.6,1c-2.9,4.8-9,11.9-8.4,18.1c-0.3,0.3-0.6,0.3-1.3,0.6c-5.8,3.5-0.6,12.6,5.2,9
		c6.4-3.9,12.9-7.4,19.3-11c3.9,4.5,7.4,9,11.3,13.5c2.9,3.5,8.7,0.6,9-3.5c0-6.8,0-13.2-0.3-20h0.3c51.9,21.6,98.7,58.7,137,98.3
		c1,1.3,2.9,0.3,3.5-0.6c29,23.5,93.5,15.8,108-22.9c2.6,12.3,9,23.9,19.7,33.2c33.5,30.3,102.5,43.5,122.9-9.4
		c17.4-45.1-37.7-90.3-73.8-52.2c-4.5,4.8,2.6,11.6,7.1,7.1c29.7-28.1,69.6,5.8,56.8,41.3c-13.5,36.8-58.4,33.5-86.7,18.4
		c-27.1-14.5-44.2-39.7-34.5-70.6c8.1-25.5,30.6-43.2,55.8-50c45.1-11.9,97.1,3.9,138.3,23.9c0.3,1,1,1.6,1.3,2.6
		c-0.6,0.6-1,1.3-1.6,1.9c-3.2,3.5-10.6,8.7-10,14.5c-1,1-2.3,1.6-3.2,2.6c-4.5,3.2-2.3,11,3.9,9.4c7.4-1.9,15.2-3.9,22.6-5.8
		c1.9,3.9,3.9,7.4,5.5,11.3c1.9,3.5,8.1,2.9,9-1.3c1-4.8,1.9-9.7,2.6-14.5c1.3-0.3,2.9-0.6,4.2-1c25.2,17.1,46.8,37.4,69,59
		c-0.3,0.6-0.3,1.3,0,1.9c0.6,1.6,1.3,2.3,2.9,2.9c1,0.3,1.6,0.3,2.3,0c1.6,1.6,3.2,3.2,4.8,4.8c0.6,0.6,1.3,0.6,1.9,0.3
		c9.7,9.4,21.3,17.1,33.5,21.6c48.4,18.1,135.1,1.6,145.1-57.7C65,546.7,59.5,545,58.6,548.9z"/>
	<path class="st0" d="M-755.6,477c-3.5-1.3-6.8-2.3-10.3-3.5c0-2.3,0-4.5,0-6.8c0-3.9-4.8-5.8-7.7-3.2c-1.9,1.6-3.9,3.5-5.5,5.5
		c-2.3-0.6-4.5-1.6-6.8-2.3c-2.6-1-6.1,1.9-4.8,4.8c1,2.6,2.3,5.2,3.5,7.7c-1.9,2.9-3.9,6.1-5.5,9.4c-1.9,3.9,1.9,8.4,6.1,6.1
		c2.3-1,4.2-1.9,6.4-2.9c1,1.6,2.3,2.9,3.2,4.5c0,1,0,1.9,0,2.9c0,4.8,7.4,6.1,8.4,1.3c1-4.2,1.3-8.7,1.6-12.9
		c3.5-1,7.1-1.6,10.6-2.3C-751.1,484.4-751.7,478.3-755.6,477z"/>
	<path class="st0" d="M-605,466c-2.9-1.9-6.1-4.2-9-6.1c0.3-1.6,0.6-3.2,1-5.2c0.6-3.2-3.2-7.4-6.4-4.8c-1.6,1-2.9,2.3-4.5,3.2
		c-2.6-1.6-5.2-3.5-7.7-5.2c-2.3-1.6-6.1,0.3-5.8,3.5c0.3,3.5,0.6,7.1,1.3,10.6l-8.7,6.1c-3.2,2.3-2.6,8.7,2.3,8.4
		c2.6-0.3,5.5-0.3,8.1-0.6c0.3,1.6,0.3,3.2,0.6,4.8c0.3,1.9,1.6,2.9,3.2,2.6c0,0.6,0,1,0,1.6c0.3,5.2,6.8,5.8,8.7,1.3
		c1.6-3.9,2.9-7.7,4.2-11.6c3.5-0.3,7.4-0.6,11-0.6C-602.8,473.5-601.5,468.3-605,466z"/>
	<path class="st0" d="M-228.4,455.1c-1.6-2.6-3.5-4.8-5.2-7.4c1.6-2.6,3.5-5.5,5.2-8.1c2.3-3.9-2.3-8.4-6.1-6.1
		c-2.3,1.3-4.5,2.6-6.8,3.9c-2.3-2.9-4.8-5.8-7.1-8.7c-1.9-2.3-5.2-1-6.4,1.3c-1,0.6-1.6,1.9-1.6,3.5c0,3.9,0,7.7,0,11.6
		c-3.2,1.6-6.8,2.9-10,4.2c-4.5,1.6-4.2,8.7,1.3,8.7c2.9,0,5.8,0,8.7,0.3c0,2.9,0,5.8,0,9c0,4.8,5.8,5.8,8.4,2.3
		c2.3-3.2,4.5-6.4,6.8-9.7c2.9,0.3,5.5,1,8.4,1.3C-230,462.2-226.1,458.3-228.4,455.1z"/>
	<path class="st0" d="M13.4,574.7c-2.6-1.6-5.2-3.5-7.4-5.5c1.3-2.3,2.6-4.8,4.2-7.1c1.9-3.5-2.3-8.4-5.8-5.8
		c-2.6,1.9-4.8,3.5-7.4,5.2c-2.3-1.9-4.2-4.2-6.4-6.4s-6.1-0.3-6.1,2.6c0,3.5-0.3,7.4,0,11.3c-2.6,1.3-4.8,2.6-7.4,3.9
		c-3.5,1.6-1.9,8.4,2.3,7.7c2.3-0.3,4.5-0.3,6.8-0.3c0.3,1.9,1,3.9,1.9,5.8c0,0.3,0,0.3-0.3,0.6c-2.3,4.8,5.2,9.4,7.4,4.2
		c1.6-3.5,3.2-6.8,5.2-10.3c3.5,0.3,7.1,0.6,10.6,1.6C14.7,583.1,17.3,577.3,13.4,574.7z"/>
	<path class="st0" d="M-622.8,534.7c-3.2,1-6.8,1.3-10.3,1.9c-1.6-2.9-3.2-6.1-5.2-9c-1.6-2.3-5.5-2.3-6.1,0.6
		c-0.6,3.2-1.3,6.4-1.9,9.4c-3.2,0.3-6.4,0.3-9.7,0.3c-4.2,0-4.8,5.2-1.9,7.1c3.2,2.6,6.8,4.5,10.3,6.4c0,0.3,0,0.6,0,1
		c-0.6,1-1.3,1.9-1.6,2.9c-1,2.3,0.6,4.8,2.6,4.8c1.3,1,3.5,0.3,3.5-1.6c1.3-1,2.6-1.9,3.9-2.9c2.6,1.3,5.5,2.3,8.4,3.2
		c2.6,1,5.2-1.9,4.5-4.5s-1.6-4.8-2.3-7.1c2.6-1.9,5.5-3.9,8.4-5.5C-615.7,539.2-618.2,533.4-622.8,534.7z"/>
	<path class="st0" d="M-796.9,432.2c-2.9-2.6-6.1-5.2-9-7.7c1-2.9,1.6-5.5,2.3-8.4c1-3.9-3.9-6.8-6.8-3.9c-1.6,1.6-3.2,2.9-4.5,4.5
		c-0.6-0.6-1.6-1.3-2.3-1.9c-2.3-1.9-5.8-0.6-5.8,2.3c0,2.6,0,4.8,0.3,7.1c-2.9,2.6-5.8,5.2-8.7,8.1c-2.6,2.3-0.6,7.1,2.9,7.1
		c2.6,0,5.5,0,8.1,0l0,0c-0.3,1.6,0,2.9,1,3.9c0.6,1.3,2.3,1.6,3.5,1c1-0.3,1.9-0.6,2.6-1.6s1-1.9,1.6-2.9c4.2,0,8.1,0,12.3-0.3
		C-796.6,438.3-794.3,434.4-796.9,432.2z"/>
	<path class="st0" d="M-434.8,494.4c-1.9-1.3-3.9-2.3-5.8-3.5l0.6-9.7c0.3-3.5-4.8-4.5-6.4-1.9c-1.3,1.9-2.6,4.2-4.2,6.1
		c-1.3-0.6-2.6-1.3-3.9-1.9c-2.3-1-5.5,0.6-4.5,3.5c1,2.6,1.6,5.2,2.3,7.7c-1.6,2.6-3.5,5.2-5.2,7.7c-1.6,2.6,1,5.8,3.9,5.2
		c1.9-0.6,3.9-1.3,5.8-1.9c0.3,0.6,1,1.3,1.3,1.9c0.3,0.3,0.6,0.6,1,0.6c0.3,2.6,0.6,4.8,1,7.4l0,0l0,0c0,0.3,0,0.6,0,1
		c0.6,4.2,6.8,2.9,7.1-1c0.3-4.5,0.6-9,0.6-13.5c1.9-0.6,3.9-1.3,5.8-1.9C-432.8,499.6-432.5,496-434.8,494.4z"/>
	<path class="st0" d="M-143.9,475.4c-1.6,0.3-3.2,0.6-5.2,1c-1.6-3.2-3.2-6.4-4.8-9.7c-1.6-3.2-6.8-1.6-6.4,1.6
		c0.3,2.9,0,5.8-0.3,8.7c-1.6,0-3.5,0-5.2-0.3c-3.5-0.3-5.2,5.2-1.9,6.8c1.6,0.6,3.2,1.6,5.2,2.3c-0.3,0.6-0.3,1-0.3,1.6
		c0,0.3,0,0.3,0,0.6c-1,1-1.9,2.3-2.9,3.2c-3.5,4.2,2.6,9,6.1,4.5c1.6-2.3,3.9-4.2,5.8-6.1c1.9,1,3.9,1.9,5.8,2.6
		c3.2,1.6,6.4-1.6,4.8-4.8c-0.6-1.3-1.3-2.6-1.9-3.9c1-0.6,2.3-1,3.2-1.6C-137.8,480.5-139.1,474.1-143.9,475.4z"/>
	<path class="st0" d="M187.6,548.9c9.4,40,56.8,54.5,93.2,56.1c34.8,1.9,71.6-12.6,89-44.8c18.4-33.9,0-90.9-46.8-80.3
		c-20,4.5-33.9,27.1-32.2,47.4c2.6,30.3,38,41,51.9,10.6c1.6-3.5,6.8-1.6,6.8,1.9c0,19.3-20.3,31.3-38,27.1
		c-20.6-4.8-31.6-26.4-30.3-46.4c3.2-48.4,63.2-70,93.8-30c14.8,19.3,16.1,41.6,8.7,61.3c13.5-14.2,29-27.1,45.5-38
		c-3.5-2.3-2.6-7.7,1.6-9c4.2-1.6,8.4-3.2,12.3-4.8c-1-8.4-1.6-16.4-1.9-24.8c0-3.9,5.2-6.1,7.7-3.2c5.2,5.5,10,11.3,15.2,16.8
		c2.9-1.6,5.8-3.5,8.4-5.5c2.9-2.3,6.1,0,7.1,2.6c2.9-1.3,6.1-2.9,9-3.9c48.4-20.3,116.1-37.1,161.9-2.3
		c16.1,12.3,27.1,29.3,30.6,47.7c0.6,0.3,1.3,1,1.6,1.6c1.9,38,44.2,62.6,80,52.9c16.4-4.5,29.7-17.7,30.3-35.1
		c0.3-12.3-6.4-23.5-18.4-28.1c-24.5-9-43.5,45.1-7.7,39c3.5-0.6,6.8,4.8,2.9,6.4c-25.5,11.9-47.4-18.7-30.6-40.6
		c18.4-24.5,56.4-15.5,63.2,13.5c2.3,9,1.9,16.8-0.3,23.5c31-37.1,74.2-65.8,118-84.5c-1.9-0.6-3.5-1.6-5.5-2.3
		c-4.2-1.6-2.9-8.7,1.3-9.7c5.2-1,10.6-1.9,15.8-3.2c0.6-6.4,1.3-12.9,2.6-19.3c0.6-4.5,6.4-3.9,8.7-1c3.5,4.8,7.1,9.4,10.3,14.2
		c7.1-2.3,14.2-4.8,21.3-7.7c5.5-2.3,8.1,5.2,5.2,8.7c-0.3,0.3-0.6,0.6-1,1c35.8-8.1,73.2-9.4,106.4,3.9
		c41.6,16.1,76.1,64.2,57.4,109.3c-15.5,37.7-64.5,58-99.6,33.2c-40.3-28.7-17.7-99.6,34.5-82.9c5.5,1.6,3.2,10.3-2.3,8.7
		c-44.8-13.2-58.4,50.6-20.6,69.6c27.1,13.9,60,0.3,74.8-24.8c33.5-57.1-31.9-107.4-82.9-112.2c-26.1-2.6-51.3-0.3-75.8,5.8
		c-1.6,1.9-3.2,3.9-4.8,5.8c0.3,0.3,0.3,0.6,0.6,1c2.9,4.8,9,11.9,8.4,18.1c0.3,0.3,0.6,0.3,1.3,0.6c5.8,3.5,0.6,12.6-5.2,9
		c-6.4-3.9-12.9-7.4-19.3-11c-3.9,4.5-7.4,9-11.3,13.5c-2.9,3.5-8.7,0.6-9-3.5c0-6.8,0-13.2,0.3-20h-0.3
		c-51.9,21.6-98.7,58.7-137,98.3c-1,1.3-2.9,0.3-3.5-0.6c-29,23.5-93.5,15.8-108-22.9c-2.6,12.3-9,23.9-19.7,33.2
		c-33.5,30.3-102.5,43.5-122.9-9.4c-17.4-45.1,37.7-90.3,73.8-52.2c4.5,4.8-2.6,11.6-7.1,7.1c-29.7-28.1-69.6,5.8-56.8,41.3
		c13.5,36.8,58.4,33.5,86.7,18.4c27.1-14.5,44.2-39.7,34.5-70.6c-8.1-25.5-30.6-43.2-55.8-50c-45.1-11.9-97.1,3.9-138.3,23.9
		c-0.3,1-1,1.6-1.3,2.6c0.6,0.6,1,1.3,1.6,1.9c3.2,3.5,10.6,8.7,10,14.5c1,1,2.3,1.6,3.2,2.6c4.5,3.2,2.3,11-3.9,9.4
		c-7.4-1.9-15.2-3.9-22.6-5.8c-1.9,3.9-3.9,7.4-5.5,11.3c-1.9,3.5-8.1,2.9-9-1.3c-1-4.8-1.9-9.7-2.6-14.5c-1.3-0.3-2.9-0.6-4.2-1
		c-25.2,17.1-46.8,37.4-69,59c0.3,0.6,0.3,1.3,0,1.9c-0.6,1.6-1.3,2.3-2.9,2.9c-1,0.3-1.6,0.3-2.3,0c-1.6,1.6-3.2,3.2-4.8,4.8
		c-0.6,0.6-1.3,0.6-1.9,0.3c-9.7,9.4-21.3,17.1-33.5,21.6c-48.4,18.1-135.1,1.6-145.1-57.7C180.8,546.7,186.6,545,187.6,548.9z"/>
	<path class="st0" d="M1001.4,485.1c3.5,0.6,7.1,1.3,10.6,2.3c0.3,4.5,0.6,8.7,1.6,12.9c1,4.8,8.4,3.5,8.4-1.3c0-1,0-1.9,0-2.9
		c1-1.6,2.3-2.9,3.2-4.5c2.3,1,4.2,1.9,6.4,2.9c4.2,2.3,8.1-2.3,6.1-6.1c-1.6-3.2-3.5-6.4-5.5-9.4c1.3-2.6,2.6-5.2,3.5-7.7
		c1.3-2.9-2.3-5.8-4.8-4.8c-2.3,0.6-4.5,1.6-6.8,2.3c-1.6-1.9-3.5-3.9-5.5-5.5c-2.9-2.6-7.7-1-7.7,3.2c0,2.3,0,4.5,0,6.8
		c-3.5,1.3-6.8,2.3-10.3,3.5C997.9,478.3,997.2,484.4,1001.4,485.1z"/>
	<path class="st0" d="M853.1,473.8c3.5,0.3,7.4,0.6,11,0.6c1.3,3.9,2.6,7.7,4.2,11.6c1.9,4.5,8.1,3.9,8.7-1.3c0-0.6,0-1,0-1.6
		c1.3,0,2.9-1,3.2-2.6c0.3-1.6,0.3-3.2,0.6-4.8c2.6,0.3,5.5,0.3,8.1,0.6c4.8,0.3,5.5-5.8,2.3-8.4l-8.7-6.1c0.3-3.5,1-7.1,1.3-10.6
		c0.3-2.9-3.5-4.8-5.8-3.5c-2.6,1.6-5.2,3.5-7.7,5.2c-1.6-1-2.9-2.3-4.5-3.2c-3.5-2.6-7.1,1.6-6.4,4.8c0.3,1.6,0.6,3.2,1,5.2
		c-2.9,1.9-6.1,4.2-9,6.1C847.3,468.3,848.9,473.5,853.1,473.8z"/>
	<path class="st0" d="M479.4,461.5c2.9-0.6,5.5-1,8.4-1.3c2.3,3.2,4.5,6.4,6.8,9.7c2.6,3.5,8.4,2.6,8.4-2.3c0-2.9,0-5.8,0-9
		c2.9-0.3,5.8-0.3,8.7-0.3c5.5,0,5.8-7.1,1.3-8.7c-3.2-1.3-6.8-2.9-10-4.2c0-3.9,0-7.7,0-11.6c0-1.6-0.6-2.6-1.6-3.5
		c-1.3-2.3-4.2-3.5-6.4-1.3c-2.6,2.9-4.8,5.8-7.1,8.7c-2.3-1.3-4.5-2.6-6.8-3.9c-3.9-2.3-8.4,2.3-6.1,6.1c1.6,2.9,3.5,5.5,5.2,8.1
		c-1.6,2.6-3.5,4.8-5.2,7.4C472.3,458.3,475.8,462.2,479.4,461.5z"/>
	<path class="st0" d="M232.4,574.7c2.6-1.6,5.2-3.5,7.4-5.5c-1.3-2.3-2.6-4.8-4.2-7.1c-1.9-3.5,2.3-8.4,5.8-5.8
		c2.6,1.9,4.8,3.5,7.4,5.2c2.3-1.9,4.2-4.2,6.4-6.4s6.1-0.3,6.1,2.6c0,3.5,0.3,7.4,0,11.3c2.6,1.3,4.8,2.6,7.4,3.9
		c3.5,1.6,1.9,8.4-2.3,7.7c-2.3-0.3-4.5-0.3-6.8-0.3c-0.3,1.9-1,3.9-1.9,5.8c0,0.3,0,0.3,0.3,0.6c2.3,4.8-5.2,9.4-7.4,4.2
		c-1.6-3.5-3.2-6.8-5.2-10.3c-3.5,0.3-7.1,0.6-10.6,1.6C231.1,583.1,228.5,577.3,232.4,574.7z"/>
	<path class="st0" d="M865.7,541.8c2.9,1.9,5.5,3.5,8.4,5.5c-1,2.3-1.6,4.8-2.3,7.1c-0.6,2.6,1.9,5.5,4.5,4.5c2.9-1,5.5-1.9,8.4-3.2
		c1.3,1,2.6,1.9,3.9,2.9c0,2.3,2.3,2.6,3.5,1.6c2.3,0,3.9-2.6,2.6-4.8c-0.3-1-1-1.9-1.6-2.9c0-0.3,0-0.6,0-1
		c3.5-1.9,7.1-4.2,10.3-6.4c2.9-2.3,2.3-7.1-1.9-7.1c-3.2,0-6.4,0-9.7-0.3c-0.3-3.2-1-6.4-1.9-9.4c-0.6-2.9-4.5-2.9-6.1-0.6
		c-1.9,2.9-3.5,5.8-5.2,9c-3.5-0.6-6.8-1.3-10.3-1.9C864.4,533.4,861.8,539.2,865.7,541.8z"/>
	<path class="st0" d="M1043,432.2c2.9-2.6,6.1-5.2,9-7.7c-1-2.9-1.6-5.5-2.3-8.4c-1-3.9,3.9-6.8,6.8-3.9c1.6,1.6,3.2,2.9,4.5,4.5
		c0.6-0.6,1.6-1.3,2.3-1.9c2.3-1.9,5.8-0.6,5.8,2.3c0,2.6,0,4.8-0.3,7.1c2.9,2.6,5.8,5.2,8.7,8.1c2.6,2.3,0.6,7.1-2.9,7.1
		c-2.6,0-5.5,0-8.1,0l0,0c0.3,1.6,0,2.9-1,3.9c-0.6,1.3-2.3,1.6-3.5,1c-1-0.3-1.9-0.6-2.6-1.6s-1-1.9-1.6-2.9c-4.2,0-8.1,0-12.3-0.3
		C1042.7,438.3,1040.4,434.4,1043,432.2z"/>
	<path class="st0" d="M680.9,494.4c1.9-1.3,3.9-2.3,5.8-3.5l-0.6-9.7c-0.3-3.5,4.8-4.5,6.4-1.9c1.3,1.9,2.6,4.2,4.2,6.1
		c1.3-0.6,2.6-1.3,3.9-1.9c2.3-1,5.5,0.6,4.5,3.5c-1,2.6-1.6,5.2-2.3,7.7c1.6,2.6,3.5,5.2,5.2,7.7c1.6,2.6-1,5.8-3.9,5.2
		c-1.9-0.6-3.9-1.3-5.8-1.9c-0.3,0.6-1,1.3-1.3,1.9c-0.3,0.3-0.6,0.6-1,0.6c-0.3,2.6-0.6,4.8-1,7.4l0,0l0,0c0,0.3,0,0.6,0,1
		c-0.6,4.2-6.8,2.9-7.1-1c-0.3-4.5-0.6-9-0.6-13.5c-1.9-0.6-3.9-1.3-5.8-1.9C679,499.6,678.3,496,680.9,494.4z"/>
	<path class="st0" d="M389.7,475.4c1.6,0.3,3.2,0.6,5.2,1c1.6-3.2,3.2-6.4,4.8-9.7c1.6-3.2,6.8-1.6,6.4,1.6c-0.3,2.9,0,5.8,0.3,8.7
		c1.6,0,3.5,0,5.2-0.3c3.5-0.3,5.2,5.2,1.9,6.8c-1.6,0.6-3.2,1.6-5.2,2.3c0.3,0.6,0.3,1,0.3,1.6c0,0.3,0,0.3,0,0.6
		c1,1,1.9,2.3,2.9,3.2c3.5,4.2-2.6,9-6.1,4.5c-1.6-2.3-3.9-4.2-5.8-6.1c-1.9,1-3.9,1.9-5.8,2.6c-3.2,1.6-6.4-1.6-4.8-4.8
		c0.6-1.3,1.3-2.6,1.9-3.9c-1-0.6-2.3-1-3.2-1.6C383.6,480.5,385.2,474.1,389.7,475.4z"/>
</g>
</svg>
