<?xml version="1.0" encoding="utf-8"?>
<!-- Generator: Adobe Illustrator 19.0.0, SVG Export Plug-In . SVG Version: 6.00 Build 0)  -->
<svg version="1.1" id="Layer_1" xmlns="http://www.w3.org/2000/svg" xmlns:xlink="http://www.w3.org/1999/xlink" x="0px" y="0px"
	 viewBox="0 0 573.5 66.3" style="enable-background:new 0 0 573.5 66.3;" xml:space="preserve">
<style type="text/css">
	.st0{fill:#1D1D1B;}
</style>
<g>
	<path class="st0" d="M307.6,41.1c-4.3-0.3-8.5-0.6-12.8-0.9c-1.6-4.5-3.5-8.9-5.9-13.1c-0.6-1.1-2.2-1-2.8,0c-2.3,4-4.4,8-6.3,12.1
		c-3.8-0.3-7.6-0.5-11.4-0.8c-1.8-0.1-2,2.2-0.8,3c2.9,2.1,5.8,4.2,8.7,6.3c-1.6,4.2-2.9,8.4-4,12.8c-0.1,0.4,0,0.7,0.2,1
		c-0.1,0.1-0.1,0.3-0.2,0.4c-0.4,1.2,0.9,2.4,2,2c5.3-1.7,10.3-4,15-6.7c3,2.2,6,4.4,9.1,6.6c1.2,0.9,2.7-0.6,2.4-1.8
		c-0.8-3.5-1.6-7-2.5-10.4c3.5-2.4,6.8-4.9,10.2-7.5C309.7,43.1,309.4,41.2,307.6,41.1z"/>
	<path class="st0" d="M267.6,48.8c-11,24.8-39.9,5.5-55.2-3.8c-13.8-8.4-29.1-18.7-45.5-21.2c-5.8-1.5-12.1-2-17.6,0.5
		c-6.7,3-12.5,10.8-11.5,18.3c1.3,10.2,15,14.1,20.1,7.5c1.7-1.3,2.9-3.3,3.3-6c0.3-1.8-2.2-2.6-2.7-0.8c-1.9,6.1-10.1,7.8-13.7,2.1
		c-2.6-4-1.6-9.2,1.1-12.7c6.2-7.9,17.4-6.9,26.1-4.5c14.8,4.1,27.9,12.7,40.9,20.5c10.6,6.4,22.6,14.4,35.3,15
		c8.9,0.4,20-4.6,20.7-14.6C269,48.5,267.9,48.1,267.6,48.8z"/>
	<path class="st0" d="M165.8,38.4c-4.2-4.9-11.7-6.1-15.3,0c-0.5,0.8,0.7,1.7,1.3,1c5.8-6.1,13.1,0.3,14.7,6.4
		c1.5,5.6-0.9,10.6-5.4,13.9c-7.4,5.3-16.9,3.4-24.8,0.6c-14.6-5.1-28.6-12.4-41.8-20.3c-21.2-12.7-45-30.7-71.3-27.4
		C3,15.2-7.1,39.1,5.6,55.2c11.9,15.1,39.9,9,37.8-12.4c-0.8-8.7-9.3-17.5-18.5-13.7c-8,3.2-8.1,14.1,0.1,16.8
		c1.8,0.6,2.5-2.1,0.8-2.8c-0.5-1.2-0.9-2.4-1.4-3.5c0.2-1.6,0.9-3,2.3-4c2.8-2.1,5.8-0.5,7.9,1.8c3.3,3.5,4.2,8.2,4.4,12.8
		c0,0.4,0.2,0.6,0.4,0.8c-1.3,3.2-3.6,5.9-6.6,7.7c-12.1,7-26-1.9-29-14.4C0.3,30.6,9.8,17.6,23.3,15.8c11.9-1.6,24,2.1,34.7,6.9
		c20,9.1,37.6,22.7,57.5,32.2c14.1,6.7,39,20,51.4,3.3C171.4,52.3,170.7,44,165.8,38.4z M39.1,38.1c-0.2-0.1-0.3-0.1-0.5,0
		c-0.2-0.3-0.4-0.6-0.6-0.8c0.1-0.3,0.1-0.6,0-0.8c-0.2-0.3-0.4-0.6-0.6-0.8C38.1,36.3,38.7,37.2,39.1,38.1z M30,31.2
		c1.2,0.1,2.5,0.6,3.6,1.2c-0.8-0.3-1.7-0.6-2.7-0.6c-0.1,0-0.1-0.1-0.2-0.1c-0.3-0.1-0.5,0-0.7,0.1c-0.2,0-0.4,0-0.6,0
		c0.1-0.1,0.2-0.1,0.3-0.2C29.8,31.5,29.9,31.4,30,31.2z"/>
	<path class="st0" d="M261.1,48c-6.7,5.6-18.1,4-19.7-5.7c-0.8-4.8,2.1-9.9,7.4-9.8c7.3,0.2,7.6,11.4-0.1,10.1
		c-1.8-0.3-2.6,2.3-0.8,2.8c5.9,1.5,11.2-4.4,9-10.2c-2.5-6.4-10.7-7.1-15.3-2.5c-5.2,5.2-3.5,14,1.9,18.3c5.9,4.8,14.1,3.9,18.7-2
		C262.7,48.3,261.8,47.4,261.1,48z"/>
	<path class="st0" d="M237.1,51.6c-0.4-0.2-0.8-0.4-1.3-0.6c0-0.3,0-0.6-0.3-0.8c-7.8-6.4-13.4-14.3-20.6-21.2
		c-2.3-2.2-7.3-6.6-9.7-1.9c-1.5,3.1,0.9,6.2,3.8,8.8c0.9,1.1,2,1.9,3.3,2.6c0.8,0.6,1.6,1.2,2.2,1.6c5.8,4.6,12.1,8.8,19.1,11.2
		c0.1,0.1,0.3,0.2,0.4,0.3c0.4,0.3,0.8,0.3,1.1,0.1c0.5,0.2,1.1,0.3,1.6,0.5C237.2,52.3,237.5,51.8,237.1,51.6z"/>
	<path class="st0" d="M233.4,40.9c0.3-0.2,0.4-0.6,0.3-1c-1.2-3.8-1.9-7.2-1-11.2c0.5-1.9,1.5-3.9,1.1-5.9c-0.5-2.6-2.9-4.1-5.5-3
		c-3.2,1.4-3.4,5.6-3,8.6c0.7,5.2,3.9,9.9,7.4,13.7c0.5,0.5,1.3-0.1,1-0.8C233.6,41.3,233.5,41.1,233.4,40.9z"/>
	<path class="st0" d="M134.1,53.5c-0.2-0.1-0.4-0.2-0.6-0.2c0.3,0,0.6-0.1,0.7-0.4c0.6-1.1-0.7-2.2-1.7-1.4
		c-0.1,0.1-0.1,0.1-0.1,0.2c-0.1,0-0.1-0.1-0.1-0.1c-10.9-2.7-13.9-13.7-20.5-21.3c-2.5-2.9-8.4-6.9-10-0.8
		c-1.5,5.6,7.5,12.1,10.9,14.9c6.2,4.9,13.3,8.5,21.1,10.1C134.4,54.6,134.7,53.7,134.1,53.5z M116.8,41c-0.2-0.2-0.4-0.3-0.6-0.5
		c-0.5-1.2-1.1-2.3-1.9-3.4c-0.3-0.6-0.7-1.3-1-1.9c0,0,0-0.1,0-0.1c1,1.7,1.9,3.5,2.7,4.7C116.3,40.3,116.6,40.6,116.8,41z
		 M110.2,31.1c-0.1,0-0.3,0-0.4,0.1c-0.3-0.4-0.6-0.7-1-1.1C109.2,29.9,109.7,30.2,110.2,31.1z"/>
	<path class="st0" d="M133.3,44.2c-1.2-2.5-2.7-4.8-3.4-7.5c-0.6-2.1-0.4-4.7-1.6-6.6c-1.5-2.3-4.8-3.3-6.5-0.7
		c-1.8,2.9,0.3,7.2,1.9,9.7c2.1,3.3,5.3,6.1,9,7.2c0.7,0.2,1-0.6,0.6-1C133.4,44.9,133.5,44.5,133.3,44.2z"/>
	<path class="st0" d="M66.6,33.2c-7.2-5.2-16.1-8.8-24.9-10.1c-0.1,0-0.1-0.1-0.2-0.1c-0.3-0.1-0.5-0.1-0.8,0
		c-0.2,0-0.5-0.1-0.7-0.1c-0.6-0.1-0.6,0.8-0.1,0.9c0,0,0,0,0,0c0,0.3,0,0.5,0.3,0.8c9.4,7.5,18.1,15.1,26.9,23.4
		c2.9,2.7,8.6,6.9,10.5,0.5C79.4,42.3,70.8,36.3,66.6,33.2z M59,31.2c0.9,0.5,1.8,1,2.7,1.5c-0.7-0.3-1.4-0.7-2.1-0.9
		c-0.1,0-0.1,0-0.1,0c-1.1-0.7-2.1-1.4-3.2-2C57.1,30.3,58.1,30.7,59,31.2z"/>
	<path class="st0" d="M56.6,46.4c-1.6-4.2-4.3-7.6-8-10.1c-0.3-0.2-0.7,0-0.8,0.3c-0.7-0.2-1.7,0.4-1.3,1.3c1.1,3,2.7,5.5,2.9,8.8
		c0.2,2.2-0.4,4.7,0.4,6.8c1,2.4,3.9,4.3,6.3,2.6C59.1,54.1,57.6,49.1,56.6,46.4z"/>
	<path class="st0" d="M177.9,36.1c-0.5-0.7-1.4-1.2-2.3-1.1c-0.5-0.3-1.3-0.2-1.7,0.2c-1,0.9-1.1,2.4-0.4,3.6
		c0.8,1.2,2.4,1.5,3.6,0.7C178.2,38.8,178.6,37.3,177.9,36.1z"/>
	<path class="st0" d="M190.1,41.6c-0.9-0.6-2.2-0.5-3,0.4c-0.2,0.2-0.3,0.4-0.4,0.6c0,0-0.1,0-0.1,0c-1,0.7-0.9,2-0.2,2.9
		c1.5,2,4.8,1.4,5-1.2C191.4,43.2,190.9,42.1,190.1,41.6z"/>
	<path class="st0" d="M205.5,51.4c-0.3-1.5-2.1-2.6-3.4-1.7c-0.4,0-0.9,0.2-1.1,0.7c-0.3,0.9-0.7,1.7-0.2,2.6c0.4,0.6,1,1.1,1.7,1.3
		C204.3,54.7,205.9,53.2,205.5,51.4z"/>
	<path class="st0" d="M96.2,11.1c-5.3,0-8.9,5-9.3,9.9c-0.5,6.3,3.3,12.2,8.7,15.3c0.4,0.3,1-0.4,0.6-0.7c-3.7-3-6.6-6.8-7.3-11.6
		c-0.4-3.1,0-6.2,2.2-8.6c1.4-1.5,3.1-2.3,5.1-2.4c4.7,0.2,4.9,2.6,0.7,7c-0.6-0.5-1.5,0.1-1.1,0.9c1.9,3.4,6.5,2.4,7.6-1.2
		C104.9,15.1,100.4,11.1,96.2,11.1z"/>
	<path class="st0" d="M84.4,29C71.7,21.5,61.2,12.7,52.9,0.3c-0.5-0.7-1.6-0.1-1.2,0.7c7.4,12.5,18.8,23.3,32.3,28.7
		C84.5,29.9,84.8,29.2,84.4,29z"/>
	<path class="st0" d="M81.6,23.1c-5.2-6-7.9-12.8-9-20.6c-0.1-0.6-1-0.7-1,0c0,8,3.6,15.8,9.4,21.3C81.4,24.2,82,23.5,81.6,23.1z"/>
	<path class="st0" d="M84,8.4c-2.6,1.8-3.4,5.3-1.9,8.1c0.2,0.4,1,0.1,0.8-0.3c-1-2.5-0.3-5.2,1.8-6.8C85.2,8.9,84.5,8,84,8.4z"/>
	<path class="st0" d="M173.1,43.9c-0.4-0.3-0.9,0.2-0.5,0.5c5.1,5.1,6.5,12,4.2,18.7c-0.2,0.6,0.7,1,1,0.4
		C180.9,56.8,178.8,48.7,173.1,43.9z"/>
	<path class="st0" d="M207.6,63c-11.5-3.5-21.3-9.4-29.7-18c-0.5-0.5-1.2,0.2-0.7,0.7c7.9,9.1,18.4,15.5,30,18.5
		C208,64.5,208.4,63.2,207.6,63z"/>
	<path class="st0" d="M305.9,48.8c11,24.8,39.9,5.5,55.2-3.8c13.8-8.4,29.1-18.7,45.5-21.2c5.8-1.5,12.1-2,17.6,0.5
		c6.7,3,12.5,10.8,11.5,18.3c-1.3,10.2-15,14.1-20.1,7.5c-1.7-1.3-2.9-3.3-3.3-6c-0.3-1.8,2.2-2.6,2.7-0.8
		c1.9,6.1,10.1,7.8,13.7,2.1c2.6-4,1.6-9.2-1.1-12.7c-6.2-7.9-17.4-6.9-26.1-4.5c-14.8,4.1-27.9,12.7-40.9,20.5
		c-10.6,6.4-22.6,14.4-35.3,15c-8.9,0.4-20-4.6-20.7-14.6C304.5,48.5,305.6,48.1,305.9,48.8z"/>
	<path class="st0" d="M406.5,58.3c12.4,16.7,37.3,3.4,51.4-3.3c19.9-9.5,37.5-23.1,57.5-32.2c10.7-4.9,22.9-8.5,34.7-6.9
		c13.5,1.8,23,14.8,19.7,28.4c-3.1,12.5-17,21.4-29,14.4c-3-1.7-5.3-4.5-6.6-7.7c0.2-0.2,0.4-0.4,0.4-0.8c0.2-4.6,1.1-9.3,4.4-12.8
		c2.1-2.2,5.1-3.8,7.9-1.8c1.4,1,2,2.4,2.3,4c-0.5,1.2-0.9,2.4-1.4,3.5c-1.7,0.6-1,3.3,0.8,2.8c8.2-2.7,8-13.6,0.1-16.8
		c-9.2-3.8-17.6,5.1-18.5,13.7C528,64.2,556,70.3,567.9,55.2c12.7-16.1,2.6-40-17.5-42.6c-26.3-3.4-50.1,14.7-71.3,27.4
		c-13.2,7.9-27.2,15.2-41.8,20.3c-7.9,2.8-17.4,4.6-24.8-0.6c-4.6-3.2-6.9-8.2-5.4-13.9c1.6-6.1,8.9-12.5,14.7-6.4
		c0.7,0.7,1.8-0.2,1.3-1c-3.6-6.1-11.1-4.9-15.3,0C402.8,44,402.1,52.3,406.5,58.3z M536,35.5c-0.2,0.3-0.4,0.5-0.6,0.8
		c-0.1,0.3-0.1,0.6,0,0.8c-0.2,0.3-0.4,0.5-0.6,0.8c-0.2,0-0.3,0-0.5,0C534.8,37.2,535.4,36.3,536,35.5z M543.9,31.7
		c0.1,0.1,0.2,0.1,0.3,0.2c-0.2,0-0.4,0-0.6,0c-0.2-0.1-0.5-0.2-0.7-0.1c-0.1,0-0.1,0.1-0.2,0.1c-0.9,0.1-1.8,0.3-2.7,0.6
		c1.1-0.6,2.4-1.1,3.6-1.2C543.6,31.4,543.7,31.5,543.9,31.7z"/>
	<path class="st0" d="M312.4,48c6.7,5.6,18.1,4,19.7-5.7c0.8-4.8-2.1-9.9-7.4-9.8c-7.3,0.2-7.6,11.4,0.1,10.1
		c1.8-0.3,2.6,2.3,0.8,2.8c-5.9,1.5-11.2-4.4-9-10.2c2.5-6.4,10.7-7.1,15.3-2.5c5.2,5.2,3.5,14-1.9,18.3c-5.9,4.8-14.1,3.9-18.7-2
		C310.8,48.3,311.7,47.4,312.4,48z"/>
	<path class="st0" d="M336.6,52.3c0.6-0.1,1.1-0.3,1.6-0.5c0.3,0.1,0.8,0.2,1.1-0.1c0.1-0.1,0.3-0.2,0.4-0.3
		c7-2.4,13.4-6.6,19.1-11.2c0.6-0.5,1.3-1,2.2-1.6c1.2-0.7,2.3-1.5,3.3-2.6c2.9-2.6,5.4-5.7,3.8-8.8c-2.3-4.7-7.4-0.3-9.7,1.9
		c-7.2,6.9-12.7,14.8-20.6,21.2c-0.3,0.2-0.4,0.5-0.3,0.8c-0.4,0.2-0.8,0.4-1.3,0.6C336,51.8,336.2,52.3,336.6,52.3z"/>
	<path class="st0" d="M339.8,41.5c-0.3,0.6,0.5,1.3,1,0.8c3.5-3.8,6.6-8.5,7.4-13.7c0.4-3,0.2-7.2-3-8.6c-2.5-1.1-4.9,0.3-5.5,3
		c-0.4,2,0.6,4,1.1,5.9c1,4,0.2,7.4-1,11.2c-0.1,0.4,0,0.7,0.3,1C340,41.1,339.9,41.3,339.8,41.5z"/>
	<path class="st0" d="M439.7,54.4c7.8-1.6,14.9-5.2,21.1-10.1c3.5-2.7,12.5-9.2,10.9-14.9c-1.6-6.1-7.5-2.1-10,0.8
		c-6.5,7.7-9.5,18.6-20.5,21.3c-0.1,0-0.1,0.1-0.1,0.1c0-0.1-0.1-0.1-0.1-0.2c-1-0.8-2.3,0.2-1.7,1.4c0.2,0.3,0.4,0.4,0.7,0.4
		c-0.2,0.1-0.4,0.2-0.6,0.2C438.8,53.7,439.1,54.6,439.7,54.4z M457.4,39.9c0.8-1.2,1.7-3,2.7-4.7c0,0,0,0.1,0,0.1
		c-0.4,0.6-0.7,1.2-1,1.9c-0.7,1.1-1.3,2.2-1.9,3.4c-0.2,0.1-0.4,0.3-0.6,0.5C456.9,40.6,457.2,40.3,457.4,39.9z M464.7,30
		c-0.3,0.4-0.7,0.7-1,1.1c-0.1,0-0.3-0.1-0.4-0.1C463.8,30.2,464.3,29.9,464.7,30z"/>
	<path class="st0" d="M440.3,45.2c-0.4,0.4-0.1,1.2,0.6,1c3.8-1.1,6.9-4,9-7.2c1.6-2.5,3.7-6.8,1.9-9.7c-1.7-2.6-5.1-1.7-6.5,0.7
		c-1.2,1.9-1.1,4.5-1.6,6.6c-0.7,2.8-2.2,5-3.4,7.5C440,44.5,440.1,44.9,440.3,45.2z"/>
	<path class="st0" d="M495.9,48.6c1.9,6.4,7.6,2.2,10.5-0.5c8.8-8.3,17.4-15.9,26.9-23.4c0.3-0.2,0.4-0.5,0.3-0.8c0,0,0,0,0,0
		c0.5-0.2,0.4-1-0.1-0.9c-0.2,0-0.5,0.1-0.7,0.1c-0.2-0.1-0.5-0.1-0.8,0c-0.1,0-0.1,0.1-0.2,0.1c-8.8,1.2-17.7,4.9-24.9,10.1
		C502.7,36.3,494.1,42.3,495.9,48.6z M517.3,29.8c-1.1,0.6-2.2,1.3-3.2,2c0,0-0.1,0-0.1,0c-0.7,0.3-1.4,0.6-2.1,0.9
		c0.9-0.5,1.8-1.1,2.7-1.5C515.4,30.7,516.4,30.3,517.3,29.8z"/>
	<path class="st0" d="M517.4,56.2c2.4,1.6,5.4-0.3,6.3-2.6c0.9-2.1,0.3-4.6,0.4-6.8c0.2-3.3,1.8-5.8,2.9-8.8
		c0.3-0.9-0.6-1.5-1.3-1.3c-0.1-0.3-0.5-0.5-0.8-0.3c-3.7,2.5-6.4,5.9-8,10.1C515.9,49.1,514.4,54.1,517.4,56.2z"/>
	<path class="st0" d="M395.6,36.1c0.5-0.7,1.4-1.2,2.3-1.1c0.5-0.3,1.3-0.2,1.7,0.2c1,0.9,1.1,2.4,0.4,3.6c-0.8,1.2-2.4,1.5-3.6,0.7
		C395.3,38.8,394.9,37.3,395.6,36.1z"/>
	<path class="st0" d="M382.1,44.2c0.1,2.7,3.5,3.2,5,1.2c0.7-0.9,0.8-2.2-0.2-2.9c0,0-0.1,0-0.1,0c-0.1-0.2-0.2-0.4-0.4-0.6
		c-0.8-0.8-2-1-3-0.4C382.6,42.1,382.1,43.2,382.1,44.2z"/>
	<path class="st0" d="M371,54.2c0.7-0.2,1.4-0.6,1.7-1.3c0.5-0.9,0.1-1.7-0.2-2.6c-0.2-0.5-0.6-0.7-1.1-0.7
		c-1.4-0.9-3.1,0.2-3.4,1.7C367.6,53.2,369.2,54.7,371,54.2z"/>
	<path class="st0" d="M477.3,11.1c5.3,0,8.9,5,9.3,9.9c0.5,6.3-3.3,12.2-8.7,15.3c-0.4,0.3-1-0.4-0.6-0.7c3.7-3,6.6-6.8,7.3-11.6
		c0.4-3.1,0-6.2-2.2-8.6c-1.4-1.5-3.1-2.3-5.1-2.4c-4.7,0.2-4.9,2.6-0.7,7c0.6-0.5,1.5,0.1,1.1,0.9c-1.9,3.4-6.5,2.4-7.6-1.2
		C468.6,15.1,473.1,11.1,477.3,11.1z"/>
	<path class="st0" d="M489.1,29c12.7-7.5,23.2-16.3,31.5-28.7c0.5-0.7,1.6-0.1,1.2,0.7c-7.4,12.5-18.8,23.3-32.3,28.7
		C489,29.9,488.7,29.2,489.1,29z"/>
	<path class="st0" d="M491.9,23.1c5.2-6,7.9-12.8,9-20.6c0.1-0.6,1-0.7,1,0c0,8-3.6,15.8-9.4,21.3C492.1,24.2,491.5,23.5,491.9,23.1
		z"/>
	<path class="st0" d="M489.5,8.4c2.6,1.8,3.4,5.3,1.9,8.1c-0.2,0.4-1,0.1-0.8-0.3c1-2.5,0.3-5.2-1.8-6.8
		C488.3,8.9,488.9,8,489.5,8.4z"/>
	<path class="st0" d="M400.3,43.9c0.4-0.3,0.9,0.2,0.5,0.5c-5.1,5.1-6.5,12-4.2,18.7c0.2,0.6-0.7,1-1,0.4
		C392.6,56.8,394.7,48.7,400.3,43.9z"/>
	<path class="st0" d="M365.9,63c11.5-3.5,21.3-9.4,29.7-18c0.5-0.5,1.2,0.2,0.7,0.7c-7.9,9.1-18.4,15.5-30,18.5
		C365.5,64.5,365.1,63.2,365.9,63z"/>
</g>
</svg>
