<?xml version="1.0" encoding="utf-8"?>
<!-- Generator: Adobe Illustrator 19.0.0, SVG Export Plug-In . SVG Version: 6.00 Build 0)  -->
<svg version="1.1" id="Layer_1" xmlns="http://www.w3.org/2000/svg" xmlns:xlink="http://www.w3.org/1999/xlink" x="0px" y="0px"
	 viewBox="-790.6 415.6 2048 194.8" style="enable-background:new -790.6 415.6 2048 194.8;" xml:space="preserve">
<style type="text/css">
	.st0{fill:#1D1D1B;}
</style>
<g>
	<path class="st0" d="M275,580.5c1.4-1.9,2.2-4.1,2.5-6.9c0.3-7.4-5.5-13.5-9.3-19.5c-4.4-6.9-7.7-14.6-11-22
		c2.2-1.1,3.8-2.5,4.1-5.8c0-0.3,0-0.5,0-0.8c0,0,0,0,0-0.3c0.8-5.5-3.8-11.5-6-16.2c-2.2-4.4-4.7-8.8-7.4-13.2
		c9.6-2.5,4.4-12.9,0.3-20.9c-2.7-5.2-12.1-25.8-20.9-20.1c-4.7,3-7.4,11-9.9,15.7c-2.2,4.4-7.4,11.8-6,17c-0.3,0-0.6,0.3-0.8,0.3
		c-1.9,1.1-2.2,3.6-1.4,5.5c1.4,3,4.4,3.6,7.4,3.6c-2.7,4.4-5.2,9.1-7.7,13.5s-7.7,11.3-7.1,17c0.6,4.7,3.8,6.6,8.5,7.1
		c-6.6,10.7-12.1,21.7-17.3,33.3c-2.5,5.5-6.3,11.5-0.8,16.5c6.6,5.8,21.7,3,29.7,2.7c14.8,0,30-0.8,44.8-1.6
		c1.1,0.5,2.5,0.8,3.6,0.3c0.3-0.3,0.8-0.3,1.1-0.5l0,0C273.4,585.7,276.1,583.2,275,580.5L275,580.5z"/>
	<path class="st0" d="M177.9,539.5c-4.9-11-21.2-21.2-33.5-17.3C115,518.3,82.5,531,55,537.6c-42.3,10.2-92.1,29.4-135.8,19
		c-17.3-4.1-33.5-13.7-44-28.3c-15.9-22.5-11.8-53.6,17.9-60.8c20.1-4.7,47.8,0.3,59.1,19.2c7.1,12.1,6.3,32.7-10.2,37.7
		c-14.6,4.1-26.7-9.9-31.6-21.4c-1.6-4.1-7.7-1.1-6.9,3c4.1,17.3,22.5,32.2,41,27.2c18.1-4.9,24.7-26.7,19.2-43.2
		c-12.6-37.7-83.3-45.6-102-9.6c-10.2,19.2-6,36.8,4.9,51.1c-46.5-34.4-100.6-58.3-157-70.7c-53.6-11.8-128.4-18.1-160,38.2
		c-1.4,2.7-2.7,5.5-3.8,8.2c-0.8,0-1.6,0.3-1.6,1.4c-8,42.6-48.9,65.2-90.2,64.3c-24.5-0.3-49.5-15.9-48.4-42.9
		c0.5-14.6,11.3-28.6,26.1-30c6-0.5,11,0.5,15.4,3.8c4.1,6.6,6.3,14.6,2.2,22c-1.6,3-3.8,5.2-6.6,7.1c-3,0-6.6,0-10.4-0.3
		c-2.7-4.1-8.5-0.5-6.6,3.8c0.5,1.1,0.8,1.9,1.4,2.7c0,0.5,0.3,0.8,0.8,1.1c14.8,23.9,49.8-6.9,34.9-33
		c-17.3-30.5-60.2-14-65.4,16.5c-13.2,76.2,115.2,72.6,144.9,15.7c4.9,34.6,38.5,64.6,74.5,69.8c49.5,7.1,97.9-42.1,63-88.3
		c-16.2-21.4-47.3-34.1-70.9-17c-18.7,13.5-20.3,41.8-0.5,54.7c3.6,2.2,7.7-3,4.4-5.8c-17-15.4-10.7-40.4,12.1-46.5
		c18.7-5.2,37.4,6.3,47.8,20.9c25,34.4-3.8,73.1-42.3,74.2c-63.5,1.6-109.4-75.6-53.3-119.6c44.8-34.9,114.4-18.7,164.2-3.8
		c49.8,14.8,95.4,39.3,137.5,69.6c-5.2,0.3-10.4,2.7-14.3,7.1c-8.2,9.9-5.8,25.6,3.6,33.8c9.3,8.2,25.6,7.7,30.5-5.2
		c3.6-9.9-6.6-23.4-17-17.3c-2.7,1.6-1.4,5.5,1.6,5.8c3.6,0.3,7.7,1.1,8.8,5.2c1.1,5.5-4.9,9.6-9.6,9.6c-7.1,0-12.9-6.6-14.6-13.2
		c-3.3-13.7,11.3-25,23.9-18.4c0.8,0.5,1.9-0.3,1.9-1.1c15.1,8.5,31.9,13.5,46.2,14c35.2,1.4,70.7-10.7,104.5-19
		c34.6-8.5,71.8-22.3,108.1-19.8c3.6,0.8,6.9,1.4,10.4,3.3c6.9,4.1,11.8,11,11,19.2c-0.8,6.9-4.9,13.7-12.1,14.8
		c-4.1,0.5-9.6-1.1-11.5-5.2c-3-6,3.6-13.2,9.6-11.5c1.9,0.5,3.3-2.5,1.4-3.3c-10.4-5.2-22.3,4.1-19,15.9c3.6,11.8,19,15.4,28.6,8.8
		C179.3,564.3,182.9,550.2,177.9,539.5z"/>
	<path class="st0" d="M-605.8,564.5c-0.3-0.3-0.5-0.5-0.5-0.8c0-0.8-0.3-1.9-1.1-2.7c-2.5-2.5-4.7-4.7-7.1-6.9
		c-24.7-27.2-54.7-50.3-87.4-66.3c-19.2-9.3-68.2-28-85-4.1c-17,24.5,30.2,30.5,43.4,32.2c23.9,2.7,47.8,3.6,70.7,11.8
		c22.8,8.2,42.6,21.7,59.4,38.8c1.6,1.6,3.8,1.4,5.2,0.3l0,0C-606.6,568.1-604.4,565.9-605.8,564.5z M-756.7,506.5
		c-3-0.5-6.3-1.4-9.3-2.2c-3.8-0.8-7.1-1.9-10.7-3.8c0-0.3,0-0.5,0-0.8c2.5,1.9,5.5,2.5,8.8,3c0.3,0.3,0.8,0.5,1.4,0.8
		c1.9,0.5,3.8,0.8,5.8,1.4c0.5,0.3,1.1,0.5,1.9,0.8h1.1c0.3,0,0.8,0.3,1.1,0.3C-756.7,506-756.7,506.2-756.7,506.5z M-724.6,486.4
		c-1.6-0.5-3.3-1.4-4.7-1.9c4.1,1.1,8.2,2.5,12.1,3.8C-719.6,487.5-722.1,487-724.6,486.4z"/>
	<path class="st0" d="M-621.7,529.9L-621.7,529.9c0.3-0.5,0.3-1.1,0.3-1.6c-3.8-16.2-12.1-30.8-21.2-44.5
		c-6.3-9.6-14.3-21.4-25.6-26.1c-6.6-2.7-15.7-2.7-18.7,5.2c-1.9,4.9-0.3,9.6,4.1,11.8c3.8,4.4,8,8.5,12.1,12.4
		c2.5,2.5,5.2,5.2,8,7.7c11.8,12.1,23.4,24.7,34.9,37.4c1.1,1.4,2.7,0.8,3.6-0.5c0,0.3,0.3,0.3,0.3,0.5
		C-623.1,533.2-620.6,531.5-621.7,529.9z"/>
	<path class="st0" d="M-633.3,559.6C-633.3,559.6-633.3,559.3-633.3,559.6c-3.3-1.9-6.6-3.3-9.9-4.9c-23.9-17-66.3-34.9-81.9-5.5
		c-4.7,8.8-3.8,19,6.9,21.7c9.3,2.2,20.1-2.7,29.1-4.9c18.4-4.7,35.5-3.8,54.2-0.3c0.3,0,0.5,0,0.8,0c1.1,0.5,1.9-0.3,2.2-1.1
		C-630.5,563.2-630.8,560.4-633.3,559.6z"/>
	<path class="st0" d="M-157.5,498.5c-0.3,0-0.3-0.3-0.5-0.3c0.3-1.1,0.3-2.2-0.8-3c-10.7-7.4-20.9-15.9-30-25.6
		c-7.7-8.5-13.2-18.7-20.3-27.5c-5.5-6.9-15.9-12.4-20.6-1.1c-4.9,12.4,12.1,28,20.3,34.6c14.8,12.1,32.7,19.8,50.9,25
		C-157,501-156.2,499.1-157.5,498.5z M-179.3,487.8c0.5-0.3,0.8-0.8,1.1-1.4c1.6,1.4,3.6,3,5.2,4.4
		C-175.1,489.7-177.1,488.9-179.3,487.8z"/>
	<path class="st0" d="M-152.3,441.3c-1.1-6.3-6-12.6-12.9-9.1c-6.9,3.6-8.8,14.6-8.8,21.7c0.3,12.4,6,23.6,13.2,33.3
		c1.1,1.4,3,0.8,3.3-0.5c0.5-0.5,1.1-1.4,0.8-2.5C-159.5,469.4-149.8,455.6-152.3,441.3z M-156.7,441.3c1.4,2.7,0.8,6.9-0.3,11.3
		c0-1.9,0-3.8-0.3-5.5c0.8-1.9,0.8-4.1,0-6c0-0.3-0.3-0.5-0.5-0.8c-0.5-0.8-0.8-1.4-1.6-2.2c-1.6-1.6-3.8-0.8-4.7,1.1
		c-0.5,0.5-1.4,1.4-1.9,1.9C-163.6,436.7-160.3,434.2-156.7,441.3z M-163.3,475.2c0.3-0.3,0.3-0.5,0.5-0.8c0.5-2.2,1.1-4.4,1.6-6.3
		c-0.5,3.3-0.8,6.3-0.8,9.3C-162.5,476.8-163,476-163.3,475.2z"/>
	<path class="st0" d="M-249.1,440c-5.2-2.2-11.5,1.9-11.5,7.7c0,1.1,0.5,2.2,1.1,3.3c0.8,2.2,2.7,4.1,5.2,5.2
		c4.4,1.6,9.3-0.8,10.4-5.5C-242.8,446.6-245,441.9-249.1,440z"/>
	<path class="st0" d="M-294.8,424.8c-4.9-3-11.5,0.3-12.1,6c-1.1,1.9-1.1,4.4,0.3,6.6c2.7,4.7,9.6,5.2,13.7,2.2
		C-287.9,435.3-289.5,427.6-294.8,424.8z"/>
	<path class="st0" d="M-348.4,421.3c-2.2-6.3-11.8-7.4-15.4-1.6c-1.1,1.9-1.1,4.1-0.5,6c-0.5,3,1.6,5.8,4.4,7.1
		C-353.3,435.6-345.9,427.9-348.4,421.3z"/>
	<path class="st0" d="M-426.2,439.7c-1.1-0.3-2.2-0.3-3.3-0.3c-1.9-0.5-4.1-0.8-5.5,0.5s-2.2,3.6-2.2,5.5c0,2.7,1.6,5.5,3.8,6.9
		c0.5,0.5,0.8,0.8,1.6,1.4c1.9,1.1,4.4,1.6,6,0c0.3-0.3,0.5-0.8,0.8-1.1c1.6-0.8,3.3-2.5,3.8-4.4
		C-420.2,444.1-422.6,440.5-426.2,439.7z"/>
	<path class="st0" d="M-470.2,473.8c-0.5,0-0.8,0-1.4,0c-0.3-0.3-0.8-0.3-1.4-0.3c-1.9,0.5-3.6,1.9-4.4,3.6
		c-0.5,1.1-0.8,2.2-0.8,3.3c0,0.8,0,1.6,0.3,2.5c1.9,5.2,8.2,5.2,11.5,1.6C-462.5,480.7-464.7,474.3-470.2,473.8z"/>
	<path class="st0" d="M-495.8,521.6c-0.5,1.1-1.1,2.2-1.1,3.3c-0.3,1.9,0.3,3.8,1.6,5.5c3.8,3.8,11.3,1.1,11.3-4.4
		C-483.7,520-491.9,516.4-495.8,521.6z"/>
	<path class="st0" d="M-524.7,542.8c-2.7-3-6.6-0.3-7.7,2.7c-0.8,0-1.9,0.5-2.2,1.4c-0.3,2.2,0,3.8,1.6,5.2c1.4,1.4,3.8,1.6,5.8,1.1
		c0.3,0,0.3-0.3,0.5-0.3c0.3,0,0.5-0.3,1.1-0.3c0.5-0.3,0.8-0.8,1.1-1.1C-522.7,549.1-522.5,545.3-524.7,542.8z"/>
	<path class="st0" d="M59.7,496.6c-8-11.8-23.1-3.8-31.9,1.9c-20.1,13.5-36.8,30-57.2,42.9c-0.6,0.3-0.8,0.8-1.1,1.1
		c-0.3,0-0.8,0.3-1.1,0.3c-2.5,0.8-1.4,4.1,1.1,3.8c0.3,0,0.6,0,1.1-0.3c0.6,0.5,1.4,0.8,2.5,0.3c1.6-0.5,3-1.1,4.7-1.6
		C4.7,540.6,78.4,524.7,59.7,496.6z M44.3,518.9c1.1-0.8,2.2-1.6,3.3-2.5c1.4-1.1,1.6-2.7,1.4-4.1c1.1-0.3,1.4-1.6,1.1-2.5
		c0.3-0.5,0.3-1.1,0.3-1.6l0.3-0.3C52.3,512.6,50.1,516.1,44.3,518.9z"/>
	<path class="st0" d="M16.8,453.2c-6.3-6.9-16.5-3.6-21.2,3.3c-4.9,6.9-4.9,16.8-6,24.7c-1.4,9.6-3.3,19.2-3.3,28.9
		c0,0.5,0.3,1.1,0.6,1.6c-0.3,0.3-0.6,0.5-0.8,0.8c-1.6,1.4,0.6,3.8,2.2,2.7c12.6-8.8,22.5-20.1,28.3-34.6
		C19.8,472.7,23.7,460.9,16.8,453.2z M-5.2,490c0.3,0.8,0.6,1.9,0.8,2.7v0.3c-0.6,1.4-1.1,2.5-1.6,3.8C-5.8,494.7-5.5,492.5-5.2,490
		z"/>
	<path class="st0" d="M-223.3,517.8c-39.6-35.5-99.5-52.8-152.1-43.4c-1.4,0.3-1.1,2.2,0.3,2.2c56.1-2.5,103.7,11.5,149,44.5
		C-223.8,522.7-221.6,519.4-223.3,517.8z"/>
	<path class="st0" d="M-335.7,487c-1.4-0.3-1.9,1.6-0.5,1.9c33,10.7,52.2,33.5,62.4,66c0.8,2.2,4.7,1.9,4.4-0.5
		C-273.6,521.4-303.8,492.8-335.7,487z"/>
	<path class="st0" d="M-303.3,528.5c-0.5-1.4-2.7-0.3-2.5,1.1c7.7,19.8,5.2,36.8-1.9,56.4c-0.8,2.5,2.5,3.6,3.8,1.6
		C-292,570.3-293.7,546.1-303.3,528.5z"/>
	<path class="st0" d="M289,539.5c4.9-11,21.2-21.2,33.5-17.3c29.4-3.8,61.9,8.8,89.4,15.4c42.3,10.2,92.1,29.4,135.8,19
		c17.3-4.1,33.5-13.7,44-28.3c15.9-22.5,11.8-53.6-17.9-60.8c-20.1-4.7-47.8,0.3-59.1,19.2c-7.1,12.1-6.3,32.7,10.2,37.7
		c14.6,4.1,26.7-9.9,31.6-21.4c1.6-4.1,7.7-1.1,6.9,3c-4.1,17.3-22.5,32.2-41,27.2c-18.1-4.9-24.7-26.7-19.2-43.2
		c12.6-37.7,83.3-45.6,102-9.6c10.2,19.2,6,36.8-4.9,51.1c46.5-34.4,100.6-58.3,157-70.7c53.6-11.8,128.4-18.1,160,38.2
		c1.4,2.7,2.7,5.5,3.8,8.2c0.8,0,1.6,0.3,1.6,1.4c8,42.6,48.9,65.2,90.2,64.3c24.5-0.3,49.5-15.9,48.4-42.9
		c-0.6-14.6-11.3-28.6-26.1-30c-6-0.5-11,0.5-15.4,3.8c-4.1,6.6-6.3,14.6-2.2,22c1.6,3,3.8,5.2,6.6,7.1c3,0,6.6,0,10.4-0.3
		c2.7-4.1,8.5-0.5,6.6,3.8c-0.6,1.1-0.8,1.9-1.4,2.7c0,0.5-0.3,0.8-0.8,1.1c-14.8,23.9-49.8-6.9-34.9-33
		c17.3-30.5,60.2-14,65.4,16.5c13.2,76.2-115.2,72.6-144.9,15.7c-4.9,34.6-38.5,64.6-74.5,69.8c-49.5,7.1-97.9-42.1-63-88.3
		c16.2-21.4,47.3-34.1,70.9-17c18.7,13.5,20.3,41.8,0.5,54.7c-3.6,2.2-7.7-3-4.4-5.8c17-15.4,10.7-40.4-12.1-46.5
		c-18.7-5.2-37.4,6.3-47.8,20.9c-25,34.4,3.8,73.1,42.3,74.2c63.5,1.6,109.4-75.6,53.3-119.6c-44.8-34.9-114.4-18.7-164.2-3.8
		c-49.8,14.8-95.4,39.3-137.5,69.6c5.2,0.3,10.4,2.7,14.3,7.1c8.2,9.9,5.8,25.6-3.6,33.8s-25.6,7.7-30.5-5.2
		c-3.6-9.9,6.6-23.4,17-17.3c2.7,1.6,1.4,5.5-1.6,5.8c-3.6,0.3-7.7,1.1-8.8,5.2c-1.1,5.5,4.9,9.6,9.6,9.6c7.1,0,12.9-6.6,14.6-13.2
		c3.3-13.7-11.3-25-23.9-18.4c-0.8,0.5-1.9-0.3-1.9-1.1c-15.1,8.5-31.9,13.5-46.2,14c-35.2,1.4-70.7-10.7-104.5-19
		c-34.6-8.5-71.8-22.3-108.1-19.8c-3.6,0.8-6.9,1.4-10.4,3.3c-6.9,4.1-11.8,11-11,19.2c0.8,6.9,4.9,13.7,12.1,14.8
		c4.1,0.5,9.6-1.1,11.5-5.2c3-6-3.6-13.2-9.6-11.5c-1.9,0.5-3.3-2.5-1.4-3.3c10.4-5.2,22.3,4.1,19,15.9c-3.6,11.8-19,15.4-28.6,8.8
		C287.4,564.3,284.1,550.2,289,539.5z"/>
	<path class="st0" d="M1074.9,566.7L1074.9,566.7c1.4,1.1,3.6,1.4,5.2-0.3c17-17,36.8-30.5,59.4-38.8c22.8-8.2,46.7-9.1,70.7-11.8
		c13.2-1.4,60.5-7.7,43.4-32.2c-16.8-23.9-65.4-5.5-85,4.1c-32.4,15.9-62.7,39-87.2,66c-2.5,2.2-4.9,4.4-7.1,6.9
		c-0.8,0.8-1.1,1.9-1.1,2.7c-0.3,0.3-0.5,0.5-0.5,0.8C1071.4,565.9,1073.6,568.1,1074.9,566.7z M1223.7,505.7c0.3,0,0.8-0.3,1.1-0.3
		h1.1c0.8,0,1.4-0.3,1.9-0.8c1.9-0.5,3.8-0.8,5.8-1.4c0.6-0.3,1.1-0.3,1.4-0.8c3.3-0.5,6.3-1.4,8.8-3c0,0.3,0,0.5,0,0.8
		c-3.3,1.6-6.9,3-10.7,3.8c-3,0.8-6.3,1.6-9.3,2.2C1223.7,506.2,1223.7,506,1223.7,505.7z M1184.1,488.4c3.8-1.4,8-2.7,12.1-3.8
		c-1.6,0.5-3.3,1.4-4.7,1.9C1188.8,487,1186.3,487.5,1184.1,488.4z"/>
	<path class="st0" d="M1090.9,531.8c0-0.3,0.3-0.3,0.3-0.5c0.8,1.1,2.2,1.6,3.6,0.5c11.5-12.6,23.1-25,34.9-37.4
		c2.7-2.5,5.5-5.2,8-7.7c4.1-3.8,8.2-8,12.1-12.4c4.4-2.2,6-6.9,4.1-11.8c-3-7.7-12.1-7.7-18.7-5.2c-11.3,4.7-19.2,16.5-25.6,26.1
		c-9.1,13.7-17.3,28.6-21.2,44.5c-0.3,0.5,0,1.1,0.3,1.4c0,0,0,0,0,0.3C1087.6,531.5,1089.8,533.2,1090.9,531.8z"/>
	<path class="st0" d="M1098.9,564.5c0.3,0.8,1.4,1.6,2.2,1.1c0.3,0,0.5,0,0.8,0c18.7-3.6,35.7-4.1,54.2,0.3
		c8.8,2.2,19.5,7.1,29.1,4.9c10.7-2.7,11.5-12.6,6.9-21.7c-15.7-29.7-58-11.5-81.9,5.5c-3.3,1.4-6.6,3-9.9,4.7l0,0
		C1097.5,560.4,1097.5,563.2,1098.9,564.5z"/>
	<path class="st0" d="M625.3,500.7c18.1-5.2,36-12.9,50.9-25c8.2-6.6,25.3-22.3,20.3-34.6c-4.7-11.3-15.1-5.8-20.6,1.1
		c-7.1,9.1-12.6,19-20.3,27.5c-8.8,9.9-19,18.1-30,25.6c-1.1,0.8-1.1,1.9-0.8,3c-0.3,0-0.3,0.3-0.5,0.3
		C623.1,499.1,624,501,625.3,500.7z M639.9,490.8c1.9-1.4,3.6-3,5.2-4.4c0.3,0.5,0.5,0.8,1.1,1.4C644,488.9,641.8,489.7,639.9,490.8
		z"/>
	<path class="st0" d="M623.4,484c-0.3,1.1,0.3,1.9,0.8,2.5c0.3,1.1,2.2,1.6,3.3,0.5c7.4-9.6,13.2-20.9,13.2-33.3
		c0-6.9-1.9-18.1-8.8-21.7c-6.9-3.6-11.8,2.7-12.9,9.1C616.5,455.6,626.4,469.4,623.4,484z M632.8,440.8c-0.5-0.5-1.1-1.4-1.9-1.9
		c-0.8-1.9-3-2.7-4.7-1.1c-0.6,0.5-1.1,1.4-1.6,2.2c-0.3,0.3-0.3,0.5-0.5,0.8c-0.8,1.9-0.8,4.1,0,6c-0.3,1.6-0.3,3.6-0.3,5.5
		c-1.1-4.1-1.6-8.2-0.3-11.3C627.3,434.2,630.3,436.7,632.8,440.8z M629.2,477.6c0-3-0.3-6.3-0.8-9.3c0.5,2.2,0.8,4.4,1.6,6.3
		c0,0.3,0.3,0.5,0.5,0.8C629.7,476,629.5,476.8,629.2,477.6z"/>
	<path class="st0" d="M710.9,451c1.1,4.7,6,7.1,10.4,5.5c2.5-1.1,4.4-3,5.2-5.2c0.5-1.1,1.1-1.9,1.1-3.3c0.3-5.8-6.3-9.9-11.5-7.7
		C712,441.9,709.8,446.6,710.9,451z"/>
	<path class="st0" d="M759.8,439.1c4.1,3,11,2.5,13.7-2.2c1.1-1.9,1.1-4.4,0.3-6.6c-0.5-5.5-7.1-8.8-12.1-6
		C756.5,427.6,754.9,435.3,759.8,439.1z"/>
	<path class="st0" d="M826.9,432.5c2.7-1.1,4.9-4.1,4.4-7.1c0.5-1.9,0.5-4.1-0.5-6c-3.6-5.8-12.9-4.7-15.4,1.6
		C812.9,427.9,820,435.6,826.9,432.5z"/>
	<path class="st0" d="M893.2,439.7c1.1-0.3,2.2-0.3,3.3-0.3c1.9-0.5,4.1-0.8,5.5,0.5s2.2,3.6,2.2,5.5c0,2.7-1.6,5.5-3.8,6.9
		c-0.6,0.5-0.8,0.8-1.6,1.4c-1.9,1.1-4.4,1.6-6,0c-0.3-0.3-0.5-0.8-0.8-1.1c-1.6-0.8-3.3-2.5-3.8-4.4
		C886.9,444.1,889.6,440.5,893.2,439.7z"/>
	<path class="st0" d="M937.2,473.8c0.5,0,0.8,0,1.4,0c0.3-0.3,0.8-0.3,1.4-0.3c1.9,0.5,3.6,1.9,4.4,3.6c0.6,1.1,0.8,2.2,0.8,3.3
		c0,0.8,0,1.6-0.3,2.5c-1.9,5.2-8.2,5.2-11.5,1.6C929.5,480.7,931.7,474.3,937.2,473.8z"/>
	<path class="st0" d="M950.7,526c0,5.5,7.4,8.2,11.3,4.4c1.4-1.4,1.9-3.6,1.6-5.5c0-1.1-0.3-2.5-1.1-3.3
		C958.9,516.4,950.7,520,950.7,526z"/>
	<path class="st0" d="M991.6,551.6c0.3,0.5,0.6,0.8,1.1,1.1c0.3,0.3,0.5,0.3,1.1,0.3c0.3,0,0.3,0.3,0.5,0.3c1.9,0.5,4.1,0.3,5.8-1.1
		c1.6-1.4,1.9-3,1.6-5.2c-0.3-1.1-1.1-1.4-2.2-1.4c-1.4-3-4.9-5.8-7.7-2.7C989.2,545.3,989.7,549.1,991.6,551.6z"/>
	<path class="st0" d="M489.5,545.6c1.4,0.5,3,1.1,4.7,1.6c1.1,0.3,1.9,0,2.5-0.3c0.3,0,0.8,0,1.1,0.3c2.5,0.3,3.6-3,1.1-3.8
		c-0.3,0-0.8-0.3-1.1-0.3c-0.3-0.5-0.5-0.8-1.1-1.1c-20.3-12.9-37.4-29.7-57.2-42.9c-8.8-6-23.9-13.7-31.9-1.9
		C388.6,524.7,462.3,540.6,489.5,545.6z M416.4,507.6l0.3,0.3c0,0.5,0,1.1,0.3,1.6c-0.3,1.1,0.3,2.2,1.1,2.5c-0.3,1.4,0,3.3,1.4,4.1
		c1.1,0.8,2.2,1.6,3.3,2.5C416.9,516.1,414.7,512.6,416.4,507.6z"/>
	<path class="st0" d="M450.5,480.9c5.8,14.3,15.7,25.6,28.3,34.6c1.6,1.1,3.6-1.4,2.2-2.7c-0.3-0.3-0.6-0.5-0.8-0.8
		c0.3-0.3,0.5-0.8,0.5-1.6c-0.3-9.6-2.2-19.2-3.3-28.9c-1.1-8-1.1-17.9-6-24.7c-4.7-6.9-14.8-10.2-21.2-3.3
		C443.3,460.9,447.2,472.7,450.5,480.9z M473,496.9c-0.6-1.4-1.1-2.5-1.6-3.8v-0.3c0.3-0.8,0.5-1.9,0.8-2.7
		C472.5,492.5,472.7,494.7,473,496.9z"/>
	<path class="st0" d="M690.2,517.8c39.6-35.5,99.5-52.8,152.1-43.4c1.4,0.3,1.1,2.2-0.3,2.2c-56.1-2.5-103.7,11.5-149,44.5
		C690.8,522.7,688.3,519.4,690.2,517.8z"/>
	<path class="st0" d="M802.7,487c1.4-0.3,1.9,1.6,0.5,1.9c-33,10.7-52.2,33.5-62.4,66c-0.8,2.2-4.7,1.9-4.4-0.5
		C740.3,521.4,770.8,492.8,802.7,487z"/>
	<path class="st0" d="M770,528.5c0.5-1.4,2.7-0.3,2.5,1.1c-7.7,19.8-5.2,36.8,1.9,56.4c0.8,2.5-2.5,3.6-3.8,1.6
		C759,570.3,760.6,546.1,770,528.5z"/>
</g>
</svg>
