<?xml version="1.0" encoding="utf-8"?>
<!-- Generator: Adobe Illustrator 19.0.0, SVG Export Plug-In . SVG Version: 6.00 Build 0)  -->
<svg version="1.1" id="Layer_1" xmlns="http://www.w3.org/2000/svg" xmlns:xlink="http://www.w3.org/1999/xlink" x="0px" y="0px"
	 viewBox="-961.2 394.4 2048 237.1" style="enable-background:new -961.2 394.4 2048 237.1;" xml:space="preserve">
<style type="text/css">
	.st0{fill:#1D1D1B;}
</style>
<g>
	<path class="st0" d="M137.2,541.1c-15.4-1.1-30.4-2.1-45.7-3.2c-5.7-16.1-12.5-31.8-21.1-46.8c-2.1-3.9-7.9-3.6-10,0
		c-8.2,14.3-15.7,28.6-22.5,43.2c-13.6-1.1-27.1-1.8-40.7-2.9c-6.4-0.4-7.1,7.9-2.9,10.7c10.4,7.5,20.7,15,31.1,22.5
		c-5.7,15-10.4,30-14.3,45.7c-0.4,1.4,0,2.5,0.7,3.6c-0.4,0.4-0.4,1.1-0.7,1.4c-1.4,4.3,3.2,8.6,7.1,7.1
		c18.9-6.1,36.8-14.3,53.6-23.9c10.7,7.9,21.4,15.7,32.5,23.6c4.3,3.2,9.6-2.1,8.6-6.4c-2.9-12.5-5.7-25-8.9-37.1
		c12.5-8.6,24.3-17.5,36.4-26.8C144.7,548.3,143.6,541.5,137.2,541.1z"/>
	<path class="st0" d="M-5.6,568.6c-39.3,88.6-142.5,19.6-197.1-13.6c-49.3-30-103.9-66.8-162.5-75.7c-20.7-5.4-43.2-7.1-62.8,1.8
		c-23.9,10.7-44.6,38.6-41.1,65.3c4.6,36.4,53.6,50.3,71.8,26.8c6.1-4.6,10.4-11.8,11.8-21.4c1.1-6.4-7.9-9.3-9.6-2.9
		c-6.8,21.8-36.1,27.9-48.9,7.5c-9.3-14.3-5.7-32.9,3.9-45.3c22.1-28.2,62.1-24.6,93.2-16.1c52.8,14.6,99.6,45.3,146,73.2
		c37.9,22.9,80.7,51.4,126,53.6c31.8,1.4,71.4-16.4,73.9-52.1C-0.6,567.6-4.6,566.1-5.6,568.6z"/>
	<path class="st0" d="M-369.1,531.5c-15-17.5-41.8-21.8-54.6,0c-1.8,2.9,2.5,6.1,4.6,3.6c20.7-21.8,46.8,1.1,52.5,22.9
		c5.4,20-3.2,37.9-19.3,49.6c-26.4,18.9-60.3,12.1-88.6,2.1c-52.1-18.2-102.1-44.3-149.3-72.5c-75.7-45.3-160.7-109.6-254.6-97.8
		c-72.1,9.3-108.2,94.6-62.8,152.1c42.5,53.9,142.5,32.1,135-44.3c-2.9-31.1-33.2-62.5-66.1-48.9c-28.6,11.4-28.9,50.3,0.4,60
		c6.4,2.1,8.9-7.5,2.9-10c-1.8-4.3-3.2-8.6-5-12.5c0.7-5.7,3.2-10.7,8.2-14.3c10-7.5,20.7-1.8,28.2,6.4c11.8,12.5,15,29.3,15.7,45.7
		c0,1.4,0.7,2.1,1.4,2.9c-4.6,11.4-12.9,21.1-23.6,27.5c-43.2,25-92.8-6.8-103.6-51.4c-12.5-48.9,21.4-95.3,69.6-101.8
		c42.5-5.7,85.7,7.5,123.9,24.6c71.4,32.5,134.3,81.1,205.3,115c50.3,23.9,139.3,71.4,183.5,11.8
		C-349.1,581.1-351.6,551.5-369.1,531.5z M-821.6,530.4c-0.7-0.4-1.1-0.4-1.8,0c-0.7-1.1-1.4-2.1-2.1-2.9c0.4-1.1,0.4-2.1,0-2.9
		c-0.7-1.1-1.4-2.1-2.1-2.9C-825.1,524-823,527.2-821.6,530.4z M-854.1,505.8c4.3,0.4,8.9,2.1,12.9,4.3c-2.9-1.1-6.1-2.1-9.6-2.1
		c-0.4,0-0.4-0.4-0.7-0.4c-1.1-0.4-1.8,0-2.5,0.4c-0.7,0-1.4,0-2.1,0c0.4-0.4,0.7-0.4,1.1-0.7C-854.8,506.9-854.4,506.5-854.1,505.8
		z"/>
	<path class="st0" d="M-28.8,565.8c-23.9,20-64.6,14.3-70.3-20.4c-2.9-17.1,7.5-35.4,26.4-35c26.1,0.7,27.1,40.7-0.4,36.1
		c-6.4-1.1-9.3,8.2-2.9,10c21.1,5.4,40-15.7,32.1-36.4c-8.9-22.9-38.2-25.4-54.6-8.9c-18.6,18.6-12.5,50,6.8,65.3
		c21.1,17.1,50.3,13.9,66.8-7.1C-23.1,566.9-26.3,563.6-28.8,565.8z"/>
	<path class="st0" d="M-114.5,578.6c-1.4-0.7-2.9-1.4-4.6-2.1c0-1.1,0-2.1-1.1-2.9c-27.9-22.9-47.8-51.1-73.6-75.7
		c-8.2-7.9-26.1-23.6-34.6-6.8c-5.4,11.1,3.2,22.1,13.6,31.4c3.2,3.9,7.1,6.8,11.8,9.3c2.9,2.1,5.7,4.3,7.9,5.7
		c20.7,16.4,43.2,31.4,68.2,40c0.4,0.4,1.1,0.7,1.4,1.1c1.4,1.1,2.9,1.1,3.9,0.4c1.8,0.7,3.9,1.1,5.7,1.8
		C-114.2,581.1-113.1,579.4-114.5,578.6z"/>
	<path class="st0" d="M-127.8,540.4c1.1-0.7,1.4-2.1,1.1-3.6c-4.3-13.6-6.8-25.7-3.6-40c1.8-6.8,5.4-13.9,3.9-21.1
		c-1.8-9.3-10.4-14.6-19.6-10.7c-11.4,5-12.1,20-10.7,30.7c2.5,18.6,13.9,35.4,26.4,48.9c1.8,1.8,4.6-0.4,3.6-2.9
		C-127,541.9-127.4,541.1-127.8,540.4z"/>
	<path class="st0" d="M-482.3,585.4c-0.7-0.4-1.4-0.7-2.1-0.7c1.1,0,2.1-0.4,2.5-1.4c2.1-3.9-2.5-7.9-6.1-5
		c-0.4,0.4-0.4,0.4-0.4,0.7c-0.4,0-0.4-0.4-0.4-0.4c-38.9-9.6-49.6-48.9-73.2-76.1c-8.9-10.4-30-24.6-35.7-2.9
		c-5.4,20,26.8,43.2,38.9,53.2c22.1,17.5,47.5,30.4,75.3,36.1C-481.3,589.4-480.2,586.1-482.3,585.4z M-544.1,540.8
		c-0.7-0.7-1.4-1.1-2.1-1.8c-1.8-4.3-3.9-8.2-6.8-12.1c-1.1-2.1-2.5-4.6-3.6-6.8v-0.4c3.6,6.1,6.8,12.5,9.6,16.8
		C-545.9,538.3-544.8,539.4-544.1,540.8z M-567.7,505.4c-0.4,0-1.1,0-1.4,0.4c-1.1-1.4-2.1-2.5-3.6-3.9
		C-571.3,501.2-569.5,502.2-567.7,505.4z"/>
	<path class="st0" d="M-485.2,552.2c-4.3-8.9-9.6-17.1-12.1-26.8c-2.1-7.5-1.4-16.8-5.7-23.6c-5.4-8.2-17.1-11.8-23.2-2.5
		c-6.4,10.4,1.1,25.7,6.8,34.6c7.5,11.8,18.9,21.8,32.1,25.7c2.5,0.7,3.6-2.1,2.1-3.6C-484.8,554.7-484.5,553.3-485.2,552.2z"/>
	<path class="st0" d="M-723.4,512.9c-25.7-18.6-57.5-31.4-88.9-36.1c-0.4,0-0.4-0.4-0.7-0.4c-1.1-0.4-1.8-0.4-2.9,0
		c-0.7,0-1.8-0.4-2.5-0.4c-2.1-0.4-2.1,2.9-0.4,3.2l0,0c0,1.1,0,1.8,1.1,2.9c33.6,26.8,64.6,53.9,96.1,83.6
		c10.4,9.6,30.7,24.6,37.5,1.8C-677.7,545.4-708.4,524-723.4,512.9z M-750.5,505.8c3.2,1.8,6.4,3.6,9.6,5.4c-2.5-1.1-5-2.5-7.5-3.2
		c-0.4,0-0.4,0-0.4,0c-3.9-2.5-7.5-5-11.4-7.1C-757.3,502.6-753.7,504-750.5,505.8z"/>
	<path class="st0" d="M-759.1,560.1c-5.7-15-15.4-27.1-28.6-36.1c-1.1-0.7-2.5,0-2.9,1.1c-2.5-0.7-6.1,1.4-4.6,4.6
		c3.9,10.7,9.6,19.6,10.4,31.4c0.7,7.9-1.4,16.8,1.4,24.3c3.6,8.6,13.9,15.4,22.5,9.3C-750.1,587.6-755.5,569.7-759.1,560.1z"/>
	<path class="st0" d="M-325.9,523.3c-1.8-2.5-5-4.3-8.2-3.9c-1.8-1.1-4.6-0.7-6.1,0.7c-3.6,3.2-3.9,8.6-1.4,12.9
		c2.9,4.3,8.6,5.4,12.9,2.5C-324.9,532.9-323.4,527.6-325.9,523.3z"/>
	<path class="st0" d="M-282.4,542.9c-3.2-2.1-7.9-1.8-10.7,1.4c-0.7,0.7-1.1,1.4-1.4,2.1h-0.4c-3.6,2.5-3.2,7.1-0.7,10.4
		c5.4,7.1,17.1,5,17.9-4.3C-277.7,548.6-279.5,544.7-282.4,542.9z"/>
	<path class="st0" d="M-227.4,577.9c-1.1-5.4-7.5-9.3-12.1-6.1c-1.4,0-3.2,0.7-3.9,2.5c-1.1,3.2-2.5,6.1-0.7,9.3
		c1.4,2.1,3.6,3.9,6.1,4.6C-231.7,589.7-226,584.4-227.4,577.9z"/>
	<path class="st0" d="M-617.7,434c-18.9,0-31.8,17.9-33.2,35.4c-1.8,22.5,11.8,43.6,31.1,54.6c1.4,1.1,3.6-1.4,2.1-2.5
		c-13.2-10.7-23.6-24.3-26.1-41.4c-1.4-11.1,0-22.1,7.9-30.7c5-5.4,11.1-8.2,18.2-8.6c16.8,0.7,17.5,9.3,2.5,25
		c-2.1-1.8-5.4,0.4-3.9,3.2c6.8,12.1,23.2,8.6,27.1-4.3C-586.6,448.3-602.7,434-617.7,434z"/>
	<path class="st0" d="M-659.8,497.9c-45.3-26.8-82.8-58.2-112.5-102.5c-1.8-2.5-5.7-0.4-4.3,2.5c26.4,44.6,67.1,83.2,115.3,102.5
		C-659.5,501.2-658.4,498.7-659.8,497.9z"/>
	<path class="st0" d="M-669.8,476.9c-18.6-21.4-28.2-45.7-32.1-73.6c-0.4-2.1-3.6-2.5-3.6,0c0,28.6,12.9,56.4,33.6,76.1
		C-670.5,480.8-668.4,478.3-669.8,476.9z"/>
	<path class="st0" d="M-661.2,424.4c-9.3,6.4-12.1,18.9-6.8,28.9c0.7,1.4,3.6,0.4,2.9-1.1c-3.6-8.9-1.1-18.6,6.4-24.3
		C-657,426.2-659.5,423-661.2,424.4z"/>
	<path class="st0" d="M-343.1,551.1c-1.4-1.1-3.2,0.7-1.8,1.8c18.2,18.2,23.2,42.8,15,66.8c-0.7,2.1,2.5,3.6,3.6,1.4
		C-315.2,597.2-322.7,568.3-343.1,551.1z"/>
	<path class="st0" d="M-219.9,619.3c-41.1-12.5-76.1-33.6-106.1-64.3c-1.8-1.8-4.3,0.7-2.5,2.5c28.2,32.5,65.7,55.3,107.1,66.1
		C-218.5,624.7-217,620.1-219.9,619.3z"/>
	<path class="st0" d="M131.1,568.6c39.3,88.6,142.5,19.6,197.1-13.6c49.3-30,103.9-66.8,162.5-75.7c20.7-5.4,43.2-7.1,62.8,1.8
		c23.9,10.7,44.6,38.6,41.1,65.3c-4.6,36.4-53.6,50.3-71.8,26.8c-6.1-4.6-10.4-11.8-11.8-21.4c-1.1-6.4,7.9-9.3,9.6-2.9
		c6.8,21.8,36.1,27.9,48.9,7.5c9.3-14.3,5.7-32.9-3.9-45.3c-22.1-28.2-62.1-24.6-93.2-16.1c-52.8,14.6-99.6,45.3-146,73.2
		c-37.9,22.9-80.7,51.4-126,53.6c-31.8,1.4-71.4-16.4-73.9-52.1C126.1,567.6,130.1,566.1,131.1,568.6z"/>
	<path class="st0" d="M490.4,602.6c44.3,59.6,133.2,12.1,183.5-11.8c71.1-33.9,133.9-82.5,205.3-115c38.2-17.5,81.8-30.4,123.9-24.6
		c48.2,6.4,82.1,52.8,70.3,101.4c-11.1,44.6-60.7,76.4-103.6,51.4c-10.7-6.1-18.9-16.1-23.6-27.5c0.7-0.7,1.4-1.4,1.4-2.9
		c0.7-16.4,3.9-33.2,15.7-45.7c7.5-7.9,18.2-13.6,28.2-6.4c5,3.6,7.1,8.6,8.2,14.3c-1.8,4.3-3.2,8.6-5,12.5
		c-6.1,2.1-3.6,11.8,2.9,10c29.3-9.6,28.6-48.6,0.4-60c-32.9-13.6-62.8,18.2-66.1,48.9c-7.9,76.4,92.1,98.2,134.6,44.3
		c45.3-57.5,9.3-142.8-62.5-152.1c-93.9-12.1-178.9,52.5-254.6,97.8c-47.1,28.2-97.1,54.3-149.3,72.5c-28.2,10-62.1,16.4-88.6-2.1
		c-16.4-11.4-24.6-29.3-19.3-49.6c5.7-21.8,31.8-44.6,52.5-22.9c2.5,2.5,6.4-0.7,4.6-3.6c-12.9-21.8-39.6-17.5-54.6,0
		C477.1,551.5,474.6,581.1,490.4,602.6z M952.8,521.1c-0.7,1.1-1.4,1.8-2.1,2.9c-0.4,1.1-0.4,2.1,0,2.9c-0.7,1.1-1.4,1.8-2.1,2.9
		c-0.7,0-1.1,0-1.8,0C948.5,527.2,950.6,524,952.8,521.1z M981,507.6c0.4,0.4,0.7,0.4,1.1,0.7c-0.7,0-1.4,0-2.1,0
		c-0.7-0.4-1.8-0.7-2.5-0.4c-0.4,0-0.4,0.4-0.7,0.4c-3.2,0.4-6.4,1.1-9.6,2.1c3.9-2.1,8.6-3.9,12.9-4.3
		C979.9,506.5,980.3,506.9,981,507.6z"/>
	<path class="st0" d="M154.3,565.8c23.9,20,64.6,14.3,70.3-20.4c2.9-17.1-7.5-35.4-26.4-35c-26.1,0.7-27.1,40.7,0.4,36.1
		c6.4-1.1,9.3,8.2,2.9,10c-21.1,5.4-40-15.7-32.1-36.4c8.9-22.9,38.2-25.4,54.6-8.9c18.6,18.6,12.5,50-6.8,65.3
		c-21.1,17.1-50.3,13.9-66.8-7.1C148.6,566.9,151.8,563.6,154.3,565.8z"/>
	<path class="st0" d="M240.8,581.1c2.1-0.4,3.9-1.1,5.7-1.8c1.1,0.4,2.9,0.7,3.9-0.4c0.4-0.4,1.1-0.7,1.4-1.1
		c25-8.6,47.8-23.6,68.2-40c2.1-1.8,4.6-3.6,7.9-5.7c4.3-2.5,8.2-5.4,11.8-9.3c10.4-9.3,19.3-20.4,13.6-31.4
		c-8.2-16.8-26.4-1.1-34.6,6.8c-25.7,24.6-45.3,52.8-73.6,75.7c-1.1,0.7-1.4,1.8-1.1,2.9c-1.4,0.7-2.9,1.4-4.6,2.1
		C238.6,579.4,239.3,581.1,240.8,581.1z"/>
	<path class="st0" d="M252.2,542.6c-1.1,2.1,1.8,4.6,3.6,2.9c12.5-13.6,23.6-30.4,26.4-48.9c1.4-10.7,0.7-25.7-10.7-30.7
		c-8.9-3.9-17.5,1.1-19.6,10.7c-1.4,7.1,2.1,14.3,3.9,21.1c3.6,14.3,0.7,26.4-3.6,40c-0.4,1.4,0,2.5,1.1,3.6
		C252.9,541.1,252.5,541.9,252.2,542.6z"/>
	<path class="st0" d="M608.9,588.6c27.9-5.7,53.2-18.6,75.3-36.1c12.5-9.6,44.6-32.9,38.9-53.2c-5.7-21.8-26.8-7.5-35.7,2.9
		c-23.2,27.5-33.9,66.4-73.2,76.1c-0.4,0-0.4,0.4-0.4,0.4c0-0.4-0.4-0.4-0.4-0.7c-3.6-2.9-8.2,0.7-6.1,5c0.7,1.1,1.4,1.4,2.5,1.4
		c-0.7,0.4-1.4,0.7-2.1,0.7C605.7,586.1,606.8,589.4,608.9,588.6z M672.1,536.9c2.9-4.3,6.1-10.7,9.6-16.8v0.4
		c-1.4,2.1-2.5,4.3-3.6,6.8c-2.5,3.9-4.6,7.9-6.8,12.1c-0.7,0.4-1.4,1.1-2.1,1.8C670.3,539.4,671.4,538.3,672.1,536.9z M698.2,501.5
		c-1.1,1.4-2.5,2.5-3.6,3.9c-0.4,0-1.1-0.4-1.4-0.4C695,502.2,696.7,501.2,698.2,501.5z"/>
	<path class="st0" d="M611,555.8c-1.4,1.4-0.4,4.3,2.1,3.6c13.6-3.9,24.6-14.3,32.1-25.7c5.7-8.9,13.2-24.3,6.8-34.6
		c-6.1-9.3-18.2-6.1-23.2,2.5c-4.3,6.8-3.9,16.1-5.7,23.6c-2.5,10-7.9,17.9-12.1,26.8C610,553.3,610.3,554.7,611,555.8z"/>
	<path class="st0" d="M809.6,567.9c6.8,22.9,27.1,7.9,37.5-1.8c31.4-29.6,62.1-56.8,96.1-83.6c1.1-0.7,1.4-1.8,1.1-2.9l0,0
		c1.8-0.7,1.4-3.6-0.4-3.2c-0.7,0-1.8,0.4-2.5,0.4c-0.7-0.4-1.8-0.4-2.9,0c-0.4,0-0.4,0.4-0.7,0.4c-31.4,4.3-63.2,17.5-88.9,36.1
		C833.9,524,803.2,545.4,809.6,567.9z M886,500.8c-3.9,2.1-7.9,4.6-11.4,7.1h-0.4c-2.5,1.1-5,2.1-7.5,3.2c3.2-1.8,6.4-3.9,9.6-5.4
		C879.2,504,882.8,502.6,886,500.8z"/>
	<path class="st0" d="M886.4,595.1c8.6,5.7,19.3-1.1,22.5-9.3c3.2-7.5,1.1-16.4,1.4-24.3c0.7-11.8,6.4-20.7,10.4-31.4
		c1.1-3.2-2.1-5.4-4.6-4.6c-0.4-1.1-1.8-1.8-2.9-1.1c-13.2,8.9-22.9,21.1-28.6,36.1C881,569.7,875.6,587.6,886.4,595.1z"/>
	<path class="st0" d="M451.4,523.3c1.8-2.5,5-4.3,8.2-3.9c1.8-1.1,4.6-0.7,6.1,0.7c3.6,3.2,3.9,8.6,1.4,12.9
		c-2.9,4.3-8.6,5.4-12.9,2.5C450.4,532.9,448.9,527.6,451.4,523.3z"/>
	<path class="st0" d="M403.2,552.2c0.4,9.6,12.5,11.4,17.9,4.3c2.5-3.2,2.9-7.9-0.7-10.4H420c-0.4-0.7-0.7-1.4-1.4-2.1
		c-2.9-2.9-7.1-3.6-10.7-1.4C405,544.7,403.2,548.6,403.2,552.2z"/>
	<path class="st0" d="M363.6,587.9c2.5-0.7,5-2.1,6.1-4.6c1.8-3.2,0.4-6.1-0.7-9.3c-0.7-1.8-2.1-2.5-3.9-2.5
		c-5-3.2-11.1,0.7-12.1,6.1C351.4,584.4,357.2,589.7,363.6,587.9z"/>
	<path class="st0" d="M743.2,434c18.9,0,31.8,17.9,33.2,35.4c1.8,22.5-11.8,43.6-31.1,54.6c-1.4,1.1-3.6-1.4-2.1-2.5
		c13.2-10.7,23.6-24.3,26.1-41.4c1.4-11.1,0-22.1-7.9-30.7c-5-5.4-11.1-8.2-18.2-8.6c-16.8,0.7-17.5,9.3-2.5,25
		c2.1-1.8,5.4,0.4,3.9,3.2c-6.8,12.1-23.2,8.6-27.1-4.3C712.1,448.3,728.2,434,743.2,434z"/>
	<path class="st0" d="M785.3,497.9c45.3-26.8,82.8-58.2,112.5-102.5c1.8-2.5,5.7-0.4,4.3,2.5c-26.4,44.6-67.1,83.2-115.3,102.5
		C784.9,501.2,783.9,498.7,785.3,497.9z"/>
	<path class="st0" d="M795.3,476.9c18.6-21.4,28.2-45.7,32.1-73.6c0.4-2.1,3.6-2.5,3.6,0c0,28.6-12.9,56.4-33.6,76.1
		C796,480.8,793.9,478.3,795.3,476.9z"/>
	<path class="st0" d="M786.7,424.4c9.3,6.4,12.1,18.9,6.8,28.9c-0.7,1.4-3.6,0.4-2.9-1.1c3.6-8.9,1.1-18.6-6.4-24.3
		C782.4,426.2,784.6,423,786.7,424.4z"/>
	<path class="st0" d="M468.2,551.1c1.4-1.1,3.2,0.7,1.8,1.8c-18.2,18.2-23.2,42.8-15,66.8c0.7,2.1-2.5,3.6-3.6,1.4
		C440.7,597.2,448.2,568.3,468.2,551.1z"/>
	<path class="st0" d="M345.4,619.3c41.1-12.5,76.1-33.6,106.1-64.3c1.8-1.8,4.3,0.7,2.5,2.5c-28.2,32.5-65.7,55.3-107.1,66.1
		C343.9,624.7,342.5,620.1,345.4,619.3z"/>
</g>
</svg>
